<?xml version="1.0" encoding="utf-8"?>

<!DOCTYPE svg PUBLIC "-//W3C//DTD SVG 1.0//EN"    "http://www.w3.org/TR/2001/REC-SVG-20010904/DTD/svg10.dtd">

<svg  
xmlns="http://www.w3.org/2000/svg" 
xmlns:xlink="http://www.w3.org/1999/xlink" 
width="765.354" 
height="198.425" 
viewBox="0 0 765.354 198.425" 
overflow="visible" 
enable-background="new 0 0 765.354 198.425"
xml:space="preserve"
>


<g id="Ebene_7">
  <rect fill="none" width="765.354" height="198.425"/> 
</g>

<g id="Volumen">

<g>
  <circle fill="#FFFFFF" stroke="#C0C0FF" stroke-width="1.4173" cx="88.44" cy="88.557" r="71.167"/> 
  <circle fill="#FFFFFF" stroke="#000000" stroke-width="1.4173" cx="78.922" cy="115.842" r="12.5"/> 
  <circle fill="#FFFFFF" stroke="#000000" stroke-width="1.4173" cx="57.04" cy="135.726" r="12.5"/> 
  <circle fill="#FFFFFF" stroke="#000000" stroke-width="1.4173" cx="88.04" cy="145.292" r="12.5"/> 
  <circle fill="#FFFFFF" stroke="#000000" stroke-width="1.4173" cx="107.04" cy="111.292" r="12.5"/> 
  <circle fill="#FF0000" stroke="#000000" stroke-width="1.4173" cx="119.94" cy="135.858" r="12.5"/> 
  <circle fill="#FFFFFF" stroke="#000000" stroke-width="1.4173" cx="141.99" cy="108.009" r="12.5"/> 
  <circle fill="#FFFFFF" stroke="#000000" stroke-width="1.4173" cx="117.089" cy="84.909" r="12.5"/> 
  <circle fill="#FF0000" stroke="#000000" stroke-width="1.4173" cx="143.04" cy="74.841" r="12.5"/> 
  <circle fill="#FF0000" stroke="#000000" stroke-width="1.4173" cx="128.972" cy="49.94" r="12.5"/> 
  <circle fill="#FF0000" stroke="#000000" stroke-width="1.4173" cx="85.99" cy="86.008" r="12.5"/> 
  <circle fill="#FFFFFF" stroke="#000000" stroke-width="1.4173" cx="98.04" cy="60.958" r="12.5"/> 
  <circle fill="#FFFFFF" stroke="#000000" stroke-width="1.4173" cx="102.04" cy="33.242" r="12.5"/> 
  <circle fill="#FF0000" stroke="#000000" stroke-width="1.4173" cx="72.706" cy="33.958" r="12.5"/> 
  <circle fill="#FFFFFF" stroke="#000000" stroke-width="1.4173" cx="68.706" cy="60.958" r="12.5"/> 
  <circle fill="#FF0000" stroke="#000000" stroke-width="1.4173" cx="41.94" cy="55.958" r="12.5"/> 
  <circle fill="#FFFFFF" stroke="#000000" stroke-width="1.4173" cx="32.089" cy="83.958" r="12.5"/> 
  <circle fill="#FFFFFF" stroke="#000000" stroke-width="1.4173" cx="59.04" cy="90.958" r="12.5"/> 
  <circle fill="#FF0000" stroke="#000000" stroke-width="1.4173" cx="37.94" cy="114.009" r="12.5"/> 
<g>
    <path d="M61.384,175.84l-4.425-11.469h1.626l2.977,8.326c0.239,0.668,0.44,1.293,0.602,1.877
    	c0.177-0.625,0.382-1.25,0.616-1.877l3.087-8.326h1.553l-4.468,11.469H61.384z"/>
    <path d="M67.187,171.684c0-1.539,0.427-2.68,1.283-3.42c0.714-0.615,1.584-0.924,2.612-0.924c1.142,0,2.075,0.375,2.8,1.123
    	c0.725,0.749,1.087,1.783,1.087,3.104c0,1.069-0.161,1.91-0.481,2.523c-0.321,0.613-0.788,1.09-1.4,1.429
    	c-0.613,0.339-1.281,0.509-2.006,0.509c-1.163,0-2.103-0.373-2.819-1.119S67.187,173.088,67.187,171.684z M68.624,171.68
    	c0,1.066,0.233,1.865,0.699,2.396s1.052,0.796,1.758,0.796c0.701,0,1.285-0.267,1.75-0.8s0.699-1.346,0.699-2.438
    	c0-1.029-0.234-1.811-0.703-2.341c-0.469-0.53-1.051-0.796-1.747-0.796c-0.707,0-1.292,0.264-1.758,0.792
    	S68.624,170.613,68.624,171.68z"/>
    <path d="M76.585,175.84v-11.469h1.406v11.469H76.585z"/>
    <path d="M85.608,175.84v-1.227c-0.646,0.943-1.523,1.414-2.633,1.414c-0.49,0-0.947-0.094-1.371-0.281
    	c-0.425-0.188-0.74-0.424-0.945-0.709c-0.206-0.283-0.351-0.633-0.434-1.045c-0.058-0.276-0.086-0.715-0.086-1.314v-5.15h1.406
    	v4.606c0,0.735,0.028,1.231,0.086,1.485c0.088,0.371,0.275,0.662,0.561,0.873s0.64,0.316,1.061,0.316s0.816-0.107,1.185-0.324
    	s0.63-0.511,0.784-0.884s0.23-0.914,0.23-1.623v-4.45h1.406v8.313H85.608z"/>
    <path d="M89.062,175.84v-8.313h1.25v1.164c0.261-0.406,0.609-0.732,1.042-0.98c0.434-0.247,0.927-0.371,1.481-0.371
    	c0.616,0,1.122,0.128,1.516,0.383c0.395,0.256,0.673,0.613,0.835,1.07c0.66-0.969,1.52-1.453,2.578-1.453
    	c0.828,0,1.464,0.229,1.91,0.686c0.445,0.456,0.668,1.159,0.668,2.109v5.705h-1.406v-5.238c0-0.563-0.046-0.969-0.138-1.217
    	s-0.258-0.447-0.5-0.6c-0.241-0.15-0.524-0.227-0.849-0.227c-0.587,0-1.075,0.195-1.463,0.584
    	c-0.388,0.389-0.582,1.011-0.582,1.867v4.83h-1.406v-5.402c0-0.626-0.115-1.096-0.345-1.409s-0.605-0.47-1.127-0.47
    	c-0.396,0-0.763,0.104-1.1,0.313s-0.581,0.515-0.732,0.916s-0.227,0.981-0.227,1.737v4.314H89.062z"/>
    <path d="M108.131,173.152l1.408,0.188c-0.229,0.852-0.655,1.513-1.275,1.982c-0.621,0.471-1.413,0.705-2.377,0.705
    	c-1.215,0-2.179-0.374-2.891-1.123c-0.712-0.748-1.067-1.799-1.067-3.15c0-1.398,0.359-2.482,1.079-3.256
    	c0.72-0.771,1.653-1.158,2.8-1.158c1.11,0,2.018,0.38,2.722,1.139c0.704,0.759,1.056,1.826,1.056,3.203
    	c0,0.084-0.002,0.209-0.007,0.377h-6.211c0.053,0.909,0.314,1.605,0.785,2.088c0.471,0.483,1.057,0.725,1.76,0.725
    	c0.523,0,0.97-0.137,1.34-0.41S107.915,173.752,108.131,173.152z M103.397,170.902h4.75c-0.064-0.705-0.246-1.233-0.545-1.586
    	c-0.459-0.547-1.055-0.82-1.786-0.82c-0.662,0-1.219,0.219-1.67,0.654C103.695,169.588,103.445,170.172,103.397,170.902z"/>
    <path d="M111.296,175.84v-8.313h1.25v1.18c0.612-0.911,1.496-1.367,2.652-1.367c0.502,0,0.964,0.09,1.385,0.27
    	c0.421,0.181,0.736,0.417,0.945,0.709s0.355,0.639,0.439,1.041c0.052,0.261,0.079,0.717,0.079,1.369v5.111h-1.438v-5.058
    	c0-0.574-0.055-1.003-0.163-1.288c-0.109-0.284-0.302-0.512-0.579-0.682c-0.277-0.169-0.602-0.254-0.975-0.254
    	c-0.596,0-1.109,0.191-1.542,0.572c-0.433,0.381-0.648,1.104-0.648,2.168v4.541H111.296z"/>
</g>
</g>

<g>
  <line fill="none" stroke="#000000" stroke-width="1.1339" stroke-linecap="round" x1="59.04" y1="90.958" x2="68.706" y2="60.958"/>
  <line fill="none" stroke="#000000" stroke-width="1.1339" stroke-linecap="round" x1="41.94" y1="55.958" x2="68.706" y2="60.958"/>
  <line fill="none" stroke="#000000" stroke-width="1.1339" stroke-linecap="round" x1="72.706" y1="33.958" x2="68.706" y2="60.958"/>
  <line fill="none" stroke="#000000" stroke-width="1.1339" stroke-linecap="round" x1="98.04" y1="60.958" x2="68.706" y2="60.958"/>
  <line fill="none" stroke="#000000" stroke-width="1.1339" stroke-linecap="round" x1="85.99" y1="86.008" x2="68.706" y2="60.958"/>
  <polygon points="59.225,82.338 62.891,79.072 63.887,83.88 "/>
  <polygon points="50.464,55.062 54.183,58.268 49.547,59.886 "/>
  <polygon points="60.14,61.838 56.4,58.657 61.025,57.008 "/>
  <polygon points="68.528,69.555 64.893,72.855 63.852,68.057 "/>
  <polygon points="79.297,80.618 78.864,75.727 83.316,77.797 "/>
  <polygon points="75.366,66.355 75.799,71.246 71.347,69.176 "/>
  <polygon points="67.466,52.419 70.537,48.588 72.319,53.164 "/>
  <polygon points="73.947,42.485 70.876,46.316 69.094,41.74 "/>
  <polygon points="76.931,58.48 81.167,60.964 76.898,63.391 "/>
  <polygon points="89.766,63.419 85.53,60.936 89.798,58.509 "/>
</g>
</g>

<g id="Oberflaeche">
<g>
  <circle fill="#FFFFFF" stroke="#C0C0FF" stroke-width="1.4173" cx="235.558" cy="88.557" r="71.167"/> 
  <circle fill="#FFFFFF" stroke="#000000" stroke-width="1.4173" cx="226.04" cy="115.842" r="12.5"/> 
  <circle fill="#FFFFFF" stroke="#000000" stroke-width="1.4173" cx="204.157" cy="135.726" r="12.5"/> 
  <circle fill="#FFFFFF" stroke="#000000" stroke-width="1.4173" cx="235.157" cy="145.292" r="12.5"/> 
  <circle fill="#FFFFFF" stroke="#000000" stroke-width="1.4173" cx="254.157" cy="111.292" r="12.5"/> 
  <circle fill="#FF0000" stroke="#000000" stroke-width="1.4173" cx="267.058" cy="135.858" r="12.5"/> 
  <circle fill="#FFFFFF" stroke="#000000" stroke-width="1.4173" cx="289.107" cy="108.009" r="12.5"/> 
  <circle fill="#FFFFFF" stroke="#000000" stroke-width="1.4173" cx="264.207" cy="84.909" r="12.5"/> 
  <circle fill="#FF0000" stroke="#000000" stroke-width="1.4173" cx="290.157" cy="74.841" r="12.5"/> 
  <circle fill="#FF0000" stroke="#000000" stroke-width="1.4173" cx="276.09" cy="49.94" r="12.5"/> 
  <circle fill="#FF0000" stroke="#000000" stroke-width="1.4173" cx="233.107" cy="86.008" r="12.5"/> 
  <circle fill="#FFFFFF" stroke="#000000" stroke-width="1.4173" cx="245.157" cy="60.958" r="12.5"/> 
  <circle fill="#FFFFFF" stroke="#000000" stroke-width="1.4173" cx="249.157" cy="33.242" r="12.5"/> 
  <circle fill="#FF0000" stroke="#000000" stroke-width="1.4173" cx="219.824" cy="33.958" r="12.5"/> 
  <circle fill="#FFFFFF" stroke="#000000" stroke-width="1.4173" cx="215.824" cy="60.958" r="12.5"/> 
  <circle fill="#FF0000" stroke="#000000" stroke-width="1.4173" cx="189.058" cy="55.958" r="12.5"/> 
  <circle fill="#FFFFFF" stroke="#000000" stroke-width="1.4173" cx="179.207" cy="83.958" r="12.5"/> 
  <circle fill="#FFFFFF" stroke="#000000" stroke-width="1.4173" cx="206.157" cy="90.958" r="12.5"/> 
  <circle fill="#FF0000" stroke="#000000" stroke-width="1.4173" cx="185.058" cy="114.009" r="12.5"/> 
<g>
    <path d="M197.207,170.258c0-1.899,0.508-3.387,1.524-4.462c1.017-1.074,2.329-1.612,3.937-1.612
    	c1.053,0,2.001,0.253,2.847,0.757c0.845,0.506,1.49,1.209,1.933,2.112s0.665,1.927,0.665,3.072c0,1.161-0.233,2.199-0.7,3.115
    	s-1.128,1.61-1.984,2.081s-1.779,0.706-2.769,0.706c-1.074,0-2.033-0.261-2.878-0.78c-0.846-0.521-1.486-1.231-1.921-2.132
    	S197.207,171.263,197.207,170.258z M198.769,170.276c0,1.376,0.369,2.459,1.106,3.251s1.663,1.188,2.776,1.188
    	c1.134,0,2.067-0.399,2.799-1.198c0.732-0.8,1.099-1.934,1.099-3.403c0-0.929-0.157-1.739-0.47-2.433
    	c-0.313-0.693-0.771-1.23-1.375-1.612c-0.604-0.382-1.28-0.572-2.031-0.572c-1.066,0-1.984,0.368-2.753,1.103
    	C199.153,167.333,198.769,168.56,198.769,170.276z"/>
    <path d="M211.214,175.84h-1.313v-11.469h1.406v4.086c0.596-0.745,1.357-1.117,2.283-1.117c0.512,0,0.997,0.103,1.455,0.31
    	c0.458,0.205,0.834,0.495,1.129,0.868s0.527,0.823,0.694,1.351c0.167,0.527,0.251,1.09,0.251,1.69
    	c0,1.425-0.353,2.525-1.058,3.303s-1.551,1.166-2.538,1.166c-0.982,0-1.752-0.409-2.311-1.227V175.84z M211.183,171.621
    	c0,0.997,0.136,1.718,0.409,2.161c0.445,0.727,1.049,1.089,1.81,1.089c0.619,0,1.153-0.268,1.604-0.803
    	s0.677-1.333,0.677-2.393c0-1.086-0.216-1.888-0.649-2.404s-0.956-0.775-1.57-0.775c-0.619,0-1.154,0.268-1.605,0.803
    	S211.183,170.608,211.183,171.621z"/>
    <path d="M224.565,173.152l1.408,0.188c-0.229,0.852-0.655,1.513-1.275,1.982s-1.413,0.705-2.377,0.705
    	c-1.215,0-2.179-0.374-2.891-1.123s-1.067-1.799-1.067-3.15c0-1.397,0.359-2.483,1.079-3.255c0.72-0.773,1.653-1.159,2.8-1.159
    	c1.11,0,2.018,0.38,2.722,1.139c0.704,0.759,1.056,1.827,1.056,3.203c0,0.084-0.002,0.21-0.007,0.377H219.8
    	c0.053,0.909,0.314,1.604,0.785,2.088s1.057,0.725,1.76,0.725c0.523,0,0.97-0.136,1.34-0.409S224.349,173.752,224.565,173.152z
    	 M219.832,170.902h4.75c-0.064-0.704-0.246-1.233-0.545-1.586c-0.459-0.547-1.055-0.82-1.786-0.82
    	c-0.662,0-1.219,0.218-1.67,0.655C220.129,169.587,219.879,170.171,219.832,170.902z"/>
    <path d="M227.699,175.84v-8.313h1.25v1.273c0.323-0.595,0.622-0.987,0.896-1.177c0.274-0.189,0.576-0.284,0.905-0.284
    	c0.475,0,0.958,0.152,1.449,0.456l-0.496,1.289c-0.34-0.184-0.681-0.276-1.021-0.276c-0.304,0-0.578,0.093-0.82,0.277
    	s-0.416,0.441-0.521,0.77c-0.158,0.5-0.236,1.047-0.236,1.641v4.344H227.699z"/>
    <path d="M233.386,175.84v-7.219h-1.219v-1.094h1.219v-0.881c0-0.556,0.05-0.969,0.149-1.239
    	c0.136-0.363,0.375-0.658,0.719-0.885c0.343-0.226,0.822-0.339,1.437-0.339c0.396,0,0.833,0.047,1.313,0.14l-0.211,1.22
    	c-0.292-0.052-0.568-0.078-0.828-0.078c-0.427,0-0.729,0.091-0.906,0.273c-0.177,0.183-0.266,0.523-0.266,1.023v0.766h1.625
    	v1.094h-1.625v7.219H233.386z"/>
    <path d="M237.472,175.84v-11.469h1.406v11.469H237.472z"/>
    <path d="M246.496,174.809c-0.514,0.446-1.013,0.761-1.497,0.944c-0.484,0.183-1.004,0.274-1.559,0.274
    	c-0.916,0-1.62-0.224-2.112-0.67s-0.738-1.017-0.738-1.712c0-0.407,0.093-0.779,0.279-1.116
    	c0.186-0.337,0.429-0.606,0.73-0.812c0.301-0.203,0.64-0.357,1.017-0.462c0.277-0.073,0.696-0.144,1.257-0.212
    	c1.142-0.135,1.982-0.297,2.521-0.485c0.005-0.193,0.008-0.315,0.008-0.368c0-0.576-0.133-0.98-0.397-1.216
    	c-0.359-0.319-0.892-0.479-1.599-0.479c-0.661,0-1.148,0.117-1.462,0.351c-0.314,0.234-0.547,0.648-0.698,1.243l-1.406-0.188
    	c0.125-0.591,0.332-1.067,0.619-1.431c0.287-0.362,0.702-0.642,1.245-0.838c0.543-0.195,1.172-0.294,1.887-0.294
    	c0.71,0,1.287,0.083,1.73,0.251c0.443,0.166,0.77,0.377,0.979,0.63s0.355,0.573,0.439,0.958c0.047,0.24,0.07,0.674,0.07,1.301
    	v1.883c0,1.313,0.029,2.141,0.088,2.485c0.059,0.345,0.175,0.676,0.349,0.992h-1.438
    	C246.646,175.546,246.542,175.202,246.496,174.809z M246.402,171.652c-0.515,0.21-1.288,0.39-2.318,0.536
    	c-0.583,0.084-0.996,0.18-1.238,0.284c-0.242,0.105-0.429,0.259-0.56,0.462c-0.131,0.202-0.197,0.427-0.197,0.674
    	c0,0.379,0.143,0.694,0.429,0.947c0.286,0.252,0.705,0.378,1.255,0.378c0.545,0,1.031-0.118,1.456-0.356
    	s0.737-0.564,0.937-0.98c0.152-0.322,0.228-0.796,0.228-1.423L246.402,171.652z M242.464,166.496v-1.594h1.469v1.594H242.464z
    	 M245.371,166.496v-1.594h1.469v1.594H245.371z"/>
    <path d="M255.363,172.809l1.375,0.188c-0.15,0.948-0.535,1.69-1.154,2.228c-0.619,0.535-1.379,0.804-2.281,0.804
    	c-1.129,0-2.037-0.372-2.724-1.115s-1.029-1.81-1.029-3.197c0-0.897,0.147-1.683,0.443-2.355
    	c0.295-0.673,0.745-1.178,1.35-1.515c0.604-0.336,1.261-0.505,1.972-0.505c0.897,0,1.631,0.231,2.201,0.692
    	s0.936,1.115,1.097,1.964l-1.375,0.188c-0.129-0.56-0.358-0.981-0.687-1.264s-0.725-0.424-1.19-0.424
    	c-0.703,0-1.274,0.255-1.714,0.764s-0.659,1.314-0.659,2.416c0,1.117,0.212,1.929,0.637,2.436s0.979,0.76,1.663,0.76
    	c0.549,0,1.007-0.169,1.375-0.506C255.031,174.028,255.264,173.509,255.363,172.809z"/>
    <path d="M257.957,175.84v-11.469h1.406v4.116c0.655-0.765,1.482-1.147,2.481-1.147c0.613,0,1.146,0.122,1.599,0.364
    	c0.452,0.242,0.776,0.578,0.971,1.006c0.195,0.428,0.292,1.049,0.292,1.862v5.268H263.3v-5.264
    	c0-0.704-0.152-1.216-0.456-1.536c-0.304-0.32-0.734-0.481-1.291-0.481c-0.416,0-0.807,0.108-1.173,0.325
    	c-0.367,0.216-0.628,0.51-0.784,0.879c-0.156,0.371-0.234,0.882-0.234,1.533v4.544H257.957z"/>
    <path d="M272.589,173.152l1.408,0.188c-0.229,0.852-0.655,1.513-1.275,1.982s-1.413,0.705-2.377,0.705
    	c-1.215,0-2.179-0.374-2.891-1.123s-1.067-1.799-1.067-3.15c0-1.397,0.359-2.483,1.079-3.255c0.72-0.773,1.653-1.159,2.8-1.159
    	c1.11,0,2.018,0.38,2.722,1.139c0.704,0.759,1.056,1.827,1.056,3.203c0,0.084-0.002,0.21-0.007,0.377h-6.211
    	c0.053,0.909,0.314,1.604,0.785,2.088s1.057,0.725,1.76,0.725c0.523,0,0.97-0.136,1.34-0.409S272.372,173.752,272.589,173.152z
    	 M267.855,170.902h4.75c-0.064-0.704-0.246-1.233-0.545-1.586c-0.459-0.547-1.055-0.82-1.786-0.82
    	c-0.662,0-1.219,0.218-1.67,0.655C268.153,169.587,267.903,170.171,267.855,170.902z"/>
</g>
</g>

  <line fill="none" stroke="#000000" stroke-width="1.1339" stroke-linecap="round" x1="179.207" y1="83.958" x2="189.058" y2="55.958"/>
  <line fill="none" stroke="#000000" stroke-linecap="round" x1="215.824" y1="60.958" x2="189.058" y2="55.958"/>
  <line fill="none" stroke="#000000" stroke-width="1.1339" stroke-linecap="round" x1="219.824" y1="33.958" x2="189.058" y2="55.958"/>
  <polygon points="179.633,75.368 183.36,72.172 184.264,76.998 "/>
  <polygon points="188.654,64.546 184.926,67.742 184.022,62.917 "/>
  <polygon points="207.248,61.872 203.52,58.676 208.151,57.046 "/>
  <polygon points="197.598,55.058 201.326,58.254 196.694,59.884 "/>
  <polygon points="194.344,49.156 199.23,48.674 197.205,53.147 "/>
  <polygon points="214.565,40.759 209.679,41.241 211.704,36.768 "/>
</g>

<g id="Coulomb">
<g>
  <circle fill="#FFFFFF" stroke="#C0C0FF" stroke-width="1.4173" cx="382.676" cy="88.557" r="71.167"/> 
  <circle fill="#FFFFFF" stroke="#000000" stroke-width="1.4173" cx="373.158" cy="115.842" r="12.5"/> 
  <circle fill="#FFFFFF" stroke="#000000" stroke-width="1.4173" cx="351.275" cy="135.726" r="12.5"/> 
  <circle fill="#FFFFFF" stroke="#000000" stroke-width="1.4173" cx="382.275" cy="145.292" r="12.5"/> 
  <circle fill="#FFFFFF" stroke="#000000" stroke-width="1.4173" cx="401.276" cy="111.292" r="12.5"/> 
  <circle fill="#FF0000" stroke="#000000" stroke-width="1.4173" cx="414.177" cy="135.858" r="12.5"/> 
  <circle fill="#FFFFFF" stroke="#000000" stroke-width="1.4173" cx="436.226" cy="108.009" r="12.5"/> 
  <circle fill="#FFFFFF" stroke="#000000" stroke-width="1.4173" cx="411.326" cy="84.909" r="12.5"/> 
  <circle fill="#FF0000" stroke="#000000" stroke-width="1.4173" cx="437.276" cy="74.841" r="12.5"/> 
  <circle fill="#FF0000" stroke="#000000" stroke-width="1.4173" cx="423.208" cy="49.94" r="12.5"/> 
  <circle fill="#FF0000" stroke="#000000" stroke-width="1.4173" cx="380.226" cy="86.008" r="12.5"/> 
  <circle fill="#FFFFFF" stroke="#000000" stroke-width="1.4173" cx="392.275" cy="60.958" r="12.5"/> 
  <circle fill="#FFFFFF" stroke="#000000" stroke-width="1.4173" cx="396.276" cy="33.242" r="12.5"/> 
  <circle fill="#FF0000" stroke="#000000" stroke-width="1.4173" cx="366.941" cy="33.958" r="12.5"/> 
  <circle fill="#FFFFFF" stroke="#000000" stroke-width="1.4173" cx="362.941" cy="60.958" r="12.5"/> 
  <circle fill="#FF0000" stroke="#000000" stroke-width="1.4173" cx="336.176" cy="55.958" r="12.5"/> 
  <circle fill="#FFFFFF" stroke="#000000" stroke-width="1.4173" cx="326.325" cy="83.958" r="12.5"/> 
  <circle fill="#FFFFFF" stroke="#000000" stroke-width="1.4173" cx="353.275" cy="90.958" r="12.5"/> 
  <circle fill="#FF0000" stroke="#000000" stroke-width="1.4173" cx="332.176" cy="114.009" r="12.5"/> 
<g>
    <path d="M360.066,171.811l1.531,0.382c-0.318,1.247-0.89,2.198-1.715,2.853c-0.826,0.655-1.835,0.982-3.027,0.982
    	c-1.234,0-2.238-0.251-3.012-0.754c-0.773-0.502-1.362-1.23-1.766-2.184c-0.404-0.953-0.605-1.977-0.605-3.07
    	c0-1.192,0.228-2.232,0.684-3.121c0.456-0.888,1.105-1.563,1.947-2.023s1.768-0.691,2.78-0.691c1.146,0,2.11,0.293,2.893,0.877
    	c0.782,0.586,1.327,1.408,1.634,2.468l-1.5,0.351c-0.266-0.83-0.651-1.436-1.156-1.814c-0.505-0.379-1.141-0.568-1.906-0.568
    	c-0.88,0-1.616,0.211-2.207,0.631c-0.591,0.42-1.007,0.984-1.246,1.693c-0.24,0.709-0.359,1.439-0.359,2.191
    	c0,0.971,0.142,1.818,0.425,2.543c0.283,0.724,0.724,1.265,1.321,1.623s1.245,0.537,1.941,0.537
    	c0.847,0,1.564-0.244,2.151-0.732C359.46,173.495,359.858,172.771,360.066,171.811z"/>
    <path d="M362.746,171.684c0-1.539,0.427-2.68,1.283-3.42c0.714-0.615,1.584-0.924,2.612-0.924c1.142,0,2.075,0.375,2.8,1.123
    	c0.725,0.749,1.087,1.783,1.087,3.104c0,1.069-0.161,1.91-0.481,2.523c-0.321,0.613-0.788,1.09-1.4,1.429
    	c-0.613,0.339-1.281,0.509-2.006,0.509c-1.163,0-2.103-0.373-2.819-1.119S362.746,173.088,362.746,171.684z M364.184,171.68
    	c0,1.066,0.233,1.865,0.699,2.396s1.052,0.796,1.758,0.796c0.701,0,1.285-0.267,1.75-0.8s0.699-1.346,0.699-2.438
    	c0-1.029-0.234-1.811-0.703-2.341c-0.469-0.53-1.051-0.796-1.747-0.796c-0.707,0-1.292,0.264-1.758,0.792
    	S364.184,170.613,364.184,171.68z"/>
    <path d="M377.613,175.84v-1.227c-0.646,0.943-1.523,1.414-2.633,1.414c-0.49,0-0.947-0.094-1.371-0.281
    	c-0.425-0.188-0.74-0.424-0.945-0.709c-0.206-0.283-0.351-0.633-0.434-1.045c-0.058-0.276-0.086-0.715-0.086-1.314v-5.15h1.406
    	v4.606c0,0.735,0.028,1.231,0.086,1.485c0.088,0.371,0.275,0.662,0.561,0.873s0.64,0.316,1.061,0.316s0.816-0.107,1.185-0.324
    	s0.63-0.511,0.784-0.884s0.23-0.914,0.23-1.623v-4.45h1.406v8.313H377.613z"/>
    <path d="M381.043,175.84v-11.469h1.406v11.469H381.043z"/>
    <path d="M384.097,171.684c0-1.539,0.428-2.68,1.283-3.42c0.714-0.615,1.584-0.924,2.611-0.924c1.143,0,2.076,0.375,2.801,1.123
    	c0.725,0.749,1.086,1.783,1.086,3.104c0,1.069-0.16,1.91-0.48,2.523s-0.787,1.09-1.4,1.429
    	c-0.612,0.339-1.281,0.509-2.006,0.509c-1.162,0-2.102-0.373-2.818-1.119S384.097,173.088,384.097,171.684z M385.535,171.68
    	c0,1.066,0.233,1.865,0.699,2.396s1.052,0.796,1.758,0.796c0.701,0,1.285-0.267,1.751-0.8s0.698-1.346,0.698-2.438
    	c0-1.029-0.234-1.811-0.702-2.341c-0.469-0.53-1.051-0.796-1.747-0.796c-0.706,0-1.292,0.264-1.758,0.792
    	S385.535,170.613,385.535,171.68z"/>
    <path d="M393.52,175.84v-8.313h1.25v1.164c0.262-0.406,0.609-0.732,1.043-0.98c0.434-0.247,0.927-0.371,1.48-0.371
    	c0.617,0,1.122,0.128,1.517,0.383c0.395,0.256,0.673,0.613,0.835,1.07c0.66-0.969,1.52-1.453,2.578-1.453
    	c0.828,0,1.465,0.229,1.91,0.686c0.445,0.456,0.668,1.159,0.668,2.109v5.705h-1.406v-5.238c0-0.563-0.046-0.969-0.138-1.217
    	s-0.259-0.447-0.499-0.6c-0.242-0.15-0.525-0.227-0.85-0.227c-0.588,0-1.075,0.195-1.463,0.584
    	c-0.389,0.389-0.582,1.011-0.582,1.867v4.83h-1.406v-5.402c0-0.626-0.115-1.096-0.345-1.409s-0.605-0.47-1.128-0.47
    	c-0.396,0-0.763,0.104-1.1,0.313s-0.58,0.515-0.732,0.916c-0.15,0.401-0.227,0.981-0.227,1.737v4.314H393.52z"/>
    <path d="M408.137,175.84h-1.313v-11.469h1.406v4.086c0.596-0.744,1.357-1.117,2.283-1.117c0.512,0,0.996,0.104,1.455,0.309
    	c0.457,0.207,0.834,0.496,1.129,0.869s0.527,0.823,0.694,1.35c0.167,0.527,0.251,1.092,0.251,1.691
    	c0,1.424-0.353,2.525-1.058,3.303s-1.551,1.166-2.538,1.166c-0.981,0-1.752-0.408-2.311-1.227V175.84z M408.106,171.621
    	c0,0.997,0.137,1.718,0.409,2.162c0.445,0.725,1.049,1.088,1.81,1.088c0.619,0,1.153-0.268,1.604-0.803
    	s0.677-1.332,0.677-2.393c0-1.086-0.217-1.887-0.648-2.404c-0.434-0.517-0.957-0.775-1.57-0.775
    	c-0.619,0-1.154,0.268-1.605,0.803S408.106,170.608,408.106,171.621z"/>
</g>
</g>

  <line fill="none" stroke="#000000" stroke-width="1.1339" stroke-linecap="round" x1="380.226" y1="86.008" x2="366.941" y2="33.958"/>
  <line fill="none" stroke="#000000" stroke-width="1.1339" stroke-linecap="round" x1="423.208" y1="49.94" x2="380.226" y2="86.008"/>
  <line fill="none" stroke="#000000" stroke-width="1.1339" stroke-linecap="round" x1="414.177" y1="135.858" x2="380.226" y2="86.008"/>
  <line fill="none" stroke="#000000" stroke-width="1.1339" stroke-linecap="round" x1="437.276" y1="74.841" x2="380.226" y2="86.008"/>
  <line fill="none" stroke="#000000" stroke-width="1.1339" stroke-linecap="round" x1="332.176" y1="114.009" x2="380.226" y2="86.008"/>
  <line fill="none" stroke="#000000" stroke-width="1.1339" stroke-linecap="round" x1="336.176" y1="55.958" x2="380.226" y2="86.008"/>
  <polygon points="365.323,37.588 366.649,32.862 370.081,36.374 "/>
  <polygon points="337.368,59.768 335.275,55.328 340.168,55.734 "/>
  <polygon points="336.066,114.536 331.158,114.645 333.518,110.339 "/>
  <polygon points="414.496,131.911 414.865,136.807 410.439,134.68 "/>
  <polygon points="433.81,73.05 438.456,74.637 434.758,77.868 "/>
  <polygon points="419.215,50.08 424.049,49.218 422.379,53.835 "/>
</g>

<g id="Symmetrie">
<g>
  <path fill="#FFFFFF" stroke="#C0C0FF" stroke-width="1.4173" d="M529.795,17.391c-39.305,0-71.167,31.862-71.167,71.167
        c0,15.382,4.896,29.613,13.192,41.251c12.903,18.101,34.052,29.917,57.975,29.917c7.501,0,14.727-1.168,21.516-3.319
        c28.785-9.121,49.65-36.045,49.65-67.849C600.961,49.253,569.099,17.391,529.795,17.391z"/>
  <path fill="#C0C0FF" d="M553.097,124.374c5.559-3.247,10.441-4.75,10.441-10.5s-0.25-8.25-4.25-12.25c-4-4-9.5-5.25-14.5-5.25
        s-7,5.75-13.5,5.75s-9-1.25-13-1.25s-12.125,3.875-16.75,8.5s-10.885,16.543-18.75,19.75c-4.497,1.834-8.425,0.918-10.968,0.685
        c12.903,18.101,34.052,29.917,57.975,29.917c7.501,0,14.727-1.168,21.516-3.319c-2.428-5.245-5.608-12.685-6.522-18.532
        C543.747,131.205,547.539,127.621,553.097,124.374z"/>
  <circle fill="#FFFFFF" stroke="#000000" stroke-width="1.4173" cx="520.277" cy="115.842" r="12.5"/> 
  <circle fill="#FFFFFF" stroke="#000000" stroke-width="1.4173" cx="498.394" cy="135.726" r="12.5"/> 
  <circle fill="#FFFFFF" stroke="#000000" stroke-width="1.4173" cx="529.394" cy="145.292" r="12.5"/> 
  <circle fill="#FFFFFF" stroke="#000000" stroke-width="1.4173" cx="548.394" cy="111.292" r="12.5"/> 
  <circle fill="#FF0000" stroke="#000000" stroke-width="1.4173" cx="561.295" cy="135.858" r="12.5"/> 
  <circle fill="#FFFFFF" stroke="#000000" stroke-width="1.4173" cx="583.344" cy="108.009" r="12.5"/> 
  <circle fill="#FFFFFF" stroke="#000000" stroke-width="1.4173" cx="558.444" cy="84.909" r="12.5"/> 
  <circle fill="#FF0000" stroke="#000000" stroke-width="1.4173" cx="584.394" cy="74.841" r="12.5"/> 
  <circle fill="#FF0000" stroke="#000000" stroke-width="1.4173" cx="570.327" cy="49.94" r="12.5"/> 
  <circle fill="#FF0000" stroke="#000000" stroke-width="1.4173" cx="527.344" cy="86.008" r="12.5"/> 
  <circle fill="#FFFFFF" stroke="#000000" stroke-width="1.4173" cx="539.394" cy="60.958" r="12.5"/> 
  <circle fill="#FFFFFF" stroke="#000000" stroke-width="1.4173" cx="543.394" cy="33.242" r="12.5"/> 
  <circle fill="#FF0000" stroke="#000000" stroke-width="1.4173" cx="514.061" cy="33.958" r="12.5"/> 
  <circle fill="#FFFFFF" stroke="#000000" stroke-width="1.4173" cx="510.061" cy="60.958" r="12.5"/> 
  <circle fill="#FF0000" stroke="#000000" stroke-width="1.4173" cx="483.295" cy="55.958" r="12.5"/> 
  <circle fill="#FFFFFF" stroke="#000000" stroke-width="1.4173" cx="473.444" cy="83.958" r="12.5"/> 
  <circle fill="#FFFFFF" stroke="#000000" stroke-width="1.4173" cx="500.394" cy="90.958" r="12.5"/> 
  <circle fill="#FF0000" stroke="#000000" stroke-width="1.4173" cx="479.295" cy="114.009" r="12.5"/> 
<g>
    <path d="M492.287,172.152l1.438-0.125c0.068,0.576,0.225,1.05,0.471,1.419s0.627,0.668,1.145,0.896s1.1,0.342,1.748,0.342
    	c0.574,0,1.08-0.087,1.52-0.259c0.441-0.174,0.768-0.41,0.982-0.711c0.215-0.302,0.322-0.629,0.322-0.982
    	c0-0.358-0.105-0.671-0.314-0.938c-0.211-0.268-0.553-0.493-1.027-0.675c-0.305-0.12-0.979-0.307-2.021-0.559
    	c-1.043-0.254-1.775-0.492-2.197-0.717c-0.547-0.287-0.955-0.643-1.225-1.068c-0.268-0.425-0.402-0.9-0.402-1.428
    	c0-0.58,0.164-1.121,0.492-1.625c0.326-0.504,0.805-0.886,1.432-1.146c0.629-0.261,1.328-0.392,2.098-0.392
    	c0.846,0,1.592,0.138,2.238,0.412s1.145,0.679,1.492,1.213s0.535,1.138,0.561,1.813l-1.469,0.125
    	c-0.076-0.731-0.34-1.284-0.785-1.658c-0.447-0.374-1.107-0.561-1.979-0.561c-0.91,0-1.572,0.169-1.986,0.505
    	c-0.416,0.336-0.625,0.741-0.625,1.215c0,0.412,0.148,0.751,0.441,1.017c0.289,0.267,1.045,0.538,2.266,0.817
    	s2.063,0.522,2.521,0.73c0.67,0.307,1.162,0.695,1.482,1.166c0.318,0.471,0.477,1.013,0.477,1.626
    	c0,0.608-0.174,1.182-0.521,1.72s-0.848,0.957-1.5,1.256s-1.387,0.448-2.201,0.448c-1.035,0-1.9-0.151-2.6-0.453
    	c-0.697-0.302-1.246-0.757-1.643-1.363C492.517,173.604,492.308,172.918,492.287,172.152z"/>
    <path d="M503.24,179.046l-0.188-1.3c0.314,0.083,0.588,0.125,0.822,0.125c0.318,0,0.574-0.053,0.766-0.157
    	s0.35-0.251,0.471-0.439c0.092-0.142,0.238-0.492,0.439-1.051c0.027-0.079,0.068-0.194,0.127-0.346l-3.188-8.351h1.504
    	l1.758,4.8c0.227,0.607,0.432,1.248,0.611,1.919c0.162-0.625,0.354-1.245,0.578-1.86l1.768-4.858h1.406L507,175.995
    	c-0.344,0.909-0.609,1.535-0.799,1.879c-0.254,0.463-0.545,0.801-0.871,1.018c-0.328,0.215-0.717,0.323-1.172,0.323
    	C503.884,179.215,503.578,179.158,503.24,179.046z"/>
    <path d="M511.294,175.84v-8.313h1.25v1.165c0.262-0.406,0.609-0.733,1.043-0.98c0.434-0.248,0.928-0.372,1.482-0.372
    	c0.615,0,1.121,0.128,1.516,0.384c0.395,0.255,0.672,0.611,0.834,1.07c0.66-0.969,1.52-1.454,2.578-1.454
    	c0.828,0,1.465,0.229,1.91,0.685c0.445,0.457,0.668,1.16,0.668,2.109v5.706h-1.406v-5.237c0-0.564-0.045-0.97-0.137-1.218
    	s-0.258-0.448-0.5-0.599c-0.24-0.152-0.523-0.228-0.85-0.228c-0.586,0-1.074,0.194-1.463,0.583
    	c-0.387,0.389-0.582,1.012-0.582,1.867v4.831h-1.406v-5.402c0-0.626-0.115-1.096-0.344-1.409
    	c-0.23-0.313-0.605-0.47-1.127-0.47c-0.396,0-0.764,0.104-1.102,0.313c-0.336,0.209-0.58,0.514-0.73,0.916
    	c-0.152,0.402-0.229,0.98-0.229,1.738v4.313H511.294z"/>
    <path d="M524.623,175.84v-8.313h1.25v1.165c0.262-0.406,0.609-0.733,1.043-0.98c0.434-0.248,0.928-0.372,1.482-0.372
    	c0.615,0,1.121,0.128,1.516,0.384c0.395,0.255,0.672,0.611,0.834,1.07c0.66-0.969,1.52-1.454,2.578-1.454
    	c0.828,0,1.465,0.229,1.91,0.685c0.445,0.457,0.668,1.16,0.668,2.109v5.706h-1.406v-5.237c0-0.564-0.045-0.97-0.137-1.218
    	s-0.258-0.448-0.5-0.599c-0.24-0.152-0.523-0.228-0.85-0.228c-0.586,0-1.074,0.194-1.463,0.583
    	c-0.387,0.389-0.582,1.012-0.582,1.867v4.831h-1.406v-5.402c0-0.626-0.115-1.096-0.344-1.409
    	c-0.23-0.313-0.605-0.47-1.127-0.47c-0.396,0-0.764,0.104-1.102,0.313c-0.336,0.209-0.58,0.514-0.73,0.916
    	c-0.152,0.402-0.229,0.98-0.229,1.738v4.313H524.623z"/>
    <path d="M543.693,173.152l1.408,0.188c-0.229,0.852-0.654,1.513-1.275,1.982s-1.412,0.705-2.377,0.705
    	c-1.215,0-2.18-0.374-2.891-1.123c-0.713-0.749-1.068-1.799-1.068-3.15c0-1.397,0.359-2.483,1.08-3.255
    	c0.719-0.773,1.652-1.159,2.799-1.159c1.111,0,2.018,0.38,2.723,1.139c0.703,0.759,1.055,1.827,1.055,3.203
    	c0,0.084-0.002,0.21-0.006,0.377h-6.213c0.053,0.909,0.314,1.604,0.785,2.088s1.057,0.725,1.76,0.725
    	c0.523,0,0.971-0.136,1.34-0.409C543.183,174.188,543.476,173.752,543.693,173.152z M538.958,170.902h4.75
    	c-0.064-0.704-0.246-1.233-0.545-1.586c-0.459-0.547-1.055-0.82-1.785-0.82c-0.662,0-1.219,0.218-1.67,0.655
    	C539.257,169.587,539.007,170.171,538.958,170.902z"/>
    <path d="M549.951,174.595l0.188,1.242c-0.396,0.085-0.754,0.128-1.066,0.128c-0.514,0-0.912-0.081-1.195-0.243
    	c-0.281-0.162-0.48-0.375-0.596-0.639c-0.115-0.265-0.174-0.82-0.174-1.668v-4.794h-1.031v-1.094h1.031v-2.055l1.406-0.844
    	v2.898h1.438v1.094h-1.438v4.852c0,0.401,0.025,0.659,0.076,0.773s0.133,0.206,0.246,0.273s0.277,0.102,0.488,0.102
    	C549.482,174.621,549.691,174.612,549.951,174.595z"/>
    <path d="M551.271,175.84v-8.313h1.25v1.273c0.324-0.595,0.623-0.987,0.896-1.177c0.275-0.189,0.576-0.284,0.906-0.284
    	c0.475,0,0.957,0.152,1.447,0.456l-0.494,1.289c-0.342-0.184-0.682-0.276-1.021-0.276c-0.305,0-0.578,0.093-0.82,0.277
    	s-0.416,0.441-0.521,0.77c-0.156,0.5-0.236,1.047-0.236,1.641v4.344H551.271z"/>
    <path d="M556.662,165.965v-1.594h1.406v1.594H556.662z M556.662,175.84v-8.313h1.406v8.313H556.662z"/>
    <path d="M565.919,173.152l1.408,0.188c-0.229,0.852-0.654,1.513-1.275,1.982s-1.412,0.705-2.377,0.705
    	c-1.215,0-2.18-0.374-2.891-1.123c-0.713-0.749-1.068-1.799-1.068-3.15c0-1.397,0.359-2.483,1.08-3.255
    	c0.719-0.773,1.652-1.159,2.799-1.159c1.111,0,2.018,0.38,2.723,1.139c0.703,0.759,1.055,1.827,1.055,3.203
    	c0,0.084-0.002,0.21-0.006,0.377h-6.213c0.053,0.909,0.314,1.604,0.785,2.088s1.057,0.725,1.76,0.725
    	c0.523,0,0.971-0.136,1.34-0.409C565.41,174.188,565.703,173.752,565.919,173.152z M561.185,170.902h4.75
    	c-0.064-0.704-0.246-1.233-0.545-1.586c-0.459-0.547-1.055-0.82-1.785-0.82c-0.662,0-1.219,0.218-1.67,0.655
    	C561.484,169.587,561.234,170.171,561.185,170.902z"/>
</g>
</g>

  <line fill="none" stroke="#000000" stroke-width="1.1339" stroke-linecap="round" x1="479.295" y1="114.009" x2="473.444" y2="83.958"/>
  <line fill="none" stroke="#000000" stroke-width="1.1339" stroke-linecap="round" x1="483.295" y1="55.958" x2="510.061" y2="60.958"/>
  <line fill="none" stroke="#000000" stroke-width="1.1339" stroke-linecap="round" x1="514.061" y1="33.958" x2="543.394" y2="33.242"/>
  <line fill="none" stroke="#000000" stroke-width="1.1339" stroke-linecap="round" x1="570.327" y1="49.94" x2="539.394" y2="60.958"/>
  <line fill="none" stroke="#000000" stroke-width="1.1339" stroke-linecap="round" x1="584.394" y1="74.841" x2="558.444" y2="84.909"/>
  <line fill="none" stroke="#000000" stroke-width="1.1339" stroke-linecap="round" x1="500.394" y1="90.958" x2="527.344" y2="86.008"/>
  <line fill="none" stroke="#000000" stroke-width="1.1339" stroke-linecap="round" x1="561.295" y1="135.858" x2="583.344" y2="108.009"/>
</g>

<g id="Paarung">
<g>
  <path fill="#FFFFFF" stroke="#C0C0FF" stroke-width="1.4173" d="M676.914,17.391c-39.305,0-71.167,31.862-71.167,71.167
      c0,39.305,31.862,71.168,71.167,71.168c7.15,0,14.049-1.066,20.56-3.028c26.783-8.071,46.9-31.493,50.135-60.044
      c0.302-2.659,0.472-5.356,0.472-8.096C748.08,49.253,716.217,17.391,676.914,17.391z"/>
  <path fill="#C0C0FF" d="M747.608,96.653c-4.129-2.133-8.785-3.654-12.194-3.654c-5.75,0-12.789-0.5-17.5,6.25
      c-4.711,6.75,0.392,5.859-6.375,16.375c-3.215,4.997-10.627,7.606-14.127,11.106s-7.302,14.332-2.623,24.394
      c1.295,2.785,2.043,4.38,2.685,5.573C724.256,148.626,744.374,125.204,747.608,96.653z"/>
  <circle fill="#FFFFFF" stroke="#000000" stroke-width="1.4173" cx="667.395" cy="115.842" r="12.5"/> 
  <circle fill="#FFFFFF" stroke="#000000" stroke-width="1.4173" cx="645.512" cy="135.726" r="12.5"/> 
  <circle fill="#FFFFFF" stroke="#000000" stroke-width="1.4173" cx="676.512" cy="145.292" r="12.5"/> 
  <circle fill="#FFFFFF" stroke="#000000" stroke-width="1.4173" cx="695.512" cy="111.292" r="12.5"/> 
  <circle fill="#FF0000" stroke="#000000" stroke-width="1.4173" cx="708.414" cy="135.858" r="12.5"/> 
  <circle fill="#FFFFFF" stroke="#000000" stroke-width="1.4173" cx="730.462" cy="108.009" r="12.5"/> 
  <circle fill="#FFFFFF" stroke="#000000" stroke-width="1.4173" cx="705.562" cy="84.909" r="12.5"/> 
  <circle fill="#FF0000" stroke="#000000" stroke-width="1.4173" cx="731.512" cy="74.841" r="12.5"/> 
  <circle fill="#FF0000" stroke="#000000" stroke-width="1.4173" cx="717.445" cy="49.94" r="12.5"/> 
  <circle fill="#FF0000" stroke="#000000" stroke-width="1.4173" cx="674.462" cy="86.008" r="12.5"/> 
  <circle fill="#FFFFFF" stroke="#000000" stroke-width="1.4173" cx="686.512" cy="60.958" r="12.5"/> 
  <circle fill="#FFFFFF" stroke="#000000" stroke-width="1.4173" cx="690.512" cy="33.242" r="12.5"/> 
  <circle fill="#FF0000" stroke="#000000" stroke-width="1.4173" cx="661.179" cy="33.958" r="12.5"/> 
  <circle fill="#FFFFFF" stroke="#000000" stroke-width="1.4173" cx="657.179" cy="60.958" r="12.5"/> 
  <circle fill="#FF0000" stroke="#000000" stroke-width="1.4173" cx="630.414" cy="55.958" r="12.5"/> 
  <circle fill="#FFFFFF" stroke="#000000" stroke-width="1.4173" cx="620.562" cy="83.958" r="12.5"/> 
  <circle fill="#FFFFFF" stroke="#000000" stroke-width="1.4173" cx="647.512" cy="90.958" r="12.5"/> 
  <circle fill="#FF0000" stroke="#000000" stroke-width="1.4173" cx="626.414" cy="114.009" r="12.5"/> 
<g>
    <path d="M647.917,175.84v-11.469h4.324c0.761,0,1.343,0.036,1.743,0.108c0.563,0.094,1.035,0.272,1.416,0.535
    	c0.381,0.262,0.687,0.63,0.918,1.103c0.232,0.473,0.349,0.992,0.349,1.559c0,0.972-0.31,1.794-0.929,2.468
    	c-0.619,0.672-1.738,1.009-3.355,1.009h-2.935v4.688H647.917z M649.448,169.809h2.957c0.978,0,1.671-0.183,2.083-0.547
    	c0.41-0.364,0.616-0.878,0.616-1.539c0-0.479-0.121-0.89-0.362-1.23c-0.242-0.341-0.561-0.566-0.956-0.676
    	c-0.255-0.067-0.726-0.102-1.412-0.102h-2.926V169.809z"/>
    <path d="M663.838,174.809c-0.514,0.446-1.013,0.761-1.497,0.944c-0.484,0.183-1.004,0.274-1.559,0.274
    	c-0.916,0-1.62-0.224-2.112-0.67s-0.738-1.017-0.738-1.712c0-0.407,0.093-0.779,0.278-1.116s0.43-0.606,0.73-0.812
    	c0.301-0.203,0.641-0.357,1.018-0.462c0.277-0.073,0.696-0.144,1.257-0.212c1.142-0.135,1.981-0.297,2.521-0.485
    	c0.005-0.193,0.008-0.315,0.008-0.368c0-0.576-0.133-0.98-0.397-1.216c-0.359-0.319-0.892-0.479-1.599-0.479
    	c-0.661,0-1.147,0.117-1.462,0.351c-0.314,0.234-0.548,0.648-0.698,1.243l-1.406-0.188c0.125-0.591,0.331-1.067,0.618-1.431
    	c0.287-0.362,0.702-0.642,1.245-0.838c0.543-0.195,1.172-0.294,1.888-0.294c0.709,0,1.286,0.083,1.73,0.251
    	c0.443,0.166,0.77,0.377,0.979,0.63s0.354,0.573,0.438,0.958c0.047,0.24,0.07,0.674,0.07,1.301v1.883
    	c0,1.313,0.029,2.141,0.089,2.485c0.059,0.345,0.175,0.676,0.349,0.992h-1.438
    	C663.989,175.546,663.884,175.202,663.838,174.809z M663.745,171.652c-0.515,0.21-1.288,0.39-2.317,0.536
    	c-0.584,0.084-0.996,0.18-1.238,0.284c-0.242,0.105-0.429,0.259-0.561,0.462c-0.131,0.202-0.196,0.427-0.196,0.674
    	c0,0.379,0.143,0.694,0.429,0.947c0.286,0.252,0.705,0.378,1.256,0.378c0.545,0,1.03-0.118,1.455-0.356s0.737-0.564,0.938-0.98
    	c0.151-0.322,0.228-0.796,0.228-1.423L663.745,171.652z"/>
    <path d="M672.737,174.809c-0.514,0.446-1.013,0.761-1.497,0.944c-0.484,0.183-1.004,0.274-1.559,0.274
    	c-0.916,0-1.62-0.224-2.112-0.67s-0.738-1.017-0.738-1.712c0-0.407,0.093-0.779,0.278-1.116s0.43-0.606,0.73-0.812
    	c0.301-0.203,0.641-0.357,1.018-0.462c0.277-0.073,0.696-0.144,1.257-0.212c1.142-0.135,1.981-0.297,2.521-0.485
    	c0.005-0.193,0.008-0.315,0.008-0.368c0-0.576-0.133-0.98-0.397-1.216c-0.359-0.319-0.892-0.479-1.599-0.479
    	c-0.661,0-1.147,0.117-1.462,0.351c-0.314,0.234-0.548,0.648-0.698,1.243l-1.406-0.188c0.125-0.591,0.331-1.067,0.618-1.431
    	c0.287-0.362,0.702-0.642,1.245-0.838c0.543-0.195,1.172-0.294,1.888-0.294c0.709,0,1.286,0.083,1.73,0.251
    	c0.443,0.166,0.77,0.377,0.979,0.63s0.354,0.573,0.438,0.958c0.047,0.24,0.07,0.674,0.07,1.301v1.883
    	c0,1.313,0.029,2.141,0.089,2.485c0.059,0.345,0.175,0.676,0.349,0.992h-1.438
    	C672.887,175.546,672.783,175.202,672.737,174.809z M672.643,171.652c-0.515,0.21-1.288,0.39-2.317,0.536
    	c-0.584,0.084-0.996,0.18-1.238,0.284c-0.242,0.105-0.429,0.259-0.561,0.462c-0.131,0.202-0.196,0.427-0.196,0.674
    	c0,0.379,0.143,0.694,0.429,0.947c0.286,0.252,0.705,0.378,1.256,0.378c0.545,0,1.03-0.118,1.455-0.356s0.737-0.564,0.938-0.98
    	c0.151-0.322,0.228-0.796,0.228-1.423L672.643,171.652z"/>
    <path d="M676.167,175.84v-8.313h1.25v1.273c0.323-0.595,0.622-0.987,0.896-1.177s0.575-0.284,0.905-0.284
    	c0.475,0,0.957,0.152,1.448,0.456l-0.495,1.289c-0.341-0.184-0.682-0.276-1.021-0.276c-0.305,0-0.578,0.093-0.82,0.277
    	s-0.416,0.441-0.521,0.77c-0.157,0.5-0.236,1.047-0.236,1.641v4.344H676.167z"/>
    <path d="M686.963,175.84v-1.227c-0.646,0.942-1.523,1.414-2.633,1.414c-0.489,0-0.946-0.095-1.371-0.282
    	s-0.739-0.424-0.945-0.707c-0.206-0.285-0.351-0.633-0.434-1.046c-0.058-0.276-0.086-0.714-0.086-1.315v-5.149h1.406v4.606
    	c0,0.735,0.028,1.23,0.086,1.486c0.088,0.37,0.274,0.661,0.562,0.872c0.285,0.211,0.639,0.316,1.061,0.316
    	c0.42,0,0.815-0.108,1.185-0.324s0.63-0.511,0.784-0.884c0.152-0.373,0.229-0.914,0.229-1.623v-4.45h1.406v8.313H686.963z"/>
    <path d="M690.424,175.84v-8.313h1.25v1.18c0.612-0.911,1.495-1.367,2.651-1.367c0.502,0,0.965,0.091,1.385,0.271
    	c0.422,0.18,0.736,0.416,0.945,0.708s0.355,0.64,0.439,1.041c0.053,0.261,0.079,0.718,0.079,1.37v5.11h-1.438v-5.058
    	c0-0.574-0.055-1.004-0.163-1.288c-0.109-0.284-0.302-0.511-0.578-0.681c-0.277-0.17-0.603-0.255-0.975-0.255
    	c-0.596,0-1.109,0.19-1.542,0.571s-0.648,1.104-0.648,2.169v4.541H690.424z"/>
    <path d="M699.057,176.527l1.406,0.188c0.057,0.432,0.215,0.747,0.475,0.944c0.348,0.266,0.822,0.399,1.425,0.399
    	c0.648,0,1.148-0.132,1.502-0.394c0.353-0.262,0.592-0.629,0.717-1.102c0.072-0.289,0.105-0.895,0.101-1.817
    	c-0.617,0.729-1.386,1.094-2.306,1.094c-1.146,0-2.032-0.412-2.66-1.236c-0.627-0.824-0.94-1.813-0.94-2.967
    	c0-0.793,0.144-1.524,0.431-2.195s0.703-1.188,1.25-1.554c0.545-0.365,1.186-0.548,1.922-0.548
    	c0.982,0,1.791,0.406,2.429,1.219v-1.031h1.281v7.187c0,1.294-0.132,2.211-0.395,2.752c-0.263,0.539-0.68,0.966-1.25,1.279
    	c-0.57,0.313-1.272,0.47-2.105,0.47c-0.989,0-1.789-0.224-2.398-0.67S699.037,177.426,699.057,176.527z M700.213,171.534
    	c0,1.095,0.218,1.893,0.653,2.396c0.437,0.503,0.982,0.754,1.64,0.754c0.651,0,1.197-0.25,1.639-0.75s0.662-1.284,0.662-2.352
    	c0-1.021-0.228-1.79-0.682-2.309s-1.002-0.777-1.643-0.777c-0.631,0-1.167,0.255-1.608,0.766S700.213,170.53,700.213,171.534z"
    	/>
</g>
</g>

  <line fill="none" stroke="#000000" stroke-width="1.1339" stroke-linecap="round" x1="630.414" y1="55.958" x2="661.179" y2="33.958"/>
  <line fill="none" stroke="#000000" stroke-width="1.1339" stroke-linecap="round" x1="717.445" y1="49.94" x2="731.512" y2="74.841"/>
  <line fill="none" stroke="#000000" stroke-width="1.1339" stroke-linecap="round" x1="674.462" y1="86.008" x2="626.414" y2="114.009"/>
  <line fill="none" stroke="#000000" stroke-width="1.1339" stroke-linecap="round" x1="686.512" y1="60.958" x2="690.512" y2="33.242"/>
  <line fill="none" stroke="#000000" stroke-width="1.1339" stroke-linecap="round" x1="620.562" y1="83.958" x2="657.179" y2="60.958"/>
  <line fill="none" stroke="#000000" stroke-width="1.1339" stroke-linecap="round" x1="647.512" y1="90.958" x2="667.395" y2="115.842"/>
  <line fill="none" stroke="#000000" stroke-width="1.1339" stroke-linecap="round" x1="695.512" y1="111.292" x2="705.562" y2="84.909"/>
  <line fill="none" stroke="#000000" stroke-width="1.1339" stroke-linecap="round" x1="645.512" y1="135.726" x2="676.512" y2="145.292"/>
</g>

</svg>
