<?xml version="1.0" encoding="UTF-8" standalone="no"?>
<!-- Created with Inkscape (http://www.inkscape.org/) -->
<svg
   xmlns:svg="http://www.w3.org/2000/svg"
   xmlns="http://www.w3.org/2000/svg"
   version="1.0"
   width="548.35449"
   height="285.75027"
   id="svg2">
  <defs
     id="defs4" />
  <path
     d="M 244.13486,141.18104 C 251.21241,130.0528 259.74639,124.64672 275.00192,123.9803"
     style="fill:none;fill-opacity:0.75;fill-rule:evenodd;stroke:#000000;stroke-width:2.5;stroke-linecap:butt;stroke-linejoin:miter;stroke-miterlimit:4;stroke-dasharray:none;stroke-opacity:1"
     id="path12950" />
  <path
     d="M 311.73073,144.21528 C 315.27428,149.145 316.87793,154.26448 317.09013,164.89039"
     style="fill:none;fill-opacity:0.75;fill-rule:evenodd;stroke:#000000;stroke-width:2.5;stroke-linecap:butt;stroke-linejoin:miter;stroke-miterlimit:4;stroke-dasharray:none;stroke-opacity:1"
     id="path12952" />
  <path
     d="M 257.35993,198.70389 C 262.7609,201.894 265.2885,203.49765 275.91442,203.70985"
     style="fill:none;fill-opacity:0.75;fill-rule:evenodd;stroke:#000000;stroke-width:2.5;stroke-linecap:butt;stroke-linejoin:miter;stroke-miterlimit:4;stroke-dasharray:none;stroke-opacity:1"
     id="path14892" />
  <path
     d="M 192.7683,224.5928 C 217.16439,194.85007 241.72097,210.0613 247.198,211.98677"
     style="fill:none;fill-opacity:0.75;fill-rule:evenodd;stroke:#000000;stroke-width:2.5;stroke-linecap:butt;stroke-linejoin:miter;stroke-miterlimit:4;stroke-dasharray:none;stroke-opacity:1"
     id="path15865" />
  <path
     d="M 227.05195,246.50605 L 275.47317,276.19498"
     style="fill:#2a0250;fill-opacity:1;fill-rule:evenodd;stroke:#2a0250;stroke-width:5;stroke-linecap:butt;stroke-linejoin:miter;stroke-miterlimit:4;stroke-dasharray:none;stroke-opacity:1"
     id="path9961" />
  <path
     d="M 328.37132,246.74168 L 277.82945,276.19497"
     style="fill:#2a0250;fill-opacity:1;fill-rule:evenodd;stroke:#2a0250;stroke-width:5;stroke-linecap:butt;stroke-linejoin:miter;stroke-miterlimit:4;stroke-dasharray:none;stroke-opacity:1"
     id="path10934" />
  <path
     d="M 277.46788,165.34087 L 276.65942,278.42531"
     style="fill:#137b43;fill-opacity:1;fill-rule:evenodd;stroke:#137b43;stroke-width:5.01622963;stroke-linecap:butt;stroke-linejoin:miter;stroke-miterlimit:4;stroke-dasharray:none;stroke-opacity:1"
     id="path10936" />
  <path
     d="M 275.94443,165.804 L 228.4657,244.62103"
     style="fill:#ff0000;fill-opacity:1;fill-rule:evenodd;stroke:#ff0000;stroke-width:5;stroke-linecap:butt;stroke-linejoin:miter;stroke-miterlimit:4;stroke-dasharray:none;stroke-opacity:1"
     id="path8986" />
  <path
     d="M 278.4185,165.21493 L 326.95754,244.62103"
     style="fill:#ff0000;fill-opacity:1;fill-rule:evenodd;stroke:#ff0000;stroke-width:5;stroke-linecap:butt;stroke-linejoin:miter;stroke-miterlimit:4;stroke-dasharray:none;stroke-opacity:1"
     id="path9959" />
  <path
     d="M 278.1112,163.89803 L 14.576532,4.8672597"
     style="fill:#1c7ec3;fill-opacity:1;fill-rule:nonzero;stroke:#1c7ec3;stroke-width:6.15020275;stroke-linecap:butt;stroke-linejoin:miter;stroke-miterlimit:4;stroke-dasharray:none;stroke-opacity:1"
     id="path8978" />
  <path
     d="M 276.7002,164.0078 L 540.26249,4.3748894"
     style="fill:#1c7ec3;fill-opacity:1;fill-rule:nonzero;stroke:#1c7ec3;stroke-width:6.25014734;stroke-linecap:butt;stroke-linejoin:miter;stroke-miterlimit:4;stroke-dasharray:none;stroke-opacity:1"
     id="path6050" />
  <path
     d="M 227.15403,246.65884 L 12.04147,117.77391"
     style="fill:#1c7ec3;fill-opacity:1;fill-rule:nonzero;stroke:#1c7ec3;stroke-width:5.09581614;stroke-linecap:butt;stroke-linejoin:miter;stroke-miterlimit:4;stroke-dasharray:none;stroke-opacity:1"
     id="path8982" />
  <path
     d="M 17.93349,277.84436 C 535.3691,278.78687 535.3691,278.78687 535.3691,278.78687 L 535.3691,278.78687 L 535.3691,278.78687"
     style="fill:#939393;fill-opacity:1;fill-rule:evenodd;stroke:#939393;stroke-width:2;stroke-linecap:butt;stroke-linejoin:miter;stroke-miterlimit:4;stroke-dasharray:2, 8;stroke-dashoffset:7.4;stroke-opacity:1"
     id="path16838" />
  <path
     d="M 13.57441,164.0368 C 531.01002,164.97931 531.01002,164.97931 531.01002,164.97931 L 531.01002,164.97931 L 531.01002,164.97931"
     style="fill:#939393;fill-opacity:1;fill-rule:evenodd;stroke:#939393;stroke-width:2;stroke-linecap:butt;stroke-linejoin:miter;stroke-miterlimit:4;stroke-dasharray:2, 8;stroke-dashoffset:7.4;stroke-opacity:1"
     id="path15867" />
  <path
     d="M 276.71129,2.50459 C 277.64462,159.1716 277.40899,161.05661 277.40899,161.05661"
     style="fill:#959595;fill-opacity:1;fill-rule:nonzero;stroke:#939393;stroke-width:5.00918913;stroke-linecap:butt;stroke-linejoin:miter;stroke-miterlimit:4;stroke-dasharray:none;stroke-opacity:1"
     id="path2170" />
  <path
     d="M 328.29178,246.63628 L 541.91794,117.33653"
     style="fill:#1c7ec3;fill-opacity:1;fill-rule:nonzero;stroke:#1c7ec3;stroke-width:5.14095259;stroke-linecap:butt;stroke-linejoin:miter;stroke-miterlimit:4;stroke-dasharray:none;stroke-opacity:1"
     id="path8980" />
  <g
     transform="translate(-4,0)"
     id="g2250">
    <path
       d="M 78.60731,167.19587 L 78.60731,276.33465"
       style="fill:#137b43;fill-opacity:1;fill-rule:evenodd;stroke:#137b43;stroke-width:5.09542179;stroke-linecap:butt;stroke-linejoin:miter;stroke-miterlimit:4;stroke-dasharray:none;stroke-opacity:1"
       id="path11907" />
    <path
       d="M 87.62395,277.72654 L 68.88379,277.72654"
       style="fill:#137b43;fill-opacity:1;fill-rule:evenodd;stroke:#137b43;stroke-width:3.90704489;stroke-linecap:butt;stroke-linejoin:miter;stroke-miterlimit:4;stroke-dasharray:none;stroke-opacity:1"
       id="path11909" />
    <path
       d="M 87.97739,166.15744 L 69.23723,166.15744"
       style="fill:#137b43;fill-opacity:1;fill-rule:evenodd;stroke:#137b43;stroke-width:3.90704489;stroke-linecap:butt;stroke-linejoin:miter;stroke-miterlimit:4;stroke-dasharray:none;stroke-opacity:1"
       id="path11911" />
  </g>
  <g
     transform="translate(-74.957244,-257.08701)"
     id="g2200">
    <path
       d="M 356.76662,420.8834 C 356.76662,423.61619 354.55126,425.83156 351.81847,425.83156 C 349.08567,425.83156 346.87031,423.61619 346.87031,420.8834 C 346.87031,418.15061 349.08567,415.93524 351.81847,415.93524 C 354.55126,415.93524 356.76662,418.15061 356.76662,420.8834 L 356.76662,420.8834 z "
       style="opacity:1;fill:#00000f;fill-opacity:0.94117647;fill-rule:nonzero;stroke:#00000f;stroke-width:5;stroke-linejoin:miter;stroke-miterlimit:4;stroke-dasharray:none;stroke-dashoffset:0;stroke-opacity:0.94117647"
       id="path12890" />
  </g>
  <text
     x="77.434822"
     y="234.25348"
     style="font-size:32px;font-style:italic;font-weight:normal;fill:#000000;fill-opacity:1;stroke:none;stroke-width:1px;stroke-linecap:butt;stroke-linejoin:miter;stroke-opacity:1;font-family:Bitstream Vera Serif"
     id="text12910"
     xml:space="preserve"><tspan
       x="77.434822"
       y="234.25348"
       id="tspan12912">d</tspan></text>
  <text
     x="227.71329"
     y="285.29715"
     style="font-size:32px;font-style:italic;font-weight:normal;fill:#000000;fill-opacity:1;stroke:none;stroke-width:1px;stroke-linecap:butt;stroke-linejoin:miter;stroke-opacity:1;font-family:Bitstream Vera Serif"
     id="text12914"
     xml:space="preserve"><tspan
       x="227.71329"
       y="285.29715"
       id="tspan12916">δ</tspan></text>
  <text
     x="239.31302"
     y="125.62838"
     style="font-size:32px;font-style:italic;font-weight:normal;fill:#000000;fill-opacity:1;stroke:none;stroke-width:1px;stroke-linecap:butt;stroke-linejoin:miter;stroke-opacity:1;font-family:Bitstream Vera Serif"
     id="text12918"
     xml:space="preserve"><tspan
       x="239.31302"
       y="125.62838"
       id="tspan12920">α</tspan></text>
  <text
     x="252.90344"
     y="230.47217"
     style="font-size:32px;font-style:italic;font-weight:normal;fill:#000000;fill-opacity:1;stroke:none;stroke-width:1px;stroke-linecap:butt;stroke-linejoin:miter;stroke-opacity:1;font-family:Bitstream Vera Serif"
     id="text12934"
     xml:space="preserve"><tspan
       x="252.90344"
       y="230.47217"
       id="tspan12936">θ</tspan></text>
  <text
     x="319.68881"
     y="162.05548"
     style="font-size:32px;font-style:italic;font-weight:normal;fill:#000000;fill-opacity:1;stroke:none;stroke-width:1px;stroke-linecap:butt;stroke-linejoin:miter;stroke-opacity:1;font-family:Bitstream Vera Serif"
     id="text12942"
     xml:space="preserve"><tspan
       x="319.68881"
       y="162.05548"
       id="tspan12944">θ</tspan></text>
  <path
     d="M 224.34227,226.89024 C 224.34227,228.28917 223.20822,229.42323 221.80929,229.42323 C 220.41035,229.42323 219.2763,228.28917 219.2763,226.89024 C 219.2763,225.49131 220.41035,224.35725 221.80929,224.35725 C 223.20822,224.35725 224.34227,225.49131 224.34227,226.89024 L 224.34227,226.89024 z "
     style="fill:#000000;fill-opacity:1;fill-rule:nonzero;stroke:none;stroke-width:5;stroke-linejoin:miter;stroke-miterlimit:4;stroke-dasharray:none;stroke-dashoffset:0;stroke-opacity:0.94117647"
     id="path14894" />
  <g
     transform="translate(18.88807,-257.11209)"
     id="g2198">
    <path
       d="M 336.76662,420.8834 C 336.76662,423.61619 334.55126,425.83156 331.81847,425.83156 C 329.08567,425.83156 326.87031,423.61619 326.87031,420.8834 C 326.87031,418.15061 329.08567,415.93524 331.81847,415.93524 C 334.55126,415.93524 336.76662,418.15061 336.76662,420.8834 L 336.76662,420.8834 z "
       style="opacity:1;fill:#00000f;fill-opacity:0.94117647;fill-rule:nonzero;stroke:#00000f;stroke-width:5;stroke-linejoin:miter;stroke-miterlimit:4;stroke-dasharray:none;stroke-dashoffset:0;stroke-opacity:0.94117647"
       id="path2200" />
  </g>
  <g
     transform="translate(112.7334,-256.87378)"
     id="g2206">
    <path
       d="M 318.76662,420.8834 C 318.76662,423.61619 316.55126,425.83156 313.81847,425.83156 C 311.08567,425.83156 308.87031,423.61619 308.87031,420.8834 C 308.87031,418.15061 311.08567,415.93524 313.81847,415.93524 C 316.55126,415.93524 318.76662,418.15061 318.76662,420.8834 L 318.76662,420.8834 z "
       style="opacity:1;fill:#00000f;fill-opacity:0.94117647;fill-rule:nonzero;stroke:#00000f;stroke-width:5;stroke-linejoin:miter;stroke-miterlimit:4;stroke-dasharray:none;stroke-dashoffset:0;stroke-opacity:0.94117647"
       id="path2208" />
  </g>
  <g
     transform="translate(-262.44768,-257.20325)"
     id="g2210">
    <path
       d="M 380.76662,420.8834 C 380.76662,423.61619 378.55126,425.83156 375.81847,425.83156 C 373.08567,425.83156 370.87031,423.61619 370.87031,420.8834 C 370.87031,418.15061 373.08567,415.93524 375.81847,415.93524 C 378.55126,415.93524 380.76662,418.15061 380.76662,420.8834 L 380.76662,420.8834 z "
       style="opacity:1;fill:#00000f;fill-opacity:0.94117647;fill-rule:nonzero;stroke:#00000f;stroke-width:5;stroke-linejoin:miter;stroke-miterlimit:4;stroke-dasharray:none;stroke-dashoffset:0;stroke-opacity:0.94117647"
       id="path2212" />
  </g>
  <g
     transform="translate(-168.60235,-256.96494)"
     id="g2214">
    <path
       d="M 364.76662,420.8834 C 364.76662,423.61619 362.55126,425.83156 359.81847,425.83156 C 357.08567,425.83156 354.87031,423.61619 354.87031,420.8834 C 354.87031,418.15061 357.08567,415.93524 359.81847,415.93524 C 362.55126,415.93524 364.76662,418.15061 364.76662,420.8834 L 364.76662,420.8834 z "
       style="opacity:1;fill:#00000f;fill-opacity:0.94117647;fill-rule:nonzero;stroke:#00000f;stroke-width:5;stroke-linejoin:miter;stroke-miterlimit:4;stroke-dasharray:none;stroke-dashoffset:0;stroke-opacity:0.94117647"
       id="path2216" />
  </g>
  <g
     transform="translate(0,44)"
     id="g2238">
    <g
       transform="translate(-74.988313,-187.00277)"
       id="g2218">
      <path
         d="M 356.76662,420.8834 C 356.76662,423.61619 354.55126,425.83156 351.81847,425.83156 C 349.08567,425.83156 346.87031,423.61619 346.87031,420.8834 C 346.87031,418.15061 349.08567,415.93524 351.81847,415.93524 C 354.55126,415.93524 356.76662,418.15061 356.76662,420.8834 L 356.76662,420.8834 z "
         style="opacity:1;fill:#00000f;fill-opacity:0.94117647;fill-rule:nonzero;stroke:#00000f;stroke-width:5;stroke-linejoin:miter;stroke-miterlimit:4;stroke-dasharray:none;stroke-dashoffset:0;stroke-opacity:0.94117647"
         id="path2220" />
    </g>
    <g
       transform="translate(18.857001,-187.02785)"
       id="g2222">
      <path
         d="M 336.76662,420.8834 C 336.76662,423.61619 334.55126,425.83156 331.81847,425.83156 C 329.08567,425.83156 326.87031,423.61619 326.87031,420.8834 C 326.87031,418.15061 329.08567,415.93524 331.81847,415.93524 C 334.55126,415.93524 336.76662,418.15061 336.76662,420.8834 L 336.76662,420.8834 z "
         style="opacity:1;fill:#00000f;fill-opacity:0.94117647;fill-rule:nonzero;stroke:#00000f;stroke-width:5;stroke-linejoin:miter;stroke-miterlimit:4;stroke-dasharray:none;stroke-dashoffset:0;stroke-opacity:0.94117647"
         id="path2224" />
    </g>
    <g
       transform="translate(112.70233,-186.78954)"
       id="g2226">
      <path
         d="M 318.76662,420.8834 C 318.76662,423.61619 316.55126,425.83156 313.81847,425.83156 C 311.08567,425.83156 308.87031,423.61619 308.87031,420.8834 C 308.87031,418.15061 311.08567,415.93524 313.81847,415.93524 C 316.55126,415.93524 318.76662,418.15061 318.76662,420.8834 L 318.76662,420.8834 z "
         style="opacity:1;fill:#00000f;fill-opacity:0.94117647;fill-rule:nonzero;stroke:#00000f;stroke-width:5;stroke-linejoin:miter;stroke-miterlimit:4;stroke-dasharray:none;stroke-dashoffset:0;stroke-opacity:0.94117647"
         id="path2228" />
    </g>
    <g
       transform="translate(-262.47875,-187.11901)"
       id="g2230">
      <path
         d="M 380.76662,420.8834 C 380.76662,423.61619 378.55126,425.83156 375.81847,425.83156 C 373.08567,425.83156 370.87031,423.61619 370.87031,420.8834 C 370.87031,418.15061 373.08567,415.93524 375.81847,415.93524 C 378.55126,415.93524 380.76662,418.15061 380.76662,420.8834 L 380.76662,420.8834 z "
         style="opacity:1;fill:#00000f;fill-opacity:0.94117647;fill-rule:nonzero;stroke:#00000f;stroke-width:5;stroke-linejoin:miter;stroke-miterlimit:4;stroke-dasharray:none;stroke-dashoffset:0;stroke-opacity:0.94117647"
         id="path2232" />
    </g>
    <g
       transform="translate(-168.63342,-186.8807)"
       id="g2234">
      <path
         d="M 364.76662,420.8834 C 364.76662,423.61619 362.55126,425.83156 359.81847,425.83156 C 357.08567,425.83156 354.87031,423.61619 354.87031,420.8834 C 354.87031,418.15061 357.08567,415.93524 359.81847,415.93524 C 362.55126,415.93524 364.76662,418.15061 364.76662,420.8834 L 364.76662,420.8834 z "
         style="opacity:1;fill:#00000f;fill-opacity:0.94117647;fill-rule:nonzero;stroke:#00000f;stroke-width:5;stroke-linejoin:miter;stroke-miterlimit:4;stroke-dasharray:none;stroke-dashoffset:0;stroke-opacity:0.94117647"
         id="path2236" />
    </g>
  </g>
  <path
     d="M 506.25532,163.41387 C 506.25532,166.14666 504.03996,168.36203 501.30717,168.36203 C 498.57437,168.36203 496.35901,166.14666 496.35901,163.41387 C 496.35901,160.68108 498.57437,158.46571 501.30717,158.46571 C 504.03996,158.46571 506.25532,160.68108 506.25532,163.41387 L 506.25532,163.41387 z "
     style="opacity:1;fill:#00000f;fill-opacity:0.94117647;fill-rule:nonzero;stroke:#00000f;stroke-width:5;stroke-linejoin:miter;stroke-miterlimit:4;stroke-dasharray:none;stroke-dashoffset:0;stroke-opacity:0.94117647"
     id="path2209" />
  <path
     d="M 506.22425,277.49811 C 506.22425,280.2309 504.00889,282.44627 501.2761,282.44627 C 498.5433,282.44627 496.32794,280.2309 496.32794,277.49811 C 496.32794,274.76532 498.5433,272.54995 501.2761,272.54995 C 504.00889,272.54995 506.22425,274.76532 506.22425,277.49811 L 506.22425,277.49811 z "
     style="opacity:1;fill:#00000f;fill-opacity:0.94117647;fill-rule:nonzero;stroke:#00000f;stroke-width:5;stroke-linejoin:miter;stroke-miterlimit:4;stroke-dasharray:none;stroke-dashoffset:0;stroke-opacity:0.94117647"
     id="path2211" />
  <path
     d="M 31.643077,164.81804 C 31.643077,167.55083 29.427717,169.7662 26.694927,169.7662 C 23.962127,169.7662 21.746767,167.55083 21.746767,164.81804 C 21.746767,162.08525 23.962127,159.86988 26.694927,159.86988 C 29.427717,159.86988 31.643077,162.08525 31.643077,164.81804 L 31.643077,164.81804 z "
     style="opacity:1;fill:#00000f;fill-opacity:0.94117647;fill-rule:nonzero;stroke:#00000f;stroke-width:5;stroke-linejoin:miter;stroke-miterlimit:4;stroke-dasharray:none;stroke-dashoffset:0;stroke-opacity:0.94117647"
     id="path2213" />
  <path
     d="M 31.612007,278.90228 C 31.612007,281.63507 29.396647,283.85044 26.663857,283.85044 C 23.931057,283.85044 21.715697,281.63507 21.715697,278.90228 C 21.715697,276.16949 23.931057,273.95412 26.663857,273.95412 C 29.396647,273.95412 31.612007,276.16949 31.612007,278.90228 L 31.612007,278.90228 z "
     style="opacity:1;fill:#00000f;fill-opacity:0.94117647;fill-rule:nonzero;stroke:#00000f;stroke-width:5;stroke-linejoin:miter;stroke-miterlimit:4;stroke-dasharray:none;stroke-dashoffset:0;stroke-opacity:0.94117647"
     id="path2215" />
</svg>
