<?xml version="1.0" encoding="UTF-8" standalone="no"?>
<!-- Created with Inkscape (http://www.inkscape.org/) -->

<svg
   width="210mm"
   height="297mm"
   viewBox="0 0 210 297"
   version="1.1"
   id="svg5"
   sodipodi:docname="Ex4_0623_SpinBahn.svg"
   inkscape:version="1.2.2 (1:1.2.2+202305151914+b0a8486541)"
   xmlns:inkscape="http://www.inkscape.org/namespaces/inkscape"
   xmlns:sodipodi="http://sodipodi.sourceforge.net/DTD/sodipodi-0.dtd"
   xmlns="http://www.w3.org/2000/svg"
   xmlns:svg="http://www.w3.org/2000/svg">
  <sodipodi:namedview
     id="namedview7"
     pagecolor="#ffffff"
     bordercolor="#666666"
     borderopacity="1.0"
     inkscape:showpageshadow="2"
     inkscape:pageopacity="0.0"
     inkscape:pagecheckerboard="0"
     inkscape:deskcolor="#d1d1d1"
     inkscape:document-units="mm"
     showgrid="false"
     inkscape:zoom="1.5630311"
     inkscape:cx="118.99955"
     inkscape:cy="234.4803"
     inkscape:window-width="1920"
     inkscape:window-height="982"
     inkscape:window-x="0"
     inkscape:window-y="0"
     inkscape:window-maximized="1"
     inkscape:current-layer="layer1" />
  <defs
     id="defs2">
    <marker
       style="overflow:visible"
       id="TriangleStart"
       refX="0"
       refY="0"
       orient="auto-start-reverse"
       inkscape:stockid="TriangleStart"
       markerWidth="5.3244081"
       markerHeight="6.155385"
       viewBox="0 0 5.3244081 6.1553851"
       inkscape:isstock="true"
       inkscape:collect="always"
       preserveAspectRatio="xMidYMid">
      <path
         transform="scale(0.5)"
         style="fill:context-stroke;fill-rule:evenodd;stroke:context-stroke;stroke-width:1pt"
         d="M 5.77,0 -2.88,5 V -5 Z"
         id="path135" />
    </marker>
    <marker
       style="overflow:visible"
       id="TriangleStart-5"
       refX="0"
       refY="0"
       orient="auto-start-reverse"
       inkscape:stockid="TriangleStart"
       markerWidth="5.3244081"
       markerHeight="6.155385"
       viewBox="0 0 5.3244081 6.1553851"
       inkscape:isstock="true"
       inkscape:collect="always"
       preserveAspectRatio="xMidYMid">
      <path
         transform="scale(0.5)"
         style="fill:context-stroke;fill-rule:evenodd;stroke:context-stroke;stroke-width:1pt"
         d="M 5.77,0 -2.88,5 V -5 Z"
         id="path135-3" />
    </marker>
    <clipPath
       id="clipPath7855">
      <path
         d="m 10,4 h 10 v 8.4375 H 10 Z m 0,0"
         id="path5936" />
    </clipPath>
    <clipPath
       id="clipPath5698">
      <path
         d="m 7,9 h 4 v 5.722656 H 7 Z m 0,0"
         id="path9895" />
    </clipPath>
    <clipPath
       id="clipPath9181">
      <path
         d="m 53,9 h 4 v 5.722656 h -4 z m 0,0"
         id="path7774" />
    </clipPath>
    <clipPath
       id="clipPath5596">
      <path
         d="m 42,9 h 5 v 5.722656 h -5 z m 0,0"
         id="path7210" />
    </clipPath>
  </defs>
  <g
     inkscape:label="Layer 1"
     inkscape:groupmode="layer"
     id="layer1">
    <path
       style="fill:none;stroke:#000000;stroke-width:0.365;stroke-linecap:butt;stroke-linejoin:miter;stroke-dasharray:none;stroke-opacity:1"
       d="M 13.299445,63.732137 H 35.818699"
       id="path245" />
    <path
       style="fill:none;stroke:#000000;stroke-width:0.365;stroke-linecap:butt;stroke-linejoin:miter;stroke-dasharray:none;stroke-opacity:1"
       d="M 51.222,48.6825 H 73.741257"
       id="path245-3" />
    <path
       style="fill:none;stroke:#000000;stroke-width:0.365;stroke-linecap:butt;stroke-linejoin:miter;stroke-dasharray:none;stroke-opacity:1"
       d="M 51.222375,93.6825 H 73.741632"
       id="path245-3-6" />
    <path
       style="fill:none;stroke:#474fe9;stroke-width:0.264583px;stroke-linecap:butt;stroke-linejoin:miter;stroke-opacity:1"
       d="M 35.676062,63.709203 51.423307,48.561272"
       id="path973" />
    <path
       style="fill:none;stroke:#474fe9;stroke-width:0.264583px;stroke-linecap:butt;stroke-linejoin:miter;stroke-opacity:1"
       d="M 35.723443,63.549956 51.321839,93.679394"
       id="path973-7"
       sodipodi:nodetypes="cc" />
    <path
       style="fill:none;stroke:#474fe9;stroke-width:0.265;stroke-linecap:butt;stroke-linejoin:miter;stroke-opacity:1;stroke-dasharray:1.58999991,1.58999991;stroke-dashoffset:1.00699997"
       d="M 35.791939,63.844889 H 81.434516"
       id="path1103" />
    <path
       style="fill:none;stroke:#000000;stroke-width:0.264583px;stroke-linecap:butt;stroke-linejoin:miter;stroke-opacity:1;marker-start:url(#TriangleStart);marker-end:url(#TriangleStart)"
       d="M 71.081286,50.02173 V 61.996433"
       id="path1105" />
    <path
       style="fill:none;stroke:#000000;stroke-width:0.264583px;stroke-linecap:butt;stroke-linejoin:miter;stroke-opacity:1;marker-start:url(#TriangleStart-5);marker-end:url(#TriangleStart-5)"
       d="M 71.081303,66.003964 V 90.842962"
       id="path1105-5"
       sodipodi:nodetypes="cc" />
    <g
       inkscape:label=""
       transform="translate(21.976301,64.3932)"
       id="g1939">
      <g
         id="surface1"
         transform="matrix(0.352778,0,0,0.352778,-0.23151,-0.0135378)">
        <g
           style="fill:#000000;fill-opacity:1"
           id="g26">
          <g
             id="use24"
             transform="translate(0,9.8039999)">
            <path
               style="stroke:none"
               d="m 9.96875,-3.328125 c 0.015625,-0.046875 0.0625,-0.140625 0.0625,-0.203125 0,-0.0625 -0.0625,-0.140625 -0.140625,-0.140625 -0.0625,0 -0.09375,0.015625 -0.140625,0.0625 -0.03125,0.015625 -0.03125,0.03125 -0.15625,0.328125 -0.84375,2 -1.453125,2.859375 -3.75,2.859375 H 3.75 c -0.203125,0 -0.234375,0 -0.328125,-0.015625 -0.15625,0 -0.171875,-0.03125 -0.171875,-0.15625 0,-0.09375 0.03125,-0.1875 0.0625,-0.3125 L 4.296875,-4.859375 H 5.71875 c 1.125,0 1.203125,0.234375 1.203125,0.671875 0,0.140625 0,0.265625 -0.09375,0.703125 -0.03125,0.0625 -0.046875,0.109375 -0.046875,0.15625 0,0.09375 0.078125,0.140625 0.15625,0.140625 0.140625,0 0.140625,-0.09375 0.203125,-0.296875 l 0.8125,-3.328125 c 0,-0.078125 -0.046875,-0.140625 -0.140625,-0.140625 -0.125,0 -0.140625,0.046875 -0.203125,0.25 -0.28125,1.109375 -0.5625,1.421875 -1.84375,1.421875 H 4.40625 L 5.296875,-8.8125 c 0.125,-0.5 0.15625,-0.546875 0.734375,-0.546875 h 2.0625 c 1.765625,0 2.125,0.484375 2.125,1.578125 0,0 0,0.40625 -0.0625,0.875 -0.01563,0.0625 -0.03125,0.15625 -0.03125,0.171875 0,0.125 0.07813,0.171875 0.15625,0.171875 0.109375,0 0.15625,-0.0625 0.1875,-0.328125 l 0.296875,-2.5 c 0,-0.046875 0.03125,-0.1875 0.03125,-0.21875 0,-0.15625 -0.125,-0.15625 -0.390625,-0.15625 h -7 c -0.265625,0 -0.40625,0 -0.40625,0.25 0,0.15625 0.09375,0.15625 0.34375,0.15625 0.890625,0 0.890625,0.109375 0.890625,0.265625 0,0.078125 -0.015625,0.125 -0.0625,0.28125 l -1.9375,7.75 c -0.125,0.5 -0.15625,0.640625 -1.15625,0.640625 -0.28125,0 -0.421875,0 -0.421875,0.265625 C 0.65625,0 0.75,0 1.03125,0 H 8.234375 C 8.546875,0 8.5625,-0.015625 8.65625,-0.25 Z m 0,0"
               id="path41" />
          </g>
        </g>
        <g
           clip-path="url(#clipPath7855)"
           clip-rule="nonzero"
           id="g34">
          <g
             style="fill:#000000;fill-opacity:1"
             id="g32">
            <g
               id="use28"
               transform="translate(10.398,12.438)">
              <path
                 style="stroke:none"
                 d="m 0.953125,-0.640625 c -0.03125,0.15625 -0.09375,0.40625 -0.09375,0.46875 0,0.1875 0.15625,0.296875 0.3125,0.296875 C 1.3125,0.125 1.5,0.03125 1.578125,-0.1875 1.59375,-0.203125 1.71875,-0.71875 1.78125,-1 l 0.25,-0.96875 c 0.0625,-0.25 0.125,-0.484375 0.1875,-0.734375 0.03125,-0.1875 0.125,-0.5 0.140625,-0.546875 0.15625,-0.34375 0.734375,-1.328125 1.78125,-1.328125 0.484375,0 0.578125,0.40625 0.578125,0.765625 0,0.671875 -0.53125,2.0625 -0.703125,2.53125 -0.09375,0.25 -0.109375,0.390625 -0.109375,0.5 0,0.515625 0.375,0.90625 0.890625,0.90625 1.03125,0 1.4375,-1.59375 1.4375,-1.6875 0,-0.109375 -0.109375,-0.109375 -0.140625,-0.109375 -0.109375,0 -0.109375,0.03125 -0.15625,0.203125 C 5.71875,-0.734375 5.359375,-0.125 4.828125,-0.125 4.640625,-0.125 4.5625,-0.234375 4.5625,-0.484375 4.5625,-0.75 4.65625,-1.015625 4.75,-1.25 c 0.21875,-0.578125 0.671875,-1.78125 0.671875,-2.40625 0,-0.734375 -0.46875,-1.171875 -1.25,-1.171875 -0.984375,0 -1.515625,0.703125 -1.703125,0.953125 -0.0625,-0.609375 -0.5,-0.953125 -1,-0.953125 -0.515625,0 -0.71875,0.4375 -0.828125,0.625 -0.171875,0.375 -0.328125,1.015625 -0.328125,1.0625 0,0.109375 0.109375,0.109375 0.140625,0.109375 0.109375,0 0.109375,-0.015625 0.171875,-0.25 0.1875,-0.78125 0.40625,-1.296875 0.796875,-1.296875 0.21875,0 0.34375,0.140625 0.34375,0.5 0,0.234375 -0.03125,0.34375 -0.171875,0.921875 z m 0,0"
                 id="path45" />
            </g>
            <g
               id="use30"
               transform="translate(16.945642,12.438)">
              <path
                 style="stroke:none"
                 d="m 2.8125,-7.453125 c 0,0 0,-0.109375 -0.140625,-0.109375 -0.25,0 -1.046875,0.078125 -1.328125,0.109375 -0.09375,0 -0.203125,0.015625 -0.203125,0.21875 0,0.125 0.109375,0.125 0.265625,0.125 0.53125,0 0.53125,0.09375 0.53125,0.1875 L 1.90625,-6.703125 0.53125,-1.25 C 0.5,-1.140625 0.484375,-1.0625 0.484375,-0.890625 c 0,0.625 0.46875,1.015625 0.984375,1.015625 0.359375,0 0.640625,-0.21875 0.828125,-0.609375 C 2.484375,-0.90625 2.625,-1.53125 2.625,-1.5625 c 0,-0.109375 -0.109375,-0.109375 -0.140625,-0.109375 -0.109375,0 -0.125,0.046875 -0.15625,0.203125 C 2.15625,-0.765625 1.9375,-0.125 1.5,-0.125 c -0.328125,0 -0.328125,-0.34375 -0.328125,-0.5 0,-0.265625 0.015625,-0.3125 0.078125,-0.515625 z m 0,0"
                 id="path49" />
            </g>
          </g>
        </g>
      </g>
    </g>
    <g
       inkscape:label=""
       transform="translate(73.3055,53.280693)"
       id="g2814">
      <g
         id="g2812"
         transform="matrix(0.352778,0,0,0.352778,-0.170877,0.046699)">
        <g
           style="fill:#000000;fill-opacity:1"
           id="g56">
          <g
             id="use54"
             transform="translate(0,10.96)">
            <path
               style="stroke:none"
               d="m 2.8125,-7.453125 c 0,0 0,-0.109375 -0.140625,-0.109375 -0.25,0 -1.046875,0.078125 -1.328125,0.109375 -0.09375,0 -0.203125,0.015625 -0.203125,0.21875 0,0.125 0.109375,0.125 0.265625,0.125 0.53125,0 0.53125,0.09375 0.53125,0.1875 L 1.90625,-6.703125 0.53125,-1.25 C 0.5,-1.140625 0.484375,-1.0625 0.484375,-0.890625 c 0,0.625 0.46875,1.015625 0.984375,1.015625 0.359375,0 0.640625,-0.21875 0.828125,-0.609375 C 2.484375,-0.90625 2.625,-1.53125 2.625,-1.5625 c 0,-0.109375 -0.109375,-0.109375 -0.140625,-0.109375 -0.109375,0 -0.125,0.046875 -0.15625,0.203125 C 2.15625,-0.765625 1.9375,-0.125 1.5,-0.125 c -0.328125,0 -0.328125,-0.34375 -0.328125,-0.5 0,-0.265625 0.015625,-0.3125 0.078125,-0.515625 z m 0,0"
               id="path97" />
          </g>
        </g>
        <g
           style="fill:#000000;fill-opacity:1"
           id="g60">
          <g
             id="use58"
             transform="translate(4.665,6.665)">
            <path
               style="stroke:none"
               d="m 2.03125,-4.375 h 1.546875 c 0.140625,0 0.21875,0 0.21875,-0.109375 0,-0.09375 -0.09375,-0.09375 -0.25,-0.09375 H 2.078125 C 2.140625,-4.78125 2.140625,-4.796875 2.1875,-5 2.21875,-5.140625 2.296875,-5.421875 2.296875,-5.4375 2.296875,-5.5 2.25,-5.53125 2.1875,-5.53125 c -0.15625,0 -0.78125,0.0625 -0.96875,0.078125 C 1.140625,-5.4375 1.0625,-5.4375 1.0625,-5.28125 c 0,0.078125 0.078125,0.078125 0.1875,0.078125 0.390625,0 0.40625,0.0625 0.40625,0.140625 0,0.0625 -0.078125,0.328125 -0.125,0.484375 h -0.4375 c -0.15625,0 -0.25,0 -0.25,0.09375 0,0.109375 0.078125,0.109375 0.21875,0.109375 H 1.484375 L 0.46875,-0.3125 c -0.03125,0.109375 -0.03125,0.125 -0.03125,0.171875 0,0.1875 0.140625,0.234375 0.234375,0.234375 0.15625,0 0.265625,-0.125 0.296875,-0.21875 0.015625,-0.046875 0.09375,-0.40625 0.140625,-0.59375 l 0.1875,-0.71875 c 0.03125,-0.109375 0.109375,-0.421875 0.125,-0.53125 0.046875,-0.140625 0.09375,-0.375 0.109375,-0.40625 0.0625,-0.140625 0.5,-0.96875 1.296875,-0.96875 0.34375,0 0.421875,0.28125 0.421875,0.546875 0,0.5 -0.359375,1.46875 -0.515625,1.828125 -0.046875,0.125 -0.078125,0.25 -0.078125,0.390625 0,0.421875 0.296875,0.671875 0.65625,0.671875 0.765625,0 1.03125,-1.1875 1.03125,-1.234375 0,-0.078125 -0.0625,-0.078125 -0.09375,-0.078125 -0.078125,0 -0.078125,0.03125 -0.109375,0.140625 -0.234375,0.8125 -0.59375,0.984375 -0.8125,0.984375 -0.15625,0 -0.203125,-0.09375 -0.203125,-0.25 0,-0.203125 0.09375,-0.421875 0.140625,-0.5625 0.140625,-0.359375 0.5,-1.3125 0.5,-1.75 0,-0.59375 -0.375,-0.859375 -0.921875,-0.859375 -0.25,0 -0.71875,0.046875 -1.171875,0.59375 z m 0,0"
               id="path101" />
          </g>
        </g>
        <g
           style="fill:#000000;fill-opacity:1"
           id="g64">
          <g
             id="use62"
             transform="translate(8.9709997,3.852)">
            <path
               style="stroke:none"
               d="M 3.21875,-1.125 H 3 C 2.984375,-1.03125 2.921875,-0.640625 2.84375,-0.578125 2.796875,-0.53125 2.3125,-0.53125 2.21875,-0.53125 H 1.109375 L 1.875,-1.15625 C 2.078125,-1.328125 2.609375,-1.703125 2.796875,-1.890625 2.96875,-2.0625 3.21875,-2.375 3.21875,-2.796875 c 0,-0.75 -0.671875,-1.1875 -1.484375,-1.1875 -0.765625,0 -1.296875,0.515625 -1.296875,1.078125 0,0.296875 0.25,0.34375 0.3125,0.34375 0.15625,0 0.328125,-0.109375 0.328125,-0.328125 C 1.078125,-3.015625 1,-3.21875 0.734375,-3.21875 0.875,-3.515625 1.234375,-3.75 1.65625,-3.75 c 0.625,0 0.953125,0.46875 0.953125,0.953125 0,0.421875 -0.28125,0.859375 -0.6875,1.25 L 0.5,-0.25 C 0.4375,-0.1875 0.4375,-0.1875 0.4375,0 h 2.59375 z m 0,0"
               id="path105" />
          </g>
        </g>
        <path
           style="fill:none;stroke:#000000;stroke-width:0.436;stroke-linecap:butt;stroke-linejoin:miter;stroke-miterlimit:10;stroke-opacity:1"
           d="M -9.375e-4,-0.001375 H 8.456094"
           transform="matrix(1,0,0,-1,4.665,8.233)"
           id="path66" />
        <g
           clip-path="url(#clipPath5698)"
           clip-rule="nonzero"
           id="g72">
          <g
             style="fill:#000000;fill-opacity:1"
             id="g70">
            <g
               id="use68"
               transform="translate(6.777,14.722)">
              <path
                 style="stroke:none"
                 d="m 2.25,-1.625 c 0.125,-0.125 0.453125,-0.390625 0.59375,-0.5 0.484375,-0.453125 0.953125,-0.890625 0.953125,-1.609375 0,-0.953125 -0.796875,-1.5625 -1.78125,-1.5625 -0.96875,0 -1.59375,0.71875 -1.59375,1.4375 0,0.390625 0.3125,0.4375 0.421875,0.4375 0.171875,0 0.421875,-0.109375 0.421875,-0.421875 0,-0.40625 -0.40625,-0.40625 -0.5,-0.40625 C 1,-4.84375 1.53125,-5.03125 1.921875,-5.03125 c 0.734375,0 1.125,0.625 1.125,1.296875 0,0.828125 -0.578125,1.4375 -1.53125,2.390625 l -1,1.046875 C 0.421875,-0.21875 0.421875,-0.203125 0.421875,0 H 3.5625 l 0.234375,-1.421875 h -0.25 C 3.53125,-1.265625 3.46875,-0.875 3.375,-0.71875 c -0.046875,0.0625 -0.65625,0.0625 -0.78125,0.0625 H 1.171875 Z m 0,0"
                 id="path109" />
            </g>
          </g>
        </g>
        <g
           style="fill:#000000;fill-opacity:1"
           id="g76">
          <g
             id="use74"
             transform="translate(14.318,10.96)">
            <path
               style="stroke:none"
               d="M 3.578125,-7.765625 C 3.625,-7.890625 3.625,-7.90625 3.625,-7.96875 c 0,-0.109375 -0.09375,-0.203125 -0.21875,-0.203125 -0.09375,0 -0.171875,0.046875 -0.25,0.25 l -1.90625,5 c -0.015625,0.0625 -0.046875,0.125 -0.046875,0.203125 0,0.03125 0,0.046875 0.046875,0.171875 L 3.15625,2.46875 c 0.046875,0.109375 0.109375,0.25 0.25,0.25 0.125,0 0.21875,-0.09375 0.21875,-0.203125 0,-0.046875 0,-0.0625 -0.046875,-0.1875 l -1.9375,-5.046875 z m 0,0"
               id="path113" />
          </g>
        </g>
        <g
           style="fill:#000000;fill-opacity:1"
           id="g80">
          <g
             id="use78"
             transform="translate(18.559999,10.96)">
            <path
               style="stroke:none"
               d="M 1.671875,-3.34375 C 0.484375,-2.546875 0.25,-1.53125 0.25,-1.140625 c 0,0.53125 0.296875,0.828125 0.3125,0.875 C 0.921875,0.09375 1.015625,0.125 1.828125,0.4375 L 3.15625,0.953125 C 3.3125,1.03125 3.53125,1.09375 3.53125,1.421875 3.53125,1.671875 3.34375,2 3,2 2.515625,2 2.15625,1.734375 2.046875,1.640625 1.96875,1.609375 1.96875,1.59375 1.921875,1.59375 c -0.09375,0 -0.109375,0.078125 -0.109375,0.125 0,0.125 0.578125,0.515625 1.1875,0.515625 0.671875,0 1.140625,-0.625 1.140625,-1.171875 0,-0.515625 -0.40625,-0.71875 -0.53125,-0.765625 C 3.453125,0.234375 3.09375,0.09375 2.9375,0.046875 2.71875,-0.046875 2.515625,-0.125 2.28125,-0.203125 L 1.625,-0.46875 C 1.140625,-0.671875 0.8125,-0.984375 0.8125,-1.4375 c 0,-0.453125 0.421875,-1.390625 1.34375,-1.859375 0.390625,0.140625 0.71875,0.140625 0.953125,0.140625 0.328125,0 1.015625,0 1.015625,-0.328125 0,-0.28125 -0.46875,-0.296875 -0.890625,-0.296875 -0.203125,0 -0.515625,0 -0.921875,0.125 C 2.03125,-3.9375 1.984375,-4.296875 1.984375,-4.5 c 0,-0.609375 0.390625,-1.453125 1.21875,-1.859375 0.1875,0.234375 0.4375,0.234375 0.6875,0.234375 0.28125,0 0.96875,0 0.96875,-0.328125 0,-0.28125 -0.46875,-0.296875 -0.90625,-0.296875 -0.140625,0 -0.390625,0 -0.6875,0.046875 C 3.234375,-6.796875 3.21875,-6.875 3.21875,-7.0625 c 0,-0.140625 0.046875,-0.375 0.046875,-0.390625 0,-0.09375 -0.046875,-0.15625 -0.125,-0.15625 -0.203125,0 -0.203125,0.515625 -0.203125,0.546875 0,0.21875 0.078125,0.375 0.078125,0.421875 -1.15625,0.328125 -1.90625,1.203125 -1.90625,2.03125 0,0.40625 0.203125,0.875 0.71875,1.15625 z m 1.78125,-3.109375 c 0.171875,-0.0625 0.390625,-0.0625 0.515625,-0.0625 0.375,0 0.421875,0.015625 0.609375,0.0625 -0.078125,0.046875 -0.1875,0.09375 -0.671875,0.09375 -0.203125,0 -0.34375,0 -0.453125,-0.09375 z m -0.859375,2.96875 c 0.25,-0.0625 0.5,-0.0625 0.625,-0.0625 0.375,0 0.421875,0.015625 0.625,0.0625 -0.09375,0.046875 -0.203125,0.09375 -0.703125,0.09375 -0.25,0 -0.34375,0 -0.546875,-0.09375 z m 0,0"
               id="path117" />
          </g>
        </g>
        <g
           style="fill:#000000;fill-opacity:1"
           id="g84">
          <g
             id="use82"
             transform="translate(23.834999,10.96)">
            <path
               style="stroke:none"
               d="M 2.984375,-2.546875 C 3.03125,-2.671875 3.03125,-2.6875 3.03125,-2.71875 c 0,-0.046875 0,-0.0625 -0.046875,-0.1875 L 1.0625,-7.921875 c -0.0625,-0.1875 -0.125,-0.25 -0.25,-0.25 -0.109375,0 -0.21875,0.09375 -0.21875,0.203125 0,0.046875 0,0.0625 0.0625,0.1875 L 2.578125,-2.71875 0.65625,2.3125 C 0.59375,2.4375 0.59375,2.453125 0.59375,2.515625 0.59375,2.625 0.703125,2.71875 0.8125,2.71875 0.953125,2.71875 1,2.625 1.046875,2.515625 Z m 0,0"
               id="path121" />
          </g>
        </g>
        <g
           style="fill:#000000;fill-opacity:1"
           id="g90">
          <g
             id="use86"
             transform="translate(28.077,12.737)">
            <path
               style="stroke:none"
               d="m 1.59375,-1.3125 c 0.03125,-0.109375 0.109375,-0.421875 0.125,-0.53125 0.109375,-0.4375 0.109375,-0.4375 0.296875,-0.703125 0.265625,-0.390625 0.640625,-0.75 1.171875,-0.75 0.28125,0 0.453125,0.171875 0.453125,0.546875 0,0.4375 -0.328125,1.34375 -0.484375,1.734375 -0.109375,0.265625 -0.109375,0.3125 -0.109375,0.421875 0,0.453125 0.375,0.671875 0.71875,0.671875 0.78125,0 1.109375,-1.109375 1.109375,-1.21875 C 4.875,-1.21875 4.8125,-1.25 4.75,-1.25 c -0.09375,0 -0.109375,0.0625 -0.125,0.140625 -0.1875,0.65625 -0.53125,0.96875 -0.828125,0.96875 -0.125,0 -0.1875,-0.078125 -0.1875,-0.265625 0,-0.1875 0.0625,-0.359375 0.140625,-0.5625 0.109375,-0.296875 0.46875,-1.21875 0.46875,-1.65625 0,-0.609375 -0.421875,-0.890625 -0.984375,-0.890625 -0.65625,0 -1.0625,0.390625 -1.296875,0.6875 -0.0625,-0.4375 -0.40625,-0.6875 -0.8125,-0.6875 -0.28125,0 -0.484375,0.1875 -0.609375,0.4375 -0.203125,0.375 -0.28125,0.765625 -0.28125,0.78125 0,0.078125 0.0625,0.109375 0.125,0.109375 0.109375,0 0.109375,-0.03125 0.171875,-0.25 0.09375,-0.390625 0.234375,-0.859375 0.5625,-0.859375 0.21875,0 0.265625,0.203125 0.265625,0.375 0,0.15625 -0.046875,0.296875 -0.109375,0.5625 -0.015625,0.0625 -0.140625,0.53125 -0.171875,0.640625 L 0.78125,-0.515625 c -0.03125,0.125 -0.078125,0.3125 -0.078125,0.34375 0,0.1875 0.15625,0.25 0.265625,0.25 0.140625,0 0.265625,-0.09375 0.3125,-0.1875 C 1.3125,-0.15625 1.375,-0.4375 1.40625,-0.59375 Z m 0,0"
               id="path125" />
          </g>
          <g
             id="use88"
             transform="translate(33.215324,12.737)">
            <path
               style="stroke:none"
               d="m 2.09375,-5.296875 c 0,-0.015625 0.03125,-0.109375 0.03125,-0.125 0,-0.03125 -0.03125,-0.109375 -0.140625,-0.109375 L 1.1875,-5.46875 c -0.296875,0.03125 -0.359375,0.03125 -0.359375,0.171875 0,0.125 0.109375,0.125 0.203125,0.125 0.390625,0 0.390625,0.046875 0.390625,0.109375 0,0.03125 0,0.046875 -0.046875,0.1875 l -0.984375,3.953125 c -0.03125,0.125 -0.03125,0.25 -0.03125,0.25 0,0.5 0.40625,0.75 0.796875,0.75 0.34375,0 0.53125,-0.265625 0.625,-0.4375 C 1.921875,-0.625 2.046875,-1.09375 2.046875,-1.140625 2.046875,-1.1875 2.015625,-1.25 1.90625,-1.25 c -0.0625,0 -0.09375,0.046875 -0.09375,0.0625 -0.015625,0.015625 -0.046875,0.15625 -0.078125,0.25 -0.109375,0.453125 -0.265625,0.796875 -0.5625,0.796875 -0.1875,0 -0.234375,-0.1875 -0.234375,-0.375 0,-0.15625 0.015625,-0.234375 0.046875,-0.34375 z m 0,0"
               id="path129" />
          </g>
        </g>
      </g>
    </g>
    <g
       inkscape:label=""
       transform="translate(73.3055,75.505707)"
       id="g3366">
      <g
         id="g3364"
         transform="matrix(0.352778,0,0,0.352778,-0.319705,0.046699)">
        <g
           style="fill:#000000;fill-opacity:1"
           id="g3314">
          <g
             id="g3312"
             transform="translate(0,10.96)">
            <path
               style="stroke:none"
               d="m 7.1875,-2.515625 c 0.1875,0 0.375,0 0.375,-0.203125 0,-0.21875 -0.1875,-0.21875 -0.375,-0.21875 H 1.28125 c -0.1875,0 -0.375,0 -0.375,0.21875 0,0.203125 0.1875,0.203125 0.375,0.203125 z m 0,0"
               id="path133" />
          </g>
        </g>
        <g
           style="fill:#000000;fill-opacity:1"
           id="g3319">
          <g
             id="g3317"
             transform="translate(8.4849997,10.96)">
            <path
               style="stroke:none"
               d="m 3.609375,2.625 c 0,-0.046875 0,-0.0625 -0.1875,-0.25 C 2.0625,1 1.71875,-1.0625 1.71875,-2.71875 c 0,-1.90625 0.40625,-3.796875 1.75,-5.171875 0.140625,-0.125 0.140625,-0.140625 0.140625,-0.1875 0,-0.0625 -0.046875,-0.09375 -0.109375,-0.09375 -0.109375,0 -1.09375,0.734375 -1.734375,2.125 -0.5625,1.1875 -0.6875,2.40625 -0.6875,3.328125 0,0.84375 0.125,2.15625 0.71875,3.390625 C 2.453125,2.015625 3.390625,2.71875 3.5,2.71875 3.5625,2.71875 3.609375,2.6875 3.609375,2.625 Z m 0,0"
               id="path137" />
          </g>
        </g>
        <g
           style="fill:#000000;fill-opacity:1"
           id="g3324">
          <g
             id="g3322"
             transform="translate(12.727,10.96)">
            <path
               style="stroke:none"
               d="m 2.8125,-7.453125 c 0,0 0,-0.109375 -0.140625,-0.109375 -0.25,0 -1.046875,0.078125 -1.328125,0.109375 -0.09375,0 -0.203125,0.015625 -0.203125,0.21875 0,0.125 0.109375,0.125 0.265625,0.125 0.53125,0 0.53125,0.09375 0.53125,0.1875 L 1.90625,-6.703125 0.53125,-1.25 C 0.5,-1.140625 0.484375,-1.0625 0.484375,-0.890625 c 0,0.625 0.46875,1.015625 0.984375,1.015625 0.359375,0 0.640625,-0.21875 0.828125,-0.609375 C 2.484375,-0.90625 2.625,-1.53125 2.625,-1.5625 c 0,-0.109375 -0.109375,-0.109375 -0.140625,-0.109375 -0.109375,0 -0.125,0.046875 -0.15625,0.203125 C 2.15625,-0.765625 1.9375,-0.125 1.5,-0.125 c -0.328125,0 -0.328125,-0.34375 -0.328125,-0.5 0,-0.265625 0.015625,-0.3125 0.078125,-0.515625 z m 0,0"
               id="path141" />
          </g>
        </g>
        <g
           style="fill:#000000;fill-opacity:1"
           id="g3329">
          <g
             id="g3327"
             transform="translate(18.621,10.96)">
            <path
               style="stroke:none"
               d="M 4.453125,-2.515625 H 7.5 c 0.15625,0 0.359375,0 0.359375,-0.203125 C 7.859375,-2.9375 7.65625,-2.9375 7.5,-2.9375 H 4.453125 V -6 c 0,-0.15625 0,-0.359375 -0.203125,-0.359375 -0.21875,0 -0.21875,0.203125 -0.21875,0.359375 v 3.0625 h -3.0625 c -0.15625,0 -0.359375,0 -0.359375,0.21875 0,0.203125 0.203125,0.203125 0.359375,0.203125 h 3.0625 v 3.0625 c 0,0.15625 0,0.359375 0.21875,0.359375 0.203125,0 0.203125,-0.203125 0.203125,-0.359375 z m 0,0"
               id="path145" />
          </g>
        </g>
        <g
           style="fill:#000000;fill-opacity:1"
           id="g92">
          <g
             id="g3332"
             transform="translate(29.527918,10.96)">
            <path
               style="stroke:none"
               d="m 3.203125,-6.984375 c 0,-0.25 0,-0.28125 -0.25,-0.28125 C 2.28125,-6.5625 1.3125,-6.5625 0.96875,-6.5625 v 0.328125 c 0.21875,0 0.859375,0 1.4375,-0.28125 v 5.65625 c 0,0.390625 -0.046875,0.515625 -1.015625,0.515625 H 1.03125 V 0 c 0.390625,-0.03125 1.328125,-0.03125 1.765625,-0.03125 0.4375,0 1.390625,0 1.765625,0.03125 V -0.34375 H 4.21875 c -0.984375,0 -1.015625,-0.109375 -1.015625,-0.515625 z m 0,0"
               id="path149" />
          </g>
          <g
             id="use90"
             transform="translate(34.982468,10.96)">
            <path
               style="stroke:none"
               d="m 3.15625,-2.71875 c 0,-0.859375 -0.125,-2.171875 -0.71875,-3.40625 -0.65625,-1.34375 -1.59375,-2.046875 -1.703125,-2.046875 -0.0625,0 -0.109375,0.03125 -0.109375,0.09375 0,0.046875 0,0.0625 0.203125,0.265625 1.0625,1.078125 1.6875,2.8125 1.6875,5.09375 0,1.859375 -0.40625,3.78125 -1.75,5.15625 C 0.625,2.5625 0.625,2.578125 0.625,2.625 c 0,0.0625 0.046875,0.09375 0.109375,0.09375 0.109375,0 1.09375,-0.734375 1.734375,-2.125 0.546875,-1.1875 0.6875,-2.40625 0.6875,-3.3125 z m 0,0"
               id="path153" />
          </g>
        </g>
        <g
           style="fill:#000000;fill-opacity:1"
           id="g96">
          <g
             id="use94"
             transform="translate(40.423,6.665)">
            <path
               style="stroke:none"
               d="m 2.03125,-4.375 h 1.546875 c 0.140625,0 0.21875,0 0.21875,-0.109375 0,-0.09375 -0.09375,-0.09375 -0.25,-0.09375 H 2.078125 C 2.140625,-4.78125 2.140625,-4.796875 2.1875,-5 2.21875,-5.140625 2.296875,-5.421875 2.296875,-5.4375 2.296875,-5.5 2.25,-5.53125 2.1875,-5.53125 c -0.15625,0 -0.78125,0.0625 -0.96875,0.078125 C 1.140625,-5.4375 1.0625,-5.4375 1.0625,-5.28125 c 0,0.078125 0.078125,0.078125 0.1875,0.078125 0.390625,0 0.40625,0.0625 0.40625,0.140625 0,0.0625 -0.078125,0.328125 -0.125,0.484375 h -0.4375 c -0.15625,0 -0.25,0 -0.25,0.09375 0,0.109375 0.078125,0.109375 0.21875,0.109375 H 1.484375 L 0.46875,-0.3125 c -0.03125,0.109375 -0.03125,0.125 -0.03125,0.171875 0,0.1875 0.140625,0.234375 0.234375,0.234375 0.15625,0 0.265625,-0.125 0.296875,-0.21875 0.015625,-0.046875 0.09375,-0.40625 0.140625,-0.59375 l 0.1875,-0.71875 c 0.03125,-0.109375 0.109375,-0.421875 0.125,-0.53125 0.046875,-0.140625 0.09375,-0.375 0.109375,-0.40625 0.0625,-0.140625 0.5,-0.96875 1.296875,-0.96875 0.34375,0 0.421875,0.28125 0.421875,0.546875 0,0.5 -0.359375,1.46875 -0.515625,1.828125 -0.046875,0.125 -0.078125,0.25 -0.078125,0.390625 0,0.421875 0.296875,0.671875 0.65625,0.671875 0.765625,0 1.03125,-1.1875 1.03125,-1.234375 0,-0.078125 -0.0625,-0.078125 -0.09375,-0.078125 -0.078125,0 -0.078125,0.03125 -0.109375,0.140625 -0.234375,0.8125 -0.59375,0.984375 -0.8125,0.984375 -0.15625,0 -0.203125,-0.09375 -0.203125,-0.25 0,-0.203125 0.09375,-0.421875 0.140625,-0.5625 0.140625,-0.359375 0.5,-1.3125 0.5,-1.75 0,-0.59375 -0.375,-0.859375 -0.921875,-0.859375 -0.25,0 -0.71875,0.046875 -1.171875,0.59375 z m 0,0"
               id="path157" />
          </g>
        </g>
        <g
           style="fill:#000000;fill-opacity:1"
           id="g100">
          <g
             id="use98"
             transform="translate(44.729,3.852)">
            <path
               style="stroke:none"
               d="M 3.21875,-1.125 H 3 C 2.984375,-1.03125 2.921875,-0.640625 2.84375,-0.578125 2.796875,-0.53125 2.3125,-0.53125 2.21875,-0.53125 H 1.109375 L 1.875,-1.15625 C 2.078125,-1.328125 2.609375,-1.703125 2.796875,-1.890625 2.96875,-2.0625 3.21875,-2.375 3.21875,-2.796875 c 0,-0.75 -0.671875,-1.1875 -1.484375,-1.1875 -0.765625,0 -1.296875,0.515625 -1.296875,1.078125 0,0.296875 0.25,0.34375 0.3125,0.34375 0.15625,0 0.328125,-0.109375 0.328125,-0.328125 C 1.078125,-3.015625 1,-3.21875 0.734375,-3.21875 0.875,-3.515625 1.234375,-3.75 1.65625,-3.75 c 0.625,0 0.953125,0.46875 0.953125,0.953125 0,0.421875 -0.28125,0.859375 -0.6875,1.25 L 0.5,-0.25 C 0.4375,-0.1875 0.4375,-0.1875 0.4375,0 h 2.59375 z m 0,0"
               id="path161" />
          </g>
        </g>
        <path
           style="fill:none;stroke:#000000;stroke-width:0.436;stroke-linecap:butt;stroke-linejoin:miter;stroke-miterlimit:10;stroke-opacity:1"
           d="M -0.001125,-0.001375 H 8.455906"
           transform="matrix(1,0,0,-1,40.423,8.233)"
           id="path102" />
        <g
           clip-path="url(#clipPath5596)"
           clip-rule="nonzero"
           id="g3347">
          <g
             style="fill:#000000;fill-opacity:1"
             id="g106">
            <g
               id="use104"
               transform="translate(42.534,14.722)">
              <path
                 style="stroke:none"
                 d="m 2.25,-1.625 c 0.125,-0.125 0.453125,-0.390625 0.59375,-0.5 0.484375,-0.453125 0.953125,-0.890625 0.953125,-1.609375 0,-0.953125 -0.796875,-1.5625 -1.78125,-1.5625 -0.96875,0 -1.59375,0.71875 -1.59375,1.4375 0,0.390625 0.3125,0.4375 0.421875,0.4375 0.171875,0 0.421875,-0.109375 0.421875,-0.421875 0,-0.40625 -0.40625,-0.40625 -0.5,-0.40625 C 1,-4.84375 1.53125,-5.03125 1.921875,-5.03125 c 0.734375,0 1.125,0.625 1.125,1.296875 0,0.828125 -0.578125,1.4375 -1.53125,2.390625 l -1,1.046875 C 0.421875,-0.21875 0.421875,-0.203125 0.421875,0 H 3.5625 l 0.234375,-1.421875 h -0.25 C 3.53125,-1.265625 3.46875,-0.875 3.375,-0.71875 c -0.046875,0.0625 -0.65625,0.0625 -0.78125,0.0625 H 1.171875 Z m 0,0"
                 id="path165" />
            </g>
          </g>
        </g>
        <g
           style="fill:#000000;fill-opacity:1"
           id="g112">
          <g
             id="use110"
             transform="translate(50.075001,10.96)">
            <path
               style="stroke:none"
               d="M 3.578125,-7.765625 C 3.625,-7.890625 3.625,-7.90625 3.625,-7.96875 c 0,-0.109375 -0.09375,-0.203125 -0.21875,-0.203125 -0.09375,0 -0.171875,0.046875 -0.25,0.25 l -1.90625,5 c -0.015625,0.0625 -0.046875,0.125 -0.046875,0.203125 0,0.03125 0,0.046875 0.046875,0.171875 L 3.15625,2.46875 c 0.046875,0.109375 0.109375,0.25 0.25,0.25 0.125,0 0.21875,-0.09375 0.21875,-0.203125 0,-0.046875 0,-0.0625 -0.046875,-0.1875 l -1.9375,-5.046875 z m 0,0"
               id="path169" />
          </g>
        </g>
        <g
           style="fill:#000000;fill-opacity:1"
           id="g116">
          <g
             id="use114"
             transform="translate(54.318001,10.96)">
            <path
               style="stroke:none"
               d="M 1.671875,-3.34375 C 0.484375,-2.546875 0.25,-1.53125 0.25,-1.140625 c 0,0.53125 0.296875,0.828125 0.3125,0.875 C 0.921875,0.09375 1.015625,0.125 1.828125,0.4375 L 3.15625,0.953125 C 3.3125,1.03125 3.53125,1.09375 3.53125,1.421875 3.53125,1.671875 3.34375,2 3,2 2.515625,2 2.15625,1.734375 2.046875,1.640625 1.96875,1.609375 1.96875,1.59375 1.921875,1.59375 c -0.09375,0 -0.109375,0.078125 -0.109375,0.125 0,0.125 0.578125,0.515625 1.1875,0.515625 0.671875,0 1.140625,-0.625 1.140625,-1.171875 0,-0.515625 -0.40625,-0.71875 -0.53125,-0.765625 C 3.453125,0.234375 3.09375,0.09375 2.9375,0.046875 2.71875,-0.046875 2.515625,-0.125 2.28125,-0.203125 L 1.625,-0.46875 C 1.140625,-0.671875 0.8125,-0.984375 0.8125,-1.4375 c 0,-0.453125 0.421875,-1.390625 1.34375,-1.859375 0.390625,0.140625 0.71875,0.140625 0.953125,0.140625 0.328125,0 1.015625,0 1.015625,-0.328125 0,-0.28125 -0.46875,-0.296875 -0.890625,-0.296875 -0.203125,0 -0.515625,0 -0.921875,0.125 C 2.03125,-3.9375 1.984375,-4.296875 1.984375,-4.5 c 0,-0.609375 0.390625,-1.453125 1.21875,-1.859375 0.1875,0.234375 0.4375,0.234375 0.6875,0.234375 0.28125,0 0.96875,0 0.96875,-0.328125 0,-0.28125 -0.46875,-0.296875 -0.90625,-0.296875 -0.140625,0 -0.390625,0 -0.6875,0.046875 C 3.234375,-6.796875 3.21875,-6.875 3.21875,-7.0625 c 0,-0.140625 0.046875,-0.375 0.046875,-0.390625 0,-0.09375 -0.046875,-0.15625 -0.125,-0.15625 -0.203125,0 -0.203125,0.515625 -0.203125,0.546875 0,0.21875 0.078125,0.375 0.078125,0.421875 -1.15625,0.328125 -1.90625,1.203125 -1.90625,2.03125 0,0.40625 0.203125,0.875 0.71875,1.15625 z m 1.78125,-3.109375 c 0.171875,-0.0625 0.390625,-0.0625 0.515625,-0.0625 0.375,0 0.421875,0.015625 0.609375,0.0625 -0.078125,0.046875 -0.1875,0.09375 -0.671875,0.09375 -0.203125,0 -0.34375,0 -0.453125,-0.09375 z m -0.859375,2.96875 c 0.25,-0.0625 0.5,-0.0625 0.625,-0.0625 0.375,0 0.421875,0.015625 0.625,0.0625 -0.09375,0.046875 -0.203125,0.09375 -0.703125,0.09375 -0.25,0 -0.34375,0 -0.546875,-0.09375 z m 0,0"
               id="path173" />
          </g>
        </g>
        <g
           style="fill:#000000;fill-opacity:1"
           id="g120">
          <g
             id="use118"
             transform="translate(59.591999,10.96)">
            <path
               style="stroke:none"
               d="M 2.984375,-2.546875 C 3.03125,-2.671875 3.03125,-2.6875 3.03125,-2.71875 c 0,-0.046875 0,-0.0625 -0.046875,-0.1875 L 1.0625,-7.921875 c -0.0625,-0.1875 -0.125,-0.25 -0.25,-0.25 -0.109375,0 -0.21875,0.09375 -0.21875,0.203125 0,0.046875 0,0.0625 0.0625,0.1875 L 2.578125,-2.71875 0.65625,2.3125 C 0.59375,2.4375 0.59375,2.453125 0.59375,2.515625 0.59375,2.625 0.703125,2.71875 0.8125,2.71875 0.953125,2.71875 1,2.625 1.046875,2.515625 Z m 0,0"
               id="path177" />
          </g>
        </g>
        <g
           style="fill:#000000;fill-opacity:1"
           id="g126">
          <g
             id="use122"
             transform="translate(63.834999,12.737)">
            <path
               style="stroke:none"
               d="m 1.59375,-1.3125 c 0.03125,-0.109375 0.109375,-0.421875 0.125,-0.53125 0.109375,-0.4375 0.109375,-0.4375 0.296875,-0.703125 0.265625,-0.390625 0.640625,-0.75 1.171875,-0.75 0.28125,0 0.453125,0.171875 0.453125,0.546875 0,0.4375 -0.328125,1.34375 -0.484375,1.734375 -0.109375,0.265625 -0.109375,0.3125 -0.109375,0.421875 0,0.453125 0.375,0.671875 0.71875,0.671875 0.78125,0 1.109375,-1.109375 1.109375,-1.21875 C 4.875,-1.21875 4.8125,-1.25 4.75,-1.25 c -0.09375,0 -0.109375,0.0625 -0.125,0.140625 -0.1875,0.65625 -0.53125,0.96875 -0.828125,0.96875 -0.125,0 -0.1875,-0.078125 -0.1875,-0.265625 0,-0.1875 0.0625,-0.359375 0.140625,-0.5625 0.109375,-0.296875 0.46875,-1.21875 0.46875,-1.65625 0,-0.609375 -0.421875,-0.890625 -0.984375,-0.890625 -0.65625,0 -1.0625,0.390625 -1.296875,0.6875 -0.0625,-0.4375 -0.40625,-0.6875 -0.8125,-0.6875 -0.28125,0 -0.484375,0.1875 -0.609375,0.4375 -0.203125,0.375 -0.28125,0.765625 -0.28125,0.78125 0,0.078125 0.0625,0.109375 0.125,0.109375 0.109375,0 0.109375,-0.03125 0.171875,-0.25 0.09375,-0.390625 0.234375,-0.859375 0.5625,-0.859375 0.21875,0 0.265625,0.203125 0.265625,0.375 0,0.15625 -0.046875,0.296875 -0.109375,0.5625 -0.015625,0.0625 -0.140625,0.53125 -0.171875,0.640625 L 0.78125,-0.515625 c -0.03125,0.125 -0.078125,0.3125 -0.078125,0.34375 0,0.1875 0.15625,0.25 0.265625,0.25 0.140625,0 0.265625,-0.09375 0.3125,-0.1875 C 1.3125,-0.15625 1.375,-0.4375 1.40625,-0.59375 Z m 0,0"
               id="path181" />
          </g>
          <g
             id="g3361"
             transform="translate(68.97332,12.737)">
            <path
               style="stroke:none"
               d="m 2.09375,-5.296875 c 0,-0.015625 0.03125,-0.109375 0.03125,-0.125 0,-0.03125 -0.03125,-0.109375 -0.140625,-0.109375 L 1.1875,-5.46875 c -0.296875,0.03125 -0.359375,0.03125 -0.359375,0.171875 0,0.125 0.109375,0.125 0.203125,0.125 0.390625,0 0.390625,0.046875 0.390625,0.109375 0,0.03125 0,0.046875 -0.046875,0.1875 l -0.984375,3.953125 c -0.03125,0.125 -0.03125,0.25 -0.03125,0.25 0,0.5 0.40625,0.75 0.796875,0.75 0.34375,0 0.53125,-0.265625 0.625,-0.4375 C 1.921875,-0.625 2.046875,-1.09375 2.046875,-1.140625 2.046875,-1.1875 2.015625,-1.25 1.90625,-1.25 c -0.0625,0 -0.09375,0.046875 -0.09375,0.0625 -0.015625,0.015625 -0.046875,0.15625 -0.078125,0.25 -0.109375,0.453125 -0.265625,0.796875 -0.5625,0.796875 -0.1875,0 -0.234375,-0.1875 -0.234375,-0.375 0,-0.15625 0.015625,-0.234375 0.046875,-0.34375 z m 0,0"
               id="path185" />
          </g>
        </g>
      </g>
    </g>
  </g>
</svg>
