<?xml version="1.0" encoding="UTF-8"?>
<svg width="400" height="400" version="1.1" xmlns="http://www.w3.org/2000/svg">
	<defs>
		<marker id="a" overflow="visible" orient="auto">
			<path transform="scale(.4) rotate(180) translate(10)" d="m0 0 5-5-17.5 5 17.5 5-5-5z" stroke="#000"/>
		</marker>
	</defs>
	<g fill="none" stroke="#000" stroke-linecap="round">
		<path d="m78 344 35.6-66.2 30.1-55.8" marker-mid="url(#a)" stroke-width="1.5"/>
		<path d="m144 222-26.8-70.7-30.9-81.3" marker-mid="url(#a)" stroke-width="1.5"/>
		<path d="m298 68.5-14 59.5-14 59.5" marker-mid="url(#a)" stroke-width="2.5"/>
		<path d="m270 188 44.8-33 44.8-33" marker-mid="url(#a)" stroke-width="2.5"/>
		<path d="m15.5 380v-336" marker-end="url(#a)" stroke-width="1.5"/>
		<path d="m94 344 32.8-61 32.8-61" marker-mid="url(#a)" stroke-width="2.5"/>
		<path d="m160 222-28.8-76-28.8-76" marker-mid="url(#a)" stroke-width="2.5"/>
		<path d="m62 344 39.3-72.9 26.4-49.1" marker-mid="url(#a)" stroke-width="1.5"/>
		<path d="m128 222-24.8-65.4-32.9-86.6" marker-mid="url(#a)" stroke-width="1.5"/>
		<path d="m160 222c0.565-9.74 0.061-19.8 3.05-29.2 1.53-6.24 8.44-3.02 10.7 0.893 10.7 12.5 17.4 28 28.4 40.3 2.48 4.29 9.5 5.37 10.3-0.671 2.97-11.1 2.3-22.7 2.95-34.1 0.496-8.09 0.287-16.5 3.14-24.2 2.19-5.8 8.61-1.41 10.8 2.04 10.3 12.2 17 27 27.3 39.1 2.28 3.91 9.17 7.12 10.7 0.888 2.99-9.36 2.48-19.5 3.05-29.2" stroke-width="2.5"/>
	</g>
	<g>
		<g font-family="DejaVu Serif" font-size="27" font-style="italic">
			<text><tspan x="282" y="58">ν̄<tspan baseline-shift="sub" font-size="65%">e</tspan></tspan></text>
			<text><tspan x="232" y="249">W<tspan baseline-shift="super" font-size="65%">–</tspan></tspan></text>
			<text><tspan x="360" y="114">e<tspan baseline-shift="super" font-size="65%">–</tspan></tspan></text>
		</g>
		<g font-family="DejaVu Sans" font-size="24">
			<text x="63" y="64">udu</text>
			<text x="54" y="365">udd</text>
			<text x="70" y="385">n</text>
			<text x="78" y="34">p</text>
			<text x="12" y="35">t</text>
		</g>
	</g>
</svg>
