<?xml version="1.0" encoding="UTF-8" standalone="no"?>
<!-- Created with Inkscape (http://www.inkscape.org/) -->

<svg
   width="96.036995mm"
   height="85.857086mm"
   viewBox="0 0 96.036995 85.857086"
   version="1.1"
   id="svg1"
   inkscape:version="1.3.2 (1:1.3.2+202311252150+091e20ef0f)"
   sodipodi:docname="gluonen-oktett.svg"
   inkscape:export-filename="gluonen-oktett.png"
   inkscape:export-xdpi="1200"
   inkscape:export-ydpi="1200"
   xmlns:inkscape="http://www.inkscape.org/namespaces/inkscape"
   xmlns:sodipodi="http://sodipodi.sourceforge.net/DTD/sodipodi-0.dtd"
   xmlns:xlink="http://www.w3.org/1999/xlink"
   xmlns="http://www.w3.org/2000/svg"
   xmlns:svg="http://www.w3.org/2000/svg">
  <sodipodi:namedview
     id="namedview1"
     pagecolor="#ffffff"
     bordercolor="#666666"
     borderopacity="1.0"
     inkscape:showpageshadow="2"
     inkscape:pageopacity="0.0"
     inkscape:pagecheckerboard="0"
     inkscape:deskcolor="#d1d1d1"
     inkscape:document-units="mm"
     inkscape:zoom="3.3050645"
     inkscape:cx="75.036356"
     inkscape:cy="193.79349"
     inkscape:window-width="3840"
     inkscape:window-height="2032"
     inkscape:window-x="1920"
     inkscape:window-y="36"
     inkscape:window-maximized="1"
     inkscape:current-layer="layer1" />
  <defs
     id="defs1">
    <linearGradient
       id="linearGradient43"
       inkscape:collect="always">
      <stop
         style="stop-color:#0000ff;stop-opacity:1;"
         offset="0"
         id="stop43" />
      <stop
         style="stop-color:#0000ff;stop-opacity:0;"
         offset="0.5"
         id="stop45" />
      <stop
         style="stop-color:#0000ff;stop-opacity:1;"
         offset="1"
         id="stop44" />
    </linearGradient>
    <linearGradient
       id="swatch36"
       inkscape:swatch="solid">
      <stop
         style="stop-color:#57fa9e;stop-opacity:1;"
         offset="0"
         id="stop36" />
    </linearGradient>
    <linearGradient
       id="linearGradient18"
       inkscape:collect="always">
      <stop
         style="stop-color:#00ff00;stop-opacity:1;"
         offset="0"
         id="stop17" />
      <stop
         style="stop-color:#ff0000;stop-opacity:1;"
         offset="1"
         id="stop18" />
    </linearGradient>
    <linearGradient
       id="linearGradient13"
       inkscape:collect="always">
      <stop
         style="stop-color:#00ff00;stop-opacity:1;"
         offset="0"
         id="stop12" />
      <stop
         style="stop-color:#0000ff;stop-opacity:1;"
         offset="1"
         id="stop13" />
    </linearGradient>
    <linearGradient
       id="linearGradient11"
       inkscape:collect="always">
      <stop
         style="stop-color:#0000ff;stop-opacity:1;"
         offset="0"
         id="stop10" />
      <stop
         style="stop-color:#ff0000;stop-opacity:1;"
         offset="1"
         id="stop11" />
    </linearGradient>
    <linearGradient
       id="linearGradient9"
       inkscape:collect="always">
      <stop
         style="stop-color:#00ff00;stop-opacity:1;"
         offset="0"
         id="stop8" />
      <stop
         style="stop-color:#ff0000;stop-opacity:1;"
         offset="1"
         id="stop9" />
    </linearGradient>
    <linearGradient
       inkscape:collect="always"
       xlink:href="#linearGradient9"
       id="linearGradient7"
       gradientUnits="userSpaceOnUse"
       x1="57.54908"
       y1="26.034847"
       x2="71.54908"
       y2="26.034847"
       gradientTransform="translate(59.562978,64.187432)" />
    <linearGradient
       inkscape:collect="always"
       xlink:href="#linearGradient11"
       id="linearGradient8"
       gradientUnits="userSpaceOnUse"
       x1="57.54908"
       y1="26.034847"
       x2="71.54908"
       y2="26.034847"
       gradientTransform="translate(0.031732,29.817045)" />
    <linearGradient
       inkscape:collect="always"
       xlink:href="#linearGradient13"
       id="linearGradient12"
       gradientUnits="userSpaceOnUse"
       x1="57.54908"
       y1="26.034847"
       x2="71.54908"
       y2="26.034847"
       gradientTransform="translate(-188.66115,-4.5533356)" />
    <linearGradient
       inkscape:collect="always"
       xlink:href="#linearGradient9"
       id="linearGradient14"
       gradientUnits="userSpaceOnUse"
       gradientTransform="translate(-148.97363,64.187425)"
       x1="57.54908"
       y1="26.034847"
       x2="71.54908"
       y2="26.034847" />
    <linearGradient
       inkscape:collect="always"
       xlink:href="#linearGradient11"
       id="linearGradient15"
       gradientUnits="userSpaceOnUse"
       gradientTransform="translate(-208.5049,29.817047)"
       x1="57.54908"
       y1="26.034847"
       x2="71.54908"
       y2="26.034847" />
    <linearGradient
       inkscape:collect="always"
       xlink:href="#linearGradient13"
       id="linearGradient16"
       gradientUnits="userSpaceOnUse"
       gradientTransform="translate(19.875478,-4.5533366)"
       x1="57.54908"
       y1="26.034847"
       x2="71.54908"
       y2="26.034847" />
    <linearGradient
       inkscape:collect="always"
       xlink:href="#linearGradient18"
       id="linearGradient17"
       gradientUnits="userSpaceOnUse"
       gradientTransform="translate(-114.97717,72.59652)"
       x1="57.54908"
       y1="26.034847"
       x2="71.54908"
       y2="26.034847" />
    <linearGradient
       inkscape:collect="always"
       xlink:href="#linearGradient18"
       id="linearGradient42"
       gradientUnits="userSpaceOnUse"
       gradientTransform="translate(-126.61032,87.014068)"
       x1="57.54908"
       y1="26.034847"
       x2="71.54908"
       y2="26.034847" />
    <linearGradient
       inkscape:collect="always"
       xlink:href="#linearGradient43"
       id="linearGradient44"
       x1="108.87605"
       y1="55.286461"
       x2="122.87605"
       y2="55.286461"
       gradientUnits="userSpaceOnUse"
       spreadMethod="reflect"
       gradientTransform="translate(-2.827123,6.7747664)" />
  </defs>
  <g
     inkscape:label="Layer 1"
     inkscape:groupmode="layer"
     id="layer1"
     transform="translate(-57.580811,-11.365195)">
    <circle
       style="fill:url(#linearGradient12);fill-opacity:0.700257;stroke-width:0;stroke-linejoin:round"
       id="path1-5"
       cx="-124.11206"
       cy="21.481512"
       transform="scale(-1,1)"
       r="7" />
    <circle
       style="fill:url(#linearGradient16);fill-opacity:0.700257;stroke-width:0;stroke-linejoin:round"
       id="path1-5-6"
       cx="84.424568"
       cy="21.481512"
       r="7" />
    <circle
       style="fill:url(#linearGradient17);fill-opacity:0.700257;stroke-width:0;stroke-linejoin:round"
       id="path1-5-6-2"
       cx="-50.42807"
       cy="98.631363"
       r="7"
       transform="rotate(-90)" />
    <circle
       style="fill:url(#linearGradient42);fill-opacity:0.700257;stroke-width:0;stroke-linejoin:round"
       id="path1-5-6-2-8"
       cx="-62.06123"
       cy="113.04891"
       r="7"
       transform="rotate(-90)" />
    <circle
       style="opacity:0.430631;fill:url(#linearGradient44);fill-opacity:1;stroke-width:0;stroke-linejoin:round"
       id="path1-5-6-3"
       cx="113.04891"
       cy="62.06123"
       r="7" />
    <circle
       style="fill:url(#linearGradient7);fill-opacity:0.700257;stroke-width:0;stroke-linejoin:round"
       id="path1-3"
       cx="124.11206"
       cy="90.222282"
       r="7" />
    <circle
       style="fill:url(#linearGradient14);fill-opacity:0.700257;stroke-width:0;stroke-linejoin:round"
       id="path1-3-6"
       cx="-84.424561"
       cy="90.222282"
       transform="scale(-1,1)"
       r="7" />
    <circle
       style="fill:url(#linearGradient8);fill-opacity:0.700257;stroke-width:0;stroke-linejoin:round"
       id="path1-1"
       cx="64.580811"
       cy="55.851894"
       r="7" />
    <circle
       style="fill:url(#linearGradient15);fill-opacity:0.700257;stroke-width:0;stroke-linejoin:round"
       id="path1-1-5"
       cx="-143.95581"
       cy="55.851898"
       transform="scale(-1,1)"
       r="7" />
    <g
       inkscape:label=""
       transform="translate(91.220319,11.365194)"
       id="g45">
      <g
         id="surface1"
         transform="matrix(0.352778,0,0,0.352778,-0.780256,-0.615597)">
        <g
           style="fill:#000000;fill-opacity:1"
           id="g6">
          <g
             id="use5"
             transform="translate(1.993,11.9)">
            <path
               style="stroke:none"
               d="M 4.046875,-1.515625 C 4,-1.328125 3.96875,-1.28125 3.8125,-1.09375 c -0.484375,0.625 -0.984375,0.859375 -1.359375,0.859375 -0.390625,0 -0.765625,-0.3125 -0.765625,-1.140625 0,-0.640625 0.359375,-1.96875 0.625,-2.515625 0.34375,-0.65625 0.875,-1.140625 1.375,-1.140625 0.796875,0 0.953125,0.984375 0.953125,1.046875 L 4.609375,-3.8125 Z M 4.78125,-4.484375 C 4.625,-4.828125 4.296875,-5.265625 3.6875,-5.265625 c -1.296875,0 -2.78125,1.625 -2.78125,3.40625 C 0.90625,-0.609375 1.65625,0 2.421875,0 3.0625,0 3.625,-0.5 3.84375,-0.734375 l -0.265625,1.0625 c -0.171875,0.65625 -0.25,0.96875 -0.671875,1.375 -0.484375,0.5 -0.953125,0.5 -1.203125,0.5 -0.359375,0 -0.65625,-0.03125 -0.96875,-0.125 C 1.125,1.96875 1.21875,1.640625 1.21875,1.5 c 0,-0.1875 -0.140625,-0.375 -0.40625,-0.375 -0.28125,0 -0.59375,0.234375 -0.59375,0.625 0,0.5 0.484375,0.6875 1.5,0.6875 1.546875,0 2.34375,-0.984375 2.5,-1.640625 l 1.328125,-5.34375 c 0.03125,-0.15625 0.03125,-0.171875 0.03125,-0.203125 0,-0.15625 -0.125,-0.296875 -0.3125,-0.296875 -0.28125,0 -0.453125,0.234375 -0.484375,0.5625 z m 0,0"
               id="path8" />
          </g>
        </g>
        <g
           style="fill:#000000;fill-opacity:1"
           id="g7">
          <g
             id="use6"
             transform="translate(7.5890002,8.7449999)">
            <path
               style="stroke:none"
               d="M 5.03125,-6.65625 V -7 H 0.8125 v 0.34375 z m 0,0"
               id="path9" />
          </g>
        </g>
        <g
           style="fill:#000000;fill-opacity:1"
           id="g8">
          <g
             id="use7"
             transform="translate(8.0270004,11.9)">
            <path
               style="stroke:none"
               d="m 2.765625,-8 c 0,-0.046875 0.03125,-0.109375 0.03125,-0.171875 0,-0.125 -0.125,-0.125 -0.140625,-0.125 -0.015625,0 -0.4375,0.03125 -0.65625,0.0625 -0.203125,0.015625 -0.390625,0.03125 -0.59375,0.046875 -0.296875,0.03125 -0.375,0.03125 -0.375,0.25 0,0.125 0.109375,0.125 0.234375,0.125 0.609375,0 0.609375,0.109375 0.609375,0.21875 0,0.09375 -0.09375,0.4375 -0.140625,0.65625 l -0.28125,1.140625 c -0.125,0.484375 -0.8125,3.1875 -0.859375,3.40625 -0.0625,0.296875 -0.0625,0.5 -0.0625,0.65625 0,1.21875 0.6875,1.859375 1.46875,1.859375 1.375,0 2.8125,-1.78125 2.8125,-3.515625 0,-1.109375 -0.609375,-1.875 -1.515625,-1.875 -0.625,0 -1.1875,0.515625 -1.40625,0.75 z m -0.75,7.875 c -0.390625,0 -0.8125,-0.28125 -0.8125,-1.21875 0,-0.390625 0.046875,-0.609375 0.25,-1.453125 C 1.5,-2.953125 1.6875,-3.71875 1.734375,-3.875 1.75,-3.96875 2.46875,-5.03125 3.28125,-5.03125 c 0.515625,0 0.765625,0.53125 0.765625,1.140625 0,0.578125 -0.34375,1.9375 -0.640625,2.546875 C 3.109375,-0.6875 2.5625,-0.125 2.015625,-0.125 Z m 0,0"
               id="path10" />
          </g>
        </g>
      </g>
    </g>
    <g
       inkscape:label=""
       transform="translate(131.09844,82.001477)"
       id="g53">
      <g
         id="g52"
         transform="matrix(0.352778,0,0,0.352778,-0.780256,-0.615597)">
        <g
           style="fill:#000000;fill-opacity:1"
           id="g47">
          <g
             id="g46"
             transform="translate(1.993,8.7449999)">
            <path
               style="stroke:none"
               d="M 4.046875,-1.515625 C 4,-1.328125 3.96875,-1.28125 3.8125,-1.09375 c -0.484375,0.625 -0.984375,0.859375 -1.359375,0.859375 -0.390625,0 -0.765625,-0.3125 -0.765625,-1.140625 0,-0.640625 0.359375,-1.96875 0.625,-2.515625 0.34375,-0.65625 0.875,-1.140625 1.375,-1.140625 0.796875,0 0.953125,0.984375 0.953125,1.046875 L 4.609375,-3.8125 Z M 4.78125,-4.484375 C 4.625,-4.828125 4.296875,-5.265625 3.6875,-5.265625 c -1.296875,0 -2.78125,1.625 -2.78125,3.40625 C 0.90625,-0.609375 1.65625,0 2.421875,0 3.0625,0 3.625,-0.5 3.84375,-0.734375 l -0.265625,1.0625 c -0.171875,0.65625 -0.25,0.96875 -0.671875,1.375 -0.484375,0.5 -0.953125,0.5 -1.203125,0.5 -0.359375,0 -0.65625,-0.03125 -0.96875,-0.125 C 1.125,1.96875 1.21875,1.640625 1.21875,1.5 c 0,-0.1875 -0.140625,-0.375 -0.40625,-0.375 -0.28125,0 -0.59375,0.234375 -0.59375,0.625 0,0.5 0.484375,0.6875 1.5,0.6875 1.546875,0 2.34375,-0.984375 2.5,-1.640625 l 1.328125,-5.34375 c 0.03125,-0.15625 0.03125,-0.171875 0.03125,-0.203125 0,-0.15625 -0.125,-0.296875 -0.3125,-0.296875 -0.28125,0 -0.453125,0.234375 -0.484375,0.5625 z m 0,0"
               id="path45" />
          </g>
        </g>
        <g
           style="fill:#000000;fill-opacity:1"
           id="g49">
          <g
             id="g48"
             transform="translate(8.5509996,8.7449999)">
            <path
               style="stroke:none"
               d="M 5.03125,-6.65625 V -7 H 0.8125 v 0.34375 z m 0,0"
               id="path47" />
          </g>
        </g>
        <g
           style="fill:#000000;fill-opacity:1"
           id="g51">
          <g
             id="g50"
             transform="translate(8.0270004,8.7449999)">
            <path
               style="stroke:none"
               d="m 4.65625,-4.890625 c -0.375,0.078125 -0.5625,0.34375 -0.5625,0.59375 0,0.296875 0.21875,0.390625 0.390625,0.390625 0.328125,0 0.609375,-0.296875 0.609375,-0.640625 0,-0.390625 -0.375,-0.71875 -0.96875,-0.71875 -0.484375,0 -1.03125,0.203125 -1.53125,0.9375 -0.078125,-0.625 -0.5625,-0.9375 -1.046875,-0.9375 -0.453125,0 -0.703125,0.359375 -0.84375,0.609375 -0.203125,0.4375 -0.375,1.15625 -0.375,1.21875 0,0.046875 0.046875,0.109375 0.125,0.109375 0.09375,0 0.109375,-0.015625 0.1875,-0.296875 0.171875,-0.71875 0.40625,-1.40625 0.875,-1.40625 0.296875,0 0.375,0.203125 0.375,0.546875 0,0.265625 -0.125,0.734375 -0.203125,1.109375 l -0.34375,1.28125 c -0.046875,0.234375 -0.171875,0.765625 -0.234375,0.984375 -0.078125,0.3125 -0.21875,0.875 -0.21875,0.9375 0,0.15625 0.140625,0.296875 0.3125,0.296875 0.140625,0 0.359375,-0.09375 0.4375,-0.328125 C 1.671875,-0.296875 2.109375,-2.109375 2.1875,-2.375 2.25,-2.640625 2.3125,-2.890625 2.375,-3.15625 2.421875,-3.328125 2.46875,-3.515625 2.515625,-3.671875 2.546875,-3.78125 2.875,-4.359375 3.171875,-4.625 3.3125,-4.75 3.625,-5.03125 4.109375,-5.03125 4.296875,-5.03125 4.5,-5 4.65625,-4.890625 Z m 0,0"
               id="path49" />
          </g>
        </g>
      </g>
    </g>
    <g
       inkscape:label=""
       transform="translate(70.882082,45.678761)"
       id="g61">
      <g
         id="g60"
         transform="matrix(0.352778,0,0,0.352778,-0.890499,-0.704541)">
        <g
           style="fill:#000000;fill-opacity:1"
           id="g55">
          <g
             id="g54"
             transform="translate(1.993,10.294)">
            <path
               style="stroke:none"
               d="m 2.765625,-8 c 0,-0.046875 0.03125,-0.109375 0.03125,-0.171875 0,-0.125 -0.125,-0.125 -0.140625,-0.125 -0.015625,0 -0.4375,0.03125 -0.65625,0.0625 -0.203125,0.015625 -0.390625,0.03125 -0.59375,0.046875 -0.296875,0.03125 -0.375,0.03125 -0.375,0.25 0,0.125 0.109375,0.125 0.234375,0.125 0.609375,0 0.609375,0.109375 0.609375,0.21875 0,0.09375 -0.09375,0.4375 -0.140625,0.65625 l -0.28125,1.140625 c -0.125,0.484375 -0.8125,3.1875 -0.859375,3.40625 -0.0625,0.296875 -0.0625,0.5 -0.0625,0.65625 0,1.21875 0.6875,1.859375 1.46875,1.859375 1.375,0 2.8125,-1.78125 2.8125,-3.515625 0,-1.109375 -0.609375,-1.875 -1.515625,-1.875 -0.625,0 -1.1875,0.515625 -1.40625,0.75 z m -0.75,7.875 c -0.390625,0 -0.8125,-0.28125 -0.8125,-1.21875 0,-0.390625 0.046875,-0.609375 0.25,-1.453125 C 1.5,-2.953125 1.6875,-3.71875 1.734375,-3.875 1.75,-3.96875 2.46875,-5.03125 3.28125,-5.03125 c 0.515625,0 0.765625,0.53125 0.765625,1.140625 0,0.578125 -0.34375,1.9375 -0.640625,2.546875 C 3.109375,-0.6875 2.5625,-0.125 2.015625,-0.125 Z m 0,0"
               id="path53" />
          </g>
        </g>
        <g
           style="fill:#000000;fill-opacity:1"
           id="g57">
          <g
             id="g56"
             transform="translate(7.494,10.294)">
            <path
               style="stroke:none"
               d="M 5.03125,-6.65625 V -7 H 0.8125 v 0.34375 z m 0,0"
               id="path55" />
          </g>
        </g>
        <g
           style="fill:#000000;fill-opacity:1"
           id="g59">
          <g
             id="g58"
             transform="translate(6.9699998,10.294)">
            <path
               style="stroke:none"
               d="m 4.65625,-4.890625 c -0.375,0.078125 -0.5625,0.34375 -0.5625,0.59375 0,0.296875 0.21875,0.390625 0.390625,0.390625 0.328125,0 0.609375,-0.296875 0.609375,-0.640625 0,-0.390625 -0.375,-0.71875 -0.96875,-0.71875 -0.484375,0 -1.03125,0.203125 -1.53125,0.9375 -0.078125,-0.625 -0.5625,-0.9375 -1.046875,-0.9375 -0.453125,0 -0.703125,0.359375 -0.84375,0.609375 -0.203125,0.4375 -0.375,1.15625 -0.375,1.21875 0,0.046875 0.046875,0.109375 0.125,0.109375 0.09375,0 0.109375,-0.015625 0.1875,-0.296875 0.171875,-0.71875 0.40625,-1.40625 0.875,-1.40625 0.296875,0 0.375,0.203125 0.375,0.546875 0,0.265625 -0.125,0.734375 -0.203125,1.109375 l -0.34375,1.28125 c -0.046875,0.234375 -0.171875,0.765625 -0.234375,0.984375 -0.078125,0.3125 -0.21875,0.875 -0.21875,0.9375 0,0.15625 0.140625,0.296875 0.3125,0.296875 0.140625,0 0.359375,-0.09375 0.4375,-0.328125 C 1.671875,-0.296875 2.109375,-2.109375 2.1875,-2.375 2.25,-2.640625 2.3125,-2.890625 2.375,-3.15625 2.421875,-3.328125 2.46875,-3.515625 2.515625,-3.671875 2.546875,-3.78125 2.875,-4.359375 3.171875,-4.625 3.3125,-4.75 3.625,-5.03125 4.109375,-5.03125 4.296875,-5.03125 4.5,-5 4.65625,-4.890625 Z m 0,0"
               id="path57" />
          </g>
        </g>
      </g>
    </g>
    <g
       inkscape:label=""
       transform="translate(150.06026,46.232058)"
       id="g69">
      <g
         id="g68"
         transform="matrix(0.352778,0,0,0.352778,-0.818841,-0.615597)">
        <g
           style="fill:#000000;fill-opacity:1"
           id="g63">
          <g
             id="g62"
             transform="translate(1.993,11.899)">
            <path
               style="stroke:none"
               d="m 4.65625,-4.890625 c -0.375,0.078125 -0.5625,0.34375 -0.5625,0.59375 0,0.296875 0.21875,0.390625 0.390625,0.390625 0.328125,0 0.609375,-0.296875 0.609375,-0.640625 0,-0.390625 -0.375,-0.71875 -0.96875,-0.71875 -0.484375,0 -1.03125,0.203125 -1.53125,0.9375 -0.078125,-0.625 -0.5625,-0.9375 -1.046875,-0.9375 -0.453125,0 -0.703125,0.359375 -0.84375,0.609375 -0.203125,0.4375 -0.375,1.15625 -0.375,1.21875 0,0.046875 0.046875,0.109375 0.125,0.109375 0.09375,0 0.109375,-0.015625 0.1875,-0.296875 0.171875,-0.71875 0.40625,-1.40625 0.875,-1.40625 0.296875,0 0.375,0.203125 0.375,0.546875 0,0.265625 -0.125,0.734375 -0.203125,1.109375 l -0.34375,1.28125 c -0.046875,0.234375 -0.171875,0.765625 -0.234375,0.984375 -0.078125,0.3125 -0.21875,0.875 -0.21875,0.9375 0,0.15625 0.140625,0.296875 0.3125,0.296875 0.140625,0 0.359375,-0.09375 0.4375,-0.328125 C 1.671875,-0.296875 2.109375,-2.109375 2.1875,-2.375 2.25,-2.640625 2.3125,-2.890625 2.375,-3.15625 2.421875,-3.328125 2.46875,-3.515625 2.515625,-3.671875 2.546875,-3.78125 2.875,-4.359375 3.171875,-4.625 3.3125,-4.75 3.625,-5.03125 4.109375,-5.03125 4.296875,-5.03125 4.5,-5 4.65625,-4.890625 Z m 0,0"
               id="path61" />
          </g>
        </g>
        <g
           style="fill:#000000;fill-opacity:1"
           id="g65">
          <g
             id="g64"
             transform="translate(7.1550002,8.7449999)">
            <path
               style="stroke:none"
               d="M 5.03125,-6.65625 V -7 H 0.8125 v 0.34375 z m 0,0"
               id="path63" />
          </g>
        </g>
        <g
           style="fill:#000000;fill-opacity:1"
           id="g67">
          <g
             id="g66"
             transform="translate(7.5929999,11.899)">
            <path
               style="stroke:none"
               d="m 2.765625,-8 c 0,-0.046875 0.03125,-0.109375 0.03125,-0.171875 0,-0.125 -0.125,-0.125 -0.140625,-0.125 -0.015625,0 -0.4375,0.03125 -0.65625,0.0625 -0.203125,0.015625 -0.390625,0.03125 -0.59375,0.046875 -0.296875,0.03125 -0.375,0.03125 -0.375,0.25 0,0.125 0.109375,0.125 0.234375,0.125 0.609375,0 0.609375,0.109375 0.609375,0.21875 0,0.09375 -0.09375,0.4375 -0.140625,0.65625 l -0.28125,1.140625 c -0.125,0.484375 -0.8125,3.1875 -0.859375,3.40625 -0.0625,0.296875 -0.0625,0.5 -0.0625,0.65625 0,1.21875 0.6875,1.859375 1.46875,1.859375 1.375,0 2.8125,-1.78125 2.8125,-3.515625 0,-1.109375 -0.609375,-1.875 -1.515625,-1.875 -0.625,0 -1.1875,0.515625 -1.40625,0.75 z m -0.75,7.875 c -0.390625,0 -0.8125,-0.28125 -0.8125,-1.21875 0,-0.390625 0.046875,-0.609375 0.25,-1.453125 C 1.5,-2.953125 1.6875,-3.71875 1.734375,-3.875 1.75,-3.96875 2.46875,-5.03125 3.28125,-5.03125 c 0.515625,0 0.765625,0.53125 0.765625,1.140625 0,0.578125 -0.34375,1.9375 -0.640625,2.546875 C 3.109375,-0.6875 2.5625,-0.125 2.015625,-0.125 Z m 0,0"
               id="path65" />
          </g>
        </g>
      </g>
    </g>
    <g
       inkscape:label=""
       transform="translate(92.576193,83.066543)"
       id="g77">
      <g
         id="g76"
         transform="matrix(0.352778,0,0,0.352778,-0.818841,-0.615597)">
        <g
           style="fill:#000000;fill-opacity:1"
           id="g71">
          <g
             id="g70"
             transform="translate(1.993,8.7449999)">
            <path
               style="stroke:none"
               d="m 4.65625,-4.890625 c -0.375,0.078125 -0.5625,0.34375 -0.5625,0.59375 0,0.296875 0.21875,0.390625 0.390625,0.390625 0.328125,0 0.609375,-0.296875 0.609375,-0.640625 0,-0.390625 -0.375,-0.71875 -0.96875,-0.71875 -0.484375,0 -1.03125,0.203125 -1.53125,0.9375 -0.078125,-0.625 -0.5625,-0.9375 -1.046875,-0.9375 -0.453125,0 -0.703125,0.359375 -0.84375,0.609375 -0.203125,0.4375 -0.375,1.15625 -0.375,1.21875 0,0.046875 0.046875,0.109375 0.125,0.109375 0.09375,0 0.109375,-0.015625 0.1875,-0.296875 0.171875,-0.71875 0.40625,-1.40625 0.875,-1.40625 0.296875,0 0.375,0.203125 0.375,0.546875 0,0.265625 -0.125,0.734375 -0.203125,1.109375 l -0.34375,1.28125 c -0.046875,0.234375 -0.171875,0.765625 -0.234375,0.984375 -0.078125,0.3125 -0.21875,0.875 -0.21875,0.9375 0,0.15625 0.140625,0.296875 0.3125,0.296875 0.140625,0 0.359375,-0.09375 0.4375,-0.328125 C 1.671875,-0.296875 2.109375,-2.109375 2.1875,-2.375 2.25,-2.640625 2.3125,-2.890625 2.375,-3.15625 2.421875,-3.328125 2.46875,-3.515625 2.515625,-3.671875 2.546875,-3.78125 2.875,-4.359375 3.171875,-4.625 3.3125,-4.75 3.625,-5.03125 4.109375,-5.03125 4.296875,-5.03125 4.5,-5 4.65625,-4.890625 Z m 0,0"
               id="path69" />
          </g>
        </g>
        <g
           style="fill:#000000;fill-opacity:1"
           id="g73">
          <g
             id="g72"
             transform="translate(8.0089998,8.7449999)">
            <path
               style="stroke:none"
               d="M 5.03125,-6.65625 V -7 H 0.8125 v 0.34375 z m 0,0"
               id="path71" />
          </g>
        </g>
        <g
           style="fill:#000000;fill-opacity:1"
           id="g75">
          <g
             id="g74"
             transform="translate(7.5929999,8.7449999)">
            <path
               style="stroke:none"
               d="M 4.046875,-1.515625 C 4,-1.328125 3.96875,-1.28125 3.8125,-1.09375 c -0.484375,0.625 -0.984375,0.859375 -1.359375,0.859375 -0.390625,0 -0.765625,-0.3125 -0.765625,-1.140625 0,-0.640625 0.359375,-1.96875 0.625,-2.515625 0.34375,-0.65625 0.875,-1.140625 1.375,-1.140625 0.796875,0 0.953125,0.984375 0.953125,1.046875 L 4.609375,-3.8125 Z M 4.78125,-4.484375 C 4.625,-4.828125 4.296875,-5.265625 3.6875,-5.265625 c -1.296875,0 -2.78125,1.625 -2.78125,3.40625 C 0.90625,-0.609375 1.65625,0 2.421875,0 3.0625,0 3.625,-0.5 3.84375,-0.734375 l -0.265625,1.0625 c -0.171875,0.65625 -0.25,0.96875 -0.671875,1.375 -0.484375,0.5 -0.953125,0.5 -1.203125,0.5 -0.359375,0 -0.65625,-0.03125 -0.96875,-0.125 C 1.125,1.96875 1.21875,1.640625 1.21875,1.5 c 0,-0.1875 -0.140625,-0.375 -0.40625,-0.375 -0.28125,0 -0.59375,0.234375 -0.59375,0.625 0,0.5 0.484375,0.6875 1.5,0.6875 1.546875,0 2.34375,-0.984375 2.5,-1.640625 l 1.328125,-5.34375 c 0.03125,-0.15625 0.03125,-0.171875 0.03125,-0.203125 0,-0.15625 -0.125,-0.296875 -0.3125,-0.296875 -0.28125,0 -0.453125,0.234375 -0.484375,0.5625 z m 0,0"
               id="path73" />
          </g>
        </g>
      </g>
    </g>
    <g
       inkscape:label=""
       transform="translate(132.3072,11.813284)"
       id="g85">
      <g
         id="g84"
         transform="matrix(0.352778,0,0,0.352778,-0.890499,-0.704894)">
        <g
           style="fill:#000000;fill-opacity:1"
           id="g79">
          <g
             id="g78"
             transform="translate(1.993,10.295)">
            <path
               style="stroke:none"
               d="m 2.765625,-8 c 0,-0.046875 0.03125,-0.109375 0.03125,-0.171875 0,-0.125 -0.125,-0.125 -0.140625,-0.125 -0.015625,0 -0.4375,0.03125 -0.65625,0.0625 -0.203125,0.015625 -0.390625,0.03125 -0.59375,0.046875 -0.296875,0.03125 -0.375,0.03125 -0.375,0.25 0,0.125 0.109375,0.125 0.234375,0.125 0.609375,0 0.609375,0.109375 0.609375,0.21875 0,0.09375 -0.09375,0.4375 -0.140625,0.65625 l -0.28125,1.140625 c -0.125,0.484375 -0.8125,3.1875 -0.859375,3.40625 -0.0625,0.296875 -0.0625,0.5 -0.0625,0.65625 0,1.21875 0.6875,1.859375 1.46875,1.859375 1.375,0 2.8125,-1.78125 2.8125,-3.515625 0,-1.109375 -0.609375,-1.875 -1.515625,-1.875 -0.625,0 -1.1875,0.515625 -1.40625,0.75 z m -0.75,7.875 c -0.390625,0 -0.8125,-0.28125 -0.8125,-1.21875 0,-0.390625 0.046875,-0.609375 0.25,-1.453125 C 1.5,-2.953125 1.6875,-3.71875 1.734375,-3.875 1.75,-3.96875 2.46875,-5.03125 3.28125,-5.03125 c 0.515625,0 0.765625,0.53125 0.765625,1.140625 0,0.578125 -0.34375,1.9375 -0.640625,2.546875 C 3.109375,-0.6875 2.5625,-0.125 2.015625,-0.125 Z m 0,0"
               id="path77" />
          </g>
        </g>
        <g
           style="fill:#000000;fill-opacity:1"
           id="g81">
          <g
             id="g80"
             transform="translate(7.3850002,10.295)">
            <path
               style="stroke:none"
               d="M 5.03125,-6.65625 V -7 H 0.8125 v 0.34375 z m 0,0"
               id="path79" />
          </g>
        </g>
        <g
           style="fill:#000000;fill-opacity:1"
           id="g83">
          <g
             id="g82"
             transform="translate(6.9699998,10.295)">
            <path
               style="stroke:none"
               d="M 4.046875,-1.515625 C 4,-1.328125 3.96875,-1.28125 3.8125,-1.09375 c -0.484375,0.625 -0.984375,0.859375 -1.359375,0.859375 -0.390625,0 -0.765625,-0.3125 -0.765625,-1.140625 0,-0.640625 0.359375,-1.96875 0.625,-2.515625 0.34375,-0.65625 0.875,-1.140625 1.375,-1.140625 0.796875,0 0.953125,0.984375 0.953125,1.046875 L 4.609375,-3.8125 Z M 4.78125,-4.484375 C 4.625,-4.828125 4.296875,-5.265625 3.6875,-5.265625 c -1.296875,0 -2.78125,1.625 -2.78125,3.40625 C 0.90625,-0.609375 1.65625,0 2.421875,0 3.0625,0 3.625,-0.5 3.84375,-0.734375 l -0.265625,1.0625 c -0.171875,0.65625 -0.25,0.96875 -0.671875,1.375 -0.484375,0.5 -0.953125,0.5 -1.203125,0.5 -0.359375,0 -0.65625,-0.03125 -0.96875,-0.125 C 1.125,1.96875 1.21875,1.640625 1.21875,1.5 c 0,-0.1875 -0.140625,-0.375 -0.40625,-0.375 -0.28125,0 -0.59375,0.234375 -0.59375,0.625 0,0.5 0.484375,0.6875 1.5,0.6875 1.546875,0 2.34375,-0.984375 2.5,-1.640625 l 1.328125,-5.34375 c 0.03125,-0.15625 0.03125,-0.171875 0.03125,-0.203125 0,-0.15625 -0.125,-0.296875 -0.3125,-0.296875 -0.28125,0 -0.453125,0.234375 -0.484375,0.5625 z m 0,0"
               id="path81" />
          </g>
        </g>
      </g>
    </g>
    <g
       inkscape:label=""
       transform="translate(105.26915,40.526897)"
       id="g87">
      <g
         id="g86"
         transform="matrix(0.352778,0,0,0.352778,-1.12448,-0.703263)">
        <g
           style="fill:#000000;fill-opacity:1"
           id="g10">
          <g
             id="use9"
             transform="translate(3.188,7.3060002)">
            <path
               style="stroke:none"
               d="m 3.625,-3.625 c -0.296875,0.046875 -0.453125,0.296875 -0.453125,0.484375 0,0.171875 0.125,0.328125 0.359375,0.328125 0.234375,0 0.484375,-0.203125 0.484375,-0.546875 0,-0.34375 -0.328125,-0.609375 -0.765625,-0.609375 -0.671875,0 -1.046875,0.5 -1.171875,0.671875 C 1.96875,-3.78125 1.5625,-3.96875 1.234375,-3.96875 c -0.328125,0 -0.53125,0.203125 -0.6875,0.515625 -0.171875,0.328125 -0.28125,0.828125 -0.28125,0.875 0,0.078125 0.0625,0.109375 0.125,0.109375 0.09375,0 0.109375,-0.046875 0.15625,-0.234375 0.171875,-0.703125 0.359375,-1.03125 0.65625,-1.03125 0.28125,0 0.28125,0.28125 0.28125,0.421875 0,0.1875 -0.078125,0.453125 -0.125,0.6875 -0.0625,0.234375 -0.15625,0.625 -0.1875,0.734375 L 0.8125,-0.421875 C 0.75,-0.203125 0.75,-0.1875 0.75,-0.15625 c 0,0.109375 0.078125,0.25 0.265625,0.25 0.296875,0 0.359375,-0.234375 0.421875,-0.5 C 1.546875,-0.796875 1.546875,-0.8125 1.625,-1.171875 1.96875,-2.515625 2.015625,-2.734375 2.03125,-2.78125 2.09375,-2.890625 2.5,-3.734375 3.25,-3.734375 c 0.203125,0 0.328125,0.0625 0.375,0.109375 z m 0,0"
               id="path18" />
          </g>
        </g>
        <g
           style="fill:#000000;fill-opacity:1"
           id="g11">
          <g
             id="use10"
             transform="translate(8.0170002,7.3060002)">
            <path
               style="stroke:none"
               d="M 3.96875,-5 V -5.3125 H 0.640625 V -5 Z m 0,0"
               id="path19" />
          </g>
        </g>
        <g
           style="fill:#000000;fill-opacity:1"
           id="g12">
          <g
             id="use11"
             transform="translate(7.6020002,7.3060002)">
            <path
               style="stroke:none"
               d="m 3.625,-3.625 c -0.296875,0.046875 -0.453125,0.296875 -0.453125,0.484375 0,0.171875 0.125,0.328125 0.359375,0.328125 0.234375,0 0.484375,-0.203125 0.484375,-0.546875 0,-0.34375 -0.328125,-0.609375 -0.765625,-0.609375 -0.671875,0 -1.046875,0.5 -1.171875,0.671875 C 1.96875,-3.78125 1.5625,-3.96875 1.234375,-3.96875 c -0.328125,0 -0.53125,0.203125 -0.6875,0.515625 -0.171875,0.328125 -0.28125,0.828125 -0.28125,0.875 0,0.078125 0.0625,0.109375 0.125,0.109375 0.09375,0 0.109375,-0.046875 0.15625,-0.234375 0.171875,-0.703125 0.359375,-1.03125 0.65625,-1.03125 0.28125,0 0.28125,0.28125 0.28125,0.421875 0,0.1875 -0.078125,0.453125 -0.125,0.6875 -0.0625,0.234375 -0.15625,0.625 -0.1875,0.734375 L 0.8125,-0.421875 C 0.75,-0.203125 0.75,-0.1875 0.75,-0.15625 c 0,0.109375 0.078125,0.25 0.265625,0.25 0.296875,0 0.359375,-0.234375 0.421875,-0.5 C 1.546875,-0.796875 1.546875,-0.8125 1.625,-1.171875 1.96875,-2.515625 2.015625,-2.734375 2.03125,-2.78125 2.09375,-2.890625 2.5,-3.734375 3.25,-3.734375 c 0.203125,0 0.328125,0.0625 0.375,0.109375 z m 0,0"
               id="path20" />
          </g>
        </g>
        <g
           style="fill:#000000;fill-opacity:1"
           id="g13">
          <g
             id="use12"
             transform="translate(12.016,7.3060002)">
            <path
               style="stroke:none"
               d="m 6.046875,-2.046875 c 0.171875,0 0.34375,0 0.34375,-0.203125 0,-0.1875 -0.1875,-0.1875 -0.34375,-0.1875 h -4.9375 c -0.15625,0 -0.34375,0 -0.34375,0.1875 0,0.203125 0.171875,0.203125 0.34375,0.203125 z m 0,0"
               id="path21" />
          </g>
        </g>
        <g
           style="fill:#000000;fill-opacity:1"
           id="g14">
          <g
             id="use13"
             transform="translate(19.184,7.3060002)">
            <path
               style="stroke:none"
               d="m 4.375,-3.53125 c 0,-0.140625 -0.125,-0.25 -0.28125,-0.25 -0.15625,0 -0.34375,0.109375 -0.390625,0.359375 C 3.5,-3.765625 3.21875,-3.96875 2.859375,-3.96875 1.765625,-3.96875 0.65625,-2.6875 0.65625,-1.4375 0.65625,-0.59375 1.1875,0 1.90625,0 2.3125,0 2.671875,-0.21875 2.96875,-0.5 2.859375,0 2.703125,0.59375 2.640625,0.765625 c -0.046875,0.09375 -0.375,0.84375 -1.28125,0.84375 -0.171875,0 -0.46875,0 -0.6875,-0.0625 C 0.84375,1.46875 1,1.28125 1,1.078125 c 0,-0.1875 -0.15625,-0.3125 -0.34375,-0.3125 -0.203125,0 -0.5,0.15625 -0.5,0.53125 0,0.4375 0.5,0.546875 1.21875,0.546875 1.15625,0 1.828125,-0.671875 1.96875,-1.25 z M 3.140625,-1.171875 C 3.109375,-1 3.09375,-0.984375 2.953125,-0.8125 2.5,-0.296875 2.109375,-0.21875 1.9375,-0.21875 c -0.4375,0 -0.59375,-0.4375 -0.59375,-0.84375 0,-0.34375 0.203125,-1.34375 0.484375,-1.875 0.21875,-0.421875 0.625,-0.796875 1.03125,-0.796875 0.578125,0 0.734375,0.671875 0.734375,0.75 0,0.03125 -0.03125,0.09375 -0.03125,0.140625 z m 0,0"
               id="path22" />
          </g>
        </g>
        <g
           style="fill:#000000;fill-opacity:1"
           id="g15">
          <g
             id="use14"
             transform="translate(24.209999,7.3060002)">
            <path
               style="stroke:none"
               d="M 3.96875,-5 V -5.3125 H 0.640625 V -5 Z m 0,0"
               id="path23" />
          </g>
        </g>
        <g
           style="fill:#000000;fill-opacity:1"
           id="g16">
          <g
             id="use15"
             transform="translate(23.899,7.3060002)">
            <path
               style="stroke:none"
               d="m 4.375,-3.53125 c 0,-0.140625 -0.125,-0.25 -0.28125,-0.25 -0.15625,0 -0.34375,0.109375 -0.390625,0.359375 C 3.5,-3.765625 3.21875,-3.96875 2.859375,-3.96875 1.765625,-3.96875 0.65625,-2.6875 0.65625,-1.4375 0.65625,-0.59375 1.1875,0 1.90625,0 2.3125,0 2.671875,-0.21875 2.96875,-0.5 2.859375,0 2.703125,0.59375 2.640625,0.765625 c -0.046875,0.09375 -0.375,0.84375 -1.28125,0.84375 -0.171875,0 -0.46875,0 -0.6875,-0.0625 C 0.84375,1.46875 1,1.28125 1,1.078125 c 0,-0.1875 -0.15625,-0.3125 -0.34375,-0.3125 -0.203125,0 -0.5,0.15625 -0.5,0.53125 0,0.4375 0.5,0.546875 1.21875,0.546875 1.15625,0 1.828125,-0.671875 1.96875,-1.25 z M 3.140625,-1.171875 C 3.109375,-1 3.09375,-0.984375 2.953125,-0.8125 2.5,-0.296875 2.109375,-0.21875 1.9375,-0.21875 c -0.4375,0 -0.59375,-0.4375 -0.59375,-0.84375 0,-0.34375 0.203125,-1.34375 0.484375,-1.875 0.21875,-0.421875 0.625,-0.796875 1.03125,-0.796875 0.578125,0 0.734375,0.671875 0.734375,0.75 0,0.03125 -0.03125,0.09375 -0.03125,0.140625 z m 0,0"
               id="path24" />
          </g>
        </g>
        <path
           style="fill:none;stroke:#000000;stroke-width:0.518;stroke-linecap:butt;stroke-linejoin:miter;stroke-miterlimit:10;stroke-opacity:1"
           d="M -5e-4,0.00178125 H 25.425281"
           transform="matrix(1,0,0,-1,3.188,9.826)"
           id="path16" />
        <g
           style="fill:#000000;fill-opacity:1"
           id="g17">
          <g
             id="use16"
             transform="translate(9.7580004,11.361)">
            <path
               style="stroke:none"
               d="M 3.59375,7.625 1.953125,4.140625 C 1.890625,4 1.859375,3.984375 1.8125,3.984375 1.765625,3.984375 1.75,4.015625 1.671875,4.0625 L 0.78125,4.71875 c -0.078125,0.046875 -0.125,0.09375 -0.125,0.15625 0,0.03125 0.03125,0.109375 0.109375,0.109375 0.0625,0 0.109375,-0.046875 0.3125,-0.203125 C 1.15625,4.734375 1.28125,4.640625 1.375,4.5625 l 1.8125,3.875 C 3.25,8.59375 3.296875,8.59375 3.375,8.59375 c 0.140625,0 0.171875,-0.03125 0.25,-0.1875 l 4.171875,-8.421875 c 0.03125,-0.046875 0.0625,-0.125 0.0625,-0.171875 0,-0.125 -0.078125,-0.203125 -0.1875,-0.203125 -0.078125,0 -0.140625,0.046875 -0.21875,0.203125 z m 0,0"
               id="path25" />
          </g>
        </g>
        <path
           style="fill:none;stroke:#000000;stroke-width:0.379;stroke-linecap:butt;stroke-linejoin:miter;stroke-miterlimit:10;stroke-opacity:1"
           d="M -5e-4,-8.75e-4 H 4.608875"
           transform="matrix(1,0,0,-1,17.438,11.171)"
           id="path17" />
        <g
           style="fill:#000000;fill-opacity:1"
           id="g18">
          <g
             id="use17"
             transform="translate(17.438,18.783001)">
            <path
               style="stroke:none"
               d="m 4.140625,-1.59375 h -0.25 C 3.875,-1.46875 3.796875,-0.9375 3.6875,-0.796875 3.625,-0.71875 3.015625,-0.71875 2.828125,-0.71875 H 1.234375 L 2.125,-1.5625 c 1.46875,-1.265625 2.015625,-1.75 2.015625,-2.65625 0,-1.03125 -0.84375,-1.75 -1.953125,-1.75 -1.03125,0 -1.734375,0.8125 -1.734375,1.625 0,0.453125 0.390625,0.5 0.46875,0.5 0.203125,0 0.46875,-0.140625 0.46875,-0.46875 0,-0.265625 -0.1875,-0.46875 -0.46875,-0.46875 -0.046875,0 -0.0625,0 -0.109375,0.015625 C 1.03125,-5.40625 1.609375,-5.6875 2.09375,-5.6875 c 0.90625,0 1.21875,0.84375 1.21875,1.46875 0,0.90625 -0.6875,1.65625 -1.109375,2.125 L 0.5625,-0.328125 C 0.453125,-0.21875 0.453125,-0.203125 0.453125,0 h 3.4375 z m 0,0"
               id="path26" />
          </g>
        </g>
      </g>
    </g>
    <g
       inkscape:label=""
       transform="translate(89.736828,64.562453)"
       id="g101">
      <g
         id="g100"
         transform="matrix(0.352778,0,0,0.352778,-1.12448,-0.634118)">
        <g
           style="fill:#000000;fill-opacity:1"
           id="g89">
          <g
             id="g88"
             transform="translate(3.188,9.4759998)">
            <path
               style="stroke:none"
               d="m 3.625,-3.625 c -0.296875,0.046875 -0.453125,0.296875 -0.453125,0.484375 0,0.171875 0.125,0.328125 0.359375,0.328125 0.234375,0 0.484375,-0.203125 0.484375,-0.546875 0,-0.34375 -0.328125,-0.609375 -0.765625,-0.609375 -0.671875,0 -1.046875,0.5 -1.171875,0.671875 C 1.96875,-3.78125 1.5625,-3.96875 1.234375,-3.96875 c -0.328125,0 -0.53125,0.203125 -0.6875,0.515625 -0.171875,0.328125 -0.28125,0.828125 -0.28125,0.875 0,0.078125 0.0625,0.109375 0.125,0.109375 0.09375,0 0.109375,-0.046875 0.15625,-0.234375 0.171875,-0.703125 0.359375,-1.03125 0.65625,-1.03125 0.28125,0 0.28125,0.28125 0.28125,0.421875 0,0.1875 -0.078125,0.453125 -0.125,0.6875 -0.0625,0.234375 -0.15625,0.625 -0.1875,0.734375 L 0.8125,-0.421875 C 0.75,-0.203125 0.75,-0.1875 0.75,-0.15625 c 0,0.109375 0.078125,0.25 0.265625,0.25 0.296875,0 0.359375,-0.234375 0.421875,-0.5 C 1.546875,-0.796875 1.546875,-0.8125 1.625,-1.171875 1.96875,-2.515625 2.015625,-2.734375 2.03125,-2.78125 2.09375,-2.890625 2.5,-3.734375 3.25,-3.734375 c 0.203125,0 0.328125,0.0625 0.375,0.109375 z m 0,0"
               id="path87" />
          </g>
        </g>
        <g
           style="fill:#000000;fill-opacity:1"
           id="g91">
          <g
             id="g90"
             transform="translate(8.0170002,9.4759998)">
            <path
               style="stroke:none"
               d="M 3.96875,-5 V -5.3125 H 0.640625 V -5 Z m 0,0"
               id="path27" />
          </g>
        </g>
        <g
           style="fill:#000000;fill-opacity:1"
           id="g93">
          <g
             id="g92"
             transform="translate(7.6020002,9.4759998)">
            <path
               style="stroke:none"
               d="m 3.625,-3.625 c -0.296875,0.046875 -0.453125,0.296875 -0.453125,0.484375 0,0.171875 0.125,0.328125 0.359375,0.328125 0.234375,0 0.484375,-0.203125 0.484375,-0.546875 0,-0.34375 -0.328125,-0.609375 -0.765625,-0.609375 -0.671875,0 -1.046875,0.5 -1.171875,0.671875 C 1.96875,-3.78125 1.5625,-3.96875 1.234375,-3.96875 c -0.328125,0 -0.53125,0.203125 -0.6875,0.515625 -0.171875,0.328125 -0.28125,0.828125 -0.28125,0.875 0,0.078125 0.0625,0.109375 0.125,0.109375 0.09375,0 0.109375,-0.046875 0.15625,-0.234375 0.171875,-0.703125 0.359375,-1.03125 0.65625,-1.03125 0.28125,0 0.28125,0.28125 0.28125,0.421875 0,0.1875 -0.078125,0.453125 -0.125,0.6875 -0.0625,0.234375 -0.15625,0.625 -0.1875,0.734375 L 0.8125,-0.421875 C 0.75,-0.203125 0.75,-0.1875 0.75,-0.15625 c 0,0.109375 0.078125,0.25 0.265625,0.25 0.296875,0 0.359375,-0.234375 0.421875,-0.5 C 1.546875,-0.796875 1.546875,-0.8125 1.625,-1.171875 1.96875,-2.515625 2.015625,-2.734375 2.03125,-2.78125 2.09375,-2.890625 2.5,-3.734375 3.25,-3.734375 c 0.203125,0 0.328125,0.0625 0.375,0.109375 z m 0,0"
               id="path28" />
          </g>
        </g>
        <g
           style="fill:#000000;fill-opacity:1"
           id="g95">
          <g
             id="g94"
             transform="translate(12.016,9.4759998)">
            <path
               style="stroke:none"
               d="m 6.328125,-2.046875 c 0.125,0 0.3125,0 0.3125,-0.203125 0,-0.1875 -0.171875,-0.1875 -0.3125,-0.1875 H 3.78125 V -5 c 0,-0.140625 0,-0.3125 -0.203125,-0.3125 -0.1875,0 -0.1875,0.1875 -0.1875,0.3125 v 2.5625 h -2.5625 c -0.125,0 -0.3125,0 -0.3125,0.1875 0,0.203125 0.171875,0.203125 0.3125,0.203125 h 2.5625 v 2.5625 c 0,0.140625 0,0.3125 0.203125,0.3125 0.1875,0 0.1875,-0.1875 0.1875,-0.3125 v -2.5625 z m 0,0"
               id="path29" />
          </g>
        </g>
        <g
           style="fill:#000000;fill-opacity:1"
           id="g97">
          <g
             id="g96"
             transform="translate(19.184,9.4759998)">
            <path
               style="stroke:none"
               d="m 2.140625,-5.921875 c 0.03125,-0.125 0.03125,-0.140625 0.03125,-0.171875 0,-0.078125 -0.046875,-0.125 -0.125,-0.125 -0.125,0 -0.921875,0.0625 -1.09375,0.078125 -0.09375,0.015625 -0.1875,0.03125 -0.1875,0.171875 0,0.125 0.09375,0.125 0.234375,0.125 0.421875,0 0.421875,0.0625 0.421875,0.140625 0,0.046875 0,0.078125 -0.0625,0.3125 L 0.890625,-3.5 c -0.125,0.5 -0.25,0.96875 -0.34375,1.390625 -0.0625,0.21875 -0.125,0.484375 -0.125,0.765625 0,0.78125 0.4375,1.4375 1.203125,1.4375 1.046875,0 2.203125,-1.265625 2.203125,-2.609375 0,-0.90625 -0.578125,-1.453125 -1.25,-1.453125 -0.453125,0 -0.84375,0.3125 -1.046875,0.515625 z M 1.40625,-2.9375 c 0.25,-0.359375 0.703125,-0.796875 1.15625,-0.796875 0.421875,0 0.59375,0.421875 0.59375,0.84375 C 3.15625,-2.5 2.90625,-1.375 2.625,-0.90625 2.296875,-0.328125 1.90625,-0.125 1.625,-0.125 1.171875,-0.125 1,-0.578125 1,-1.03125 c 0,-0.3125 0.0625,-0.5625 0.265625,-1.375 z m 0,0"
               id="path30" />
          </g>
        </g>
        <g
           style="fill:#000000;fill-opacity:1"
           id="g99">
          <g
             id="g98"
             transform="translate(22.802999,7.1100001)">
            <path
               style="stroke:none"
               d="M 3.96875,-5 V -5.3125 H 0.640625 V -5 Z m 0,0"
               id="path31" />
          </g>
        </g>
        <g
           style="fill:#000000;fill-opacity:1"
           id="g19">
          <g
             id="use18"
             transform="translate(23.132999,9.4759998)">
            <path
               style="stroke:none"
               d="m 2.140625,-5.921875 c 0.03125,-0.125 0.03125,-0.140625 0.03125,-0.171875 0,-0.078125 -0.046875,-0.125 -0.125,-0.125 -0.125,0 -0.921875,0.0625 -1.09375,0.078125 -0.09375,0.015625 -0.1875,0.03125 -0.1875,0.171875 0,0.125 0.09375,0.125 0.234375,0.125 0.421875,0 0.421875,0.0625 0.421875,0.140625 0,0.046875 0,0.078125 -0.0625,0.3125 L 0.890625,-3.5 c -0.125,0.5 -0.25,0.96875 -0.34375,1.390625 -0.0625,0.21875 -0.125,0.484375 -0.125,0.765625 0,0.78125 0.4375,1.4375 1.203125,1.4375 1.046875,0 2.203125,-1.265625 2.203125,-2.609375 0,-0.90625 -0.578125,-1.453125 -1.25,-1.453125 -0.453125,0 -0.84375,0.3125 -1.046875,0.515625 z M 1.40625,-2.9375 c 0.25,-0.359375 0.703125,-0.796875 1.15625,-0.796875 0.421875,0 0.59375,0.421875 0.59375,0.84375 C 3.15625,-2.5 2.90625,-1.375 2.625,-0.90625 2.296875,-0.328125 1.90625,-0.125 1.625,-0.125 1.171875,-0.125 1,-0.578125 1,-1.03125 c 0,-0.3125 0.0625,-0.5625 0.265625,-1.375 z m 0,0"
               id="path32" />
          </g>
        </g>
        <g
           style="fill:#000000;fill-opacity:1"
           id="g20">
          <g
             id="use19"
             transform="translate(27.082001,9.4759998)">
            <path
               style="stroke:none"
               d="m 6.046875,-2.046875 c 0.171875,0 0.34375,0 0.34375,-0.203125 0,-0.1875 -0.1875,-0.1875 -0.34375,-0.1875 h -4.9375 c -0.15625,0 -0.34375,0 -0.34375,0.1875 0,0.203125 0.171875,0.203125 0.34375,0.203125 z m 0,0"
               id="path33" />
          </g>
        </g>
        <g
           style="fill:#000000;fill-opacity:1"
           id="g21">
          <g
             id="use20"
             transform="translate(34.249001,9.4759998)">
            <path
               style="stroke:none"
               d="m 4.140625,-1.59375 h -0.25 C 3.875,-1.46875 3.796875,-0.9375 3.6875,-0.796875 3.625,-0.71875 3.015625,-0.71875 2.828125,-0.71875 H 1.234375 L 2.125,-1.5625 c 1.46875,-1.265625 2.015625,-1.75 2.015625,-2.65625 0,-1.03125 -0.84375,-1.75 -1.953125,-1.75 -1.03125,0 -1.734375,0.8125 -1.734375,1.625 0,0.453125 0.390625,0.5 0.46875,0.5 0.203125,0 0.46875,-0.140625 0.46875,-0.46875 0,-0.265625 -0.1875,-0.46875 -0.46875,-0.46875 -0.046875,0 -0.0625,0 -0.109375,0.015625 C 1.03125,-5.40625 1.609375,-5.6875 2.09375,-5.6875 c 0.90625,0 1.21875,0.84375 1.21875,1.46875 0,0.90625 -0.6875,1.65625 -1.109375,2.125 L 0.5625,-0.328125 C 0.453125,-0.21875 0.453125,-0.203125 0.453125,0 h 3.4375 z m 0,0"
               id="path34" />
          </g>
        </g>
        <g
           style="fill:#000000;fill-opacity:1"
           id="g22">
          <g
             id="use21"
             transform="translate(38.856998,9.4759998)">
            <path
               style="stroke:none"
               d="m 4.375,-3.53125 c 0,-0.140625 -0.125,-0.25 -0.28125,-0.25 -0.15625,0 -0.34375,0.109375 -0.390625,0.359375 C 3.5,-3.765625 3.21875,-3.96875 2.859375,-3.96875 1.765625,-3.96875 0.65625,-2.6875 0.65625,-1.4375 0.65625,-0.59375 1.1875,0 1.90625,0 2.3125,0 2.671875,-0.21875 2.96875,-0.5 2.859375,0 2.703125,0.59375 2.640625,0.765625 c -0.046875,0.09375 -0.375,0.84375 -1.28125,0.84375 -0.171875,0 -0.46875,0 -0.6875,-0.0625 C 0.84375,1.46875 1,1.28125 1,1.078125 c 0,-0.1875 -0.15625,-0.3125 -0.34375,-0.3125 -0.203125,0 -0.5,0.15625 -0.5,0.53125 0,0.4375 0.5,0.546875 1.21875,0.546875 1.15625,0 1.828125,-0.671875 1.96875,-1.25 z M 3.140625,-1.171875 C 3.109375,-1 3.09375,-0.984375 2.953125,-0.8125 2.5,-0.296875 2.109375,-0.21875 1.9375,-0.21875 c -0.4375,0 -0.59375,-0.4375 -0.59375,-0.84375 0,-0.34375 0.203125,-1.34375 0.484375,-1.875 0.21875,-0.421875 0.625,-0.796875 1.03125,-0.796875 0.578125,0 0.734375,0.671875 0.734375,0.75 0,0.03125 -0.03125,0.09375 -0.03125,0.140625 z m 0,0"
               id="path35" />
          </g>
        </g>
        <g
           style="fill:#000000;fill-opacity:1"
           id="g23">
          <g
             id="use22"
             transform="translate(43.882999,9.4759998)">
            <path
               style="stroke:none"
               d="M 3.96875,-5 V -5.3125 H 0.640625 V -5 Z m 0,0"
               id="path36" />
          </g>
        </g>
        <g
           style="fill:#000000;fill-opacity:1"
           id="g24">
          <g
             id="use23"
             transform="translate(43.573002,9.4759998)">
            <path
               style="stroke:none"
               d="m 4.375,-3.53125 c 0,-0.140625 -0.125,-0.25 -0.28125,-0.25 -0.15625,0 -0.34375,0.109375 -0.390625,0.359375 C 3.5,-3.765625 3.21875,-3.96875 2.859375,-3.96875 1.765625,-3.96875 0.65625,-2.6875 0.65625,-1.4375 0.65625,-0.59375 1.1875,0 1.90625,0 2.3125,0 2.671875,-0.21875 2.96875,-0.5 2.859375,0 2.703125,0.59375 2.640625,0.765625 c -0.046875,0.09375 -0.375,0.84375 -1.28125,0.84375 -0.171875,0 -0.46875,0 -0.6875,-0.0625 C 0.84375,1.46875 1,1.28125 1,1.078125 c 0,-0.1875 -0.15625,-0.3125 -0.34375,-0.3125 -0.203125,0 -0.5,0.15625 -0.5,0.53125 0,0.4375 0.5,0.546875 1.21875,0.546875 1.15625,0 1.828125,-0.671875 1.96875,-1.25 z M 3.140625,-1.171875 C 3.109375,-1 3.09375,-0.984375 2.953125,-0.8125 2.5,-0.296875 2.109375,-0.21875 1.9375,-0.21875 c -0.4375,0 -0.59375,-0.4375 -0.59375,-0.84375 0,-0.34375 0.203125,-1.34375 0.484375,-1.875 0.21875,-0.421875 0.625,-0.796875 1.03125,-0.796875 0.578125,0 0.734375,0.671875 0.734375,0.75 0,0.03125 -0.03125,0.09375 -0.03125,0.140625 z m 0,0"
               id="path37" />
          </g>
        </g>
        <path
           style="fill:none;stroke:#000000;stroke-width:0.518;stroke-linecap:butt;stroke-linejoin:miter;stroke-miterlimit:10;stroke-opacity:1"
           d="M -5e-4,-9.375e-5 H 45.101062"
           transform="matrix(1,0,0,-1,3.188,11.996)"
           id="path99" />
        <g
           style="fill:#000000;fill-opacity:1"
           id="g25">
          <g
             id="use24"
             transform="translate(19.594999,13.531)">
            <path
               style="stroke:none"
               d="M 3.59375,7.625 1.953125,4.140625 C 1.890625,4 1.859375,3.984375 1.8125,3.984375 1.765625,3.984375 1.75,4.015625 1.671875,4.0625 L 0.78125,4.71875 c -0.078125,0.046875 -0.125,0.09375 -0.125,0.15625 0,0.03125 0.03125,0.109375 0.109375,0.109375 0.0625,0 0.109375,-0.046875 0.3125,-0.203125 C 1.15625,4.734375 1.28125,4.640625 1.375,4.5625 l 1.8125,3.875 C 3.25,8.59375 3.296875,8.59375 3.375,8.59375 c 0.140625,0 0.171875,-0.03125 0.25,-0.1875 l 4.171875,-8.421875 c 0.03125,-0.046875 0.0625,-0.125 0.0625,-0.171875 0,-0.125 -0.078125,-0.203125 -0.1875,-0.203125 -0.078125,0 -0.140625,0.046875 -0.21875,0.203125 z m 0,0"
               id="path38" />
          </g>
        </g>
        <path
           style="fill:none;stroke:#000000;stroke-width:0.379;stroke-linecap:butt;stroke-linejoin:miter;stroke-miterlimit:10;stroke-opacity:1"
           d="M -5.625e-4,0.00115625 H 4.608812"
           transform="matrix(1,0,0,-1,27.274,13.341)"
           id="path100" />
        <g
           style="fill:#000000;fill-opacity:1"
           id="g26">
          <g
             id="use25"
             transform="translate(27.274,20.952999)">
            <path
               style="stroke:none"
               d="m 1.203125,-2.96875 c 0,-0.921875 0.09375,-1.421875 0.34375,-1.890625 C 1.71875,-5.234375 2.15625,-5.75 2.828125,-5.75 3,-5.75 3.421875,-5.71875 3.625,-5.390625 c -0.328125,0 -0.484375,0.171875 -0.484375,0.40625 0,0.234375 0.171875,0.421875 0.421875,0.421875 0.25,0 0.421875,-0.171875 0.421875,-0.4375 0,-0.5 -0.359375,-0.96875 -1.171875,-0.96875 -1.15625,0 -2.421875,1.140625 -2.421875,3.140625 0,2.421875 1.09375,3.03125 1.9375,3.03125 0.984375,0 1.890625,-0.84375 1.890625,-2.03125 0,-1.125 -0.828125,-2 -1.84375,-2 -0.53125,0 -0.921875,0.328125 -1.171875,0.859375 z M 2.3125,-0.046875 c -0.515625,0 -0.8125,-0.421875 -0.90625,-0.6875 -0.171875,-0.40625 -0.1875,-1.15625 -0.1875,-1.296875 0,-0.59375 0.28125,-1.5625 1.140625,-1.5625 0.140625,0 0.578125,0 0.875,0.546875 0.171875,0.34375 0.171875,0.78125 0.171875,1.21875 0,0.421875 0,0.875 -0.171875,1.203125 C 2.953125,-0.109375 2.5625,-0.046875 2.3125,-0.046875 Z m 0,0"
               id="path39" />
          </g>
        </g>
      </g>
    </g>
  </g>
</svg>
