<?xml version="1.0" encoding="utf-8"?>
<!-- Generator: Adobe Illustrator 15.1.0, SVG Export Plug-In . SVG Version: 6.00 Build 0)  -->
<!DOCTYPE svg PUBLIC "-//W3C//DTD SVG 1.1//EN" "http://www.w3.org/Graphics/SVG/1.1/DTD/svg11.dtd">
<svg version="1.1" id="Ebene_1" xmlns="http://www.w3.org/2000/svg" xmlns:xlink="http://www.w3.org/1999/xlink" x="0px" y="0px"
	 width="841.378px" height="494.976px" viewBox="0 0 841.378 494.976" enable-background="new 0 0 841.378 494.976"
	 xml:space="preserve">
<path fill="none" stroke="#FFED00" stroke-width="4" stroke-miterlimit="10" d="M149.704,299.549"/>
<path fill="none" stroke="#FFED00" stroke-width="4" stroke-miterlimit="10" d="M232.058,172.179"/>
<path fill="none" stroke="#FFED00" stroke-width="3.2449" stroke-miterlimit="10" d="M1471.378,321.569"/>
<g>
	
		<line fill="none" stroke="#B17F4A" stroke-width="4" stroke-miterlimit="10" x1="230.301" y1="139.385" x2="800.751" y2="139.385"/>
	<g>
		<path fill="none" stroke="#B17F4A" stroke-width="4" stroke-miterlimit="10" d="M149.683,265.345
			c-1.032,51.737,38.091,126.071,86.096,126.071"/>
		<path fill="none" stroke="#B17F4A" stroke-width="4" stroke-miterlimit="10" d="M149.704,270.262
			c-1.033-55.531,38.627-130.877,86.758-130.877"/>
		<path fill="none" stroke="#B17F4A" stroke-width="4" stroke-miterlimit="10" d="M825.417,265.345
			c0.303,73.665-11.116,126.015-25.315,126.015"/>
		<path fill="none" stroke="#B17F4A" stroke-width="4" stroke-miterlimit="10" d="M825.362,266.578
			c0.304-73.666-11.247-127.248-25.448-127.248"/>
		<line fill="none" stroke="#B17F4A" stroke-width="4" stroke-miterlimit="10" x1="235.779" y1="391.416" x2="800.64" y2="391.36"/>
	</g>
</g>
<path fill="none" stroke="#FFED00" stroke-width="4" stroke-miterlimit="10" d="M113.261,235.307"/>
<path fill="none" stroke="#FFED00" stroke-width="4" stroke-miterlimit="10" d="M153.628,205.975"/>
<g>
	<path fill="none" stroke="#1B181C" stroke-width="2" d="M571.672,115.645c4.896,0,8.857-3.957,8.857-8.875
		c0-4.914-3.962-8.875-8.857-8.875c-4.865,0-8.824,3.961-8.824,8.875C562.848,111.688,566.807,115.645,571.672,115.645z"/>
	<polyline fill="none" stroke="#231F20" stroke-width="4.0576" points="777.321,220.478 777.321,105.783 581.329,105.783 	"/>
	<line fill="none" stroke="#231F20" stroke-width="4" x1="571.688" y1="74.392" x2="571.688" y2="90.392"/>
	<line fill="none" stroke="#231F20" stroke-width="4" x1="563.688" y1="81.934" x2="579.688" y2="81.934"/>
</g>
<g>
	<path fill="none" stroke="#1B181C" stroke-width="2" d="M525.439,97.895c-4.867,0-8.826,3.961-8.826,8.875
		c0,4.918,3.959,8.875,8.826,8.875"/>
	<path fill="none" stroke="#1B181C" stroke-width="2" d="M534.265,106.77c0-4.914-3.958-8.875-8.825-8.875"/>
	<path fill="none" stroke="#1B181C" stroke-width="2" d="M525.439,115.645c4.867,0,8.825-3.957,8.825-8.875"/>
	<polyline fill="none" stroke="#231F20" stroke-width="3.3016" points="138.103,220.732 138.103,107.36 516.613,107.36 	"/>
	<line fill="none" stroke="#231F20" stroke-width="4" x1="517.439" y1="82.392" x2="533.439" y2="82.392"/>
</g>
<g id="WehneltZylinder" opacity="0.6">
	<path fill="none" stroke="#010202" stroke-width="0.7798" d="M220.688,192.134c4.653,0,7.583,40.585,7.583,68.122
		c0,27.535-3.163,68.125-7.583,68.125"/>
	
		<linearGradient id="SVGID_1_" gradientUnits="userSpaceOnUse" x1="795.7261" y1="-283.396" x2="795.7261" y2="-147.1475" gradientTransform="matrix(1 0 0 -1 -522.7012 44.9844)">
		<stop  offset="0" style="stop-color:#404042"/>
		<stop  offset="0.7152" style="stop-color:#F1F1F2"/>
		<stop  offset="1" style="stop-color:#6E6F71"/>
	</linearGradient>
	<path opacity="0.8" fill="url(#SVGID_1_)" stroke="#010202" stroke-width="0.655" enable-background="new    " d="M333.591,328.38
		c0,0-108.871,0-112.147,0c-3.24,0-8.982-36.594-8.982-66.316c0-29.718,5.742-69.933,8.982-69.933c3.276,0,112.147,0,112.147,0
		V328.38z"/>
	<path fill="#A6A8AB" stroke="#010202" stroke-width="0.7798" d="M333.591,192.132c4.188,0,9.871,30.502,9.871,68.124
		c0,37.625-5.684,68.125-9.871,68.125c-4.189,0-10.797-29.025-10.797-66.649C322.794,224.109,329.401,192.132,333.591,192.132z"/>
	<path fill="#FFFFFF" stroke="#010202" stroke-width="0.7798" d="M333.597,233.023c1.664,0,3.039,12.18,3.039,27.229
		c0,15.053-1.375,27.284-3.039,27.284c-1.697,0-3.045-12.23-3.045-27.284C330.552,245.203,331.899,233.023,333.597,233.023z"/>
</g>
<g id="Gleichspannungsquelle_1_">
	<path fill="none" stroke="#1B181C" stroke-width="2" d="M111.416,287.26c4.88,0,8.842,3.959,8.842,8.825
		c0,4.879-3.962,8.84-8.842,8.84c-4.866,0-8.826-3.961-8.826-8.84C102.59,291.219,106.55,287.26,111.416,287.26z"/>
</g>
<line fill="none" stroke="#010202" stroke-width="4" x1="120.258" y1="296.085" x2="278.147" y2="296.093"/>
<g id="Gleichspannungsquelle_2_">
	<path fill="none" stroke="#1B181C" stroke-width="2" d="M111.416,211.899c4.88,0,8.842,3.959,8.842,8.825
		c0,4.879-3.962,8.84-8.842,8.84c-4.866,0-8.826-3.961-8.826-8.84C102.59,215.858,106.55,211.899,111.416,211.899z"/>
</g>
<line fill="none" stroke="#010202" stroke-width="4" x1="120.258" y1="220.724" x2="278.147" y2="220.732"/>
<g>
	<path fill="none" stroke="#E30613" stroke-width="1.5597" d="M282.714,220.478c9.172,0,16.588,2.872,16.588,6.377
		c0,3.506-7.416,6.376-16.588,6.376c-9.117,0-16.531-2.87-16.531-6.376C266.183,223.35,273.597,220.478,282.714,220.478z"/>
	<path fill="none" stroke="#E30613" stroke-width="1.5597" d="M282.714,228.324c9.172,0,16.588,2.872,16.588,6.375
		c0,3.513-7.416,6.377-16.588,6.377c-9.117,0-16.531-2.864-16.531-6.377C266.183,231.196,273.597,228.324,282.714,228.324z"/>
	<path fill="none" stroke="#E30613" stroke-width="1.5597" d="M282.714,236.218c9.172,0,16.588,2.822,16.588,6.352
		c0,3.533-7.416,6.351-16.588,6.351c-9.117,0-16.531-2.817-16.531-6.351C266.183,239.041,273.597,236.218,282.714,236.218z"/>
	<path fill="none" stroke="#E30613" stroke-width="1.5597" d="M282.714,244.063c9.172,0,16.588,2.865,16.588,6.378
		c0,3.505-7.416,6.374-16.588,6.374c-9.117,0-16.531-2.869-16.531-6.374C266.183,246.928,273.597,244.063,282.714,244.063z"/>
	<path fill="none" stroke="#E30613" stroke-width="1.5597" d="M282.714,251.908c9.172,0,16.588,2.872,16.588,6.378
		s-7.416,6.375-16.588,6.375c-9.117,0-16.531-2.869-16.531-6.375S273.597,251.908,282.714,251.908z"/>
	<path fill="none" stroke="#E30613" stroke-width="1.5597" d="M282.714,259.803c9.172,0,16.588,2.82,16.588,6.342
		c0,3.539-7.416,6.359-16.588,6.359c-9.117,0-16.531-2.82-16.531-6.359C266.183,262.624,273.597,259.803,282.714,259.803z"/>
	<path fill="none" stroke="#E30613" stroke-width="1.5597" d="M282.714,267.649c9.172,0,16.588,2.854,16.588,6.375
		c0,3.508-7.416,6.375-16.588,6.375c-9.117,0-16.531-2.867-16.531-6.375C266.183,270.502,273.597,267.649,282.714,267.649z"/>
	<path fill="none" stroke="#E30613" stroke-width="1.5597" d="M282.714,275.493c9.172,0,16.588,2.871,16.588,6.377
		s-7.416,6.377-16.588,6.377c-9.117,0-16.531-2.871-16.531-6.377S273.597,275.493,282.714,275.493z"/>
	<path fill="none" stroke="#E30613" stroke-width="1.5597" d="M282.714,283.375c9.172,0,16.588,2.83,16.588,6.34
		c0,3.555-7.416,6.377-16.588,6.377c-9.117,0-16.531-2.822-16.531-6.377C266.183,286.206,273.597,283.375,282.714,283.375z"/>
</g>
<g>
	<path d="M226.267,181.234l-5.129-20.219h2.76l2.4,10.229c0.6,2.52,1.14,5.04,1.5,6.99h0.06c0.33-2.01,0.96-4.41,1.65-7.02l2.7-10.2
		h2.73l2.46,10.26c0.57,2.4,1.11,4.8,1.41,6.93h0.06c0.42-2.22,0.99-4.47,1.62-6.99l2.67-10.2h2.67l-5.73,20.219h-2.73l-2.55-10.53
		c-0.63-2.58-1.05-4.56-1.32-6.6h-0.06c-0.33,2.01-0.81,3.99-1.56,6.6l-2.88,10.53H226.267z"/>
	<path d="M248.737,174.455c0.06,3.57,2.31,5.04,4.98,5.04c1.89,0,3.06-0.33,4.02-0.75l0.48,1.89c-0.93,0.42-2.55,0.93-4.86,0.93
		c-4.47,0-7.14-2.97-7.14-7.35s2.58-7.8,6.81-7.8c4.77,0,6,4.14,6,6.81c0,0.54-0.03,0.93-0.09,1.23H248.737z M256.477,172.565
		c0.03-1.65-0.69-4.26-3.66-4.26c-2.7,0-3.84,2.43-4.05,4.26H256.477z"/>
	<path d="M262.297,159.935h2.64v9.09h0.06c0.42-0.75,1.08-1.44,1.89-1.89c0.78-0.45,1.71-0.72,2.7-0.72c1.95,0,5.07,1.2,5.07,6.18
		v8.64h-2.64v-8.34c0-2.34-0.87-4.29-3.36-4.29c-1.71,0-3.03,1.2-3.54,2.61c-0.15,0.39-0.18,0.78-0.18,1.26v8.76h-2.64V159.935z"/>
	<path d="M278.947,170.645c0-1.53-0.03-2.73-0.12-3.93h2.34l0.15,2.4h0.06c0.72-1.35,2.4-2.7,4.8-2.7c2.01,0,5.13,1.2,5.13,6.18
		v8.64h-2.64v-8.37c0-2.34-0.87-4.29-3.36-4.29c-1.71,0-3.06,1.23-3.54,2.7c-0.12,0.33-0.18,0.78-0.18,1.23v8.729h-2.64V170.645z"/>
	<path d="M297.066,174.455c0.06,3.57,2.31,5.04,4.98,5.04c1.89,0,3.06-0.33,4.02-0.75l0.48,1.89c-0.93,0.42-2.55,0.93-4.86,0.93
		c-4.47,0-7.14-2.97-7.14-7.35s2.58-7.8,6.81-7.8c4.77,0,6,4.14,6,6.81c0,0.54-0.03,0.93-0.09,1.23H297.066z M304.806,172.565
		c0.03-1.65-0.69-4.26-3.66-4.26c-2.7,0-3.84,2.43-4.05,4.26H304.806z"/>
	<path d="M310.626,159.935h2.64v21.299h-2.64V159.935z"/>
	<path d="M320.886,163.235v3.479h3.78v2.01h-3.78v7.83c0,1.8,0.51,2.82,1.98,2.82c0.72,0,1.14-0.06,1.53-0.18l0.12,2.01
		c-0.51,0.181-1.32,0.36-2.34,0.36c-1.23,0-2.22-0.42-2.85-1.11c-0.72-0.81-1.02-2.1-1.02-3.81v-7.919h-2.25v-2.01h2.25v-2.7
		L320.886,163.235z"/>
	<path d="M325.986,179.705l6.54-8.55c0.66-0.81,1.26-1.5,1.92-2.28v-0.06h-7.859v-2.1h11.04v1.65l-6.48,8.43
		c-0.63,0.81-1.2,1.56-1.86,2.28v0.06h8.459v2.1h-11.759V179.705z"/>
	<path d="M342.156,166.715l3.15,8.58c0.36,0.96,0.72,2.1,0.96,2.97h0.06c0.27-0.87,0.57-1.98,0.93-3.03l2.88-8.52h2.79l-3.96,10.35
		c-1.89,4.979-3.18,7.5-4.979,9.09c-1.32,1.109-2.58,1.56-3.24,1.68l-0.66-2.189c0.66-0.21,1.53-0.63,2.31-1.29
		c0.72-0.57,1.59-1.59,2.22-2.94c0.12-0.27,0.21-0.479,0.21-0.63c0-0.149-0.06-0.36-0.21-0.69l-5.34-13.379H342.156z"/>
	<path d="M355.325,159.935h2.64v21.299h-2.64V159.935z"/>
	<path d="M365.345,162.635c0,0.9-0.63,1.62-1.68,1.62c-0.96,0-1.59-0.72-1.59-1.62s0.66-1.65,1.65-1.65
		C364.685,160.985,365.345,161.705,365.345,162.635z M362.405,181.234v-14.52h2.64v14.52H362.405z"/>
	<path d="M369.425,170.645c0-1.53-0.03-2.73-0.12-3.93h2.34l0.15,2.4h0.06c0.72-1.35,2.4-2.7,4.8-2.7c2.01,0,5.13,1.2,5.13,6.18
		v8.64h-2.64v-8.37c0-2.34-0.87-4.29-3.36-4.29c-1.71,0-3.06,1.23-3.54,2.7c-0.12,0.33-0.18,0.78-0.18,1.23v8.729h-2.64V170.645z"/>
	<path d="M398.584,159.935v17.549c0,1.29,0.06,2.76,0.12,3.75h-2.34l-0.12-2.52h-0.09c-0.78,1.62-2.52,2.85-4.89,2.85
		c-3.51,0-6.24-2.97-6.24-7.38c-0.03-4.83,3-7.77,6.51-7.77c2.25,0,3.72,1.05,4.379,2.19h0.06v-8.67H398.584z M395.974,172.625
		c0-0.33-0.03-0.78-0.12-1.11c-0.39-1.65-1.83-3.03-3.81-3.03c-2.73,0-4.35,2.4-4.35,5.58c0,2.94,1.47,5.37,4.29,5.37
		c1.77,0,3.39-1.2,3.87-3.15c0.09-0.36,0.12-0.72,0.12-1.14V172.625z"/>
	<path d="M404.464,174.455c0.06,3.57,2.31,5.04,4.98,5.04c1.89,0,3.06-0.33,4.02-0.75l0.48,1.89c-0.93,0.42-2.55,0.93-4.86,0.93
		c-4.47,0-7.14-2.97-7.14-7.35s2.58-7.8,6.81-7.8c4.77,0,6,4.14,6,6.81c0,0.54-0.03,0.93-0.09,1.23H404.464z M412.204,172.565
		c0.03-1.65-0.69-4.26-3.66-4.26c-2.7,0-3.84,2.43-4.05,4.26H412.204z"/>
	<path d="M418.024,171.245c0-1.71-0.03-3.18-0.12-4.53h2.31l0.12,2.88h0.09c0.66-1.95,2.28-3.18,4.05-3.18
		c0.27,0,0.48,0.03,0.72,0.06v2.49c-0.27-0.06-0.54-0.06-0.9-0.06c-1.86,0-3.18,1.38-3.54,3.36c-0.06,0.36-0.09,0.81-0.09,1.23v7.74
		h-2.64V171.245z"/>
</g>
<g>
	<path d="M357.665,13.828c1.14-0.271,2.97-0.45,4.77-0.45c2.61,0,4.29,0.45,5.52,1.47c1.05,0.78,1.71,1.98,1.71,3.57
		c0,1.979-1.32,3.689-3.42,4.439v0.09c1.92,0.45,4.17,2.04,4.17,5.04c0,1.74-0.69,3.09-1.74,4.05c-1.38,1.29-3.66,1.89-6.96,1.89
		c-1.8,0-3.18-0.12-4.05-0.239V13.828z M360.275,22.107h2.37c2.73,0,4.35-1.47,4.35-3.42c0-2.34-1.77-3.3-4.41-3.3
		c-1.2,0-1.89,0.09-2.31,0.18V22.107z M360.275,31.767c0.54,0.09,1.26,0.119,2.19,0.119c2.7,0,5.19-0.989,5.19-3.93
		c0-2.729-2.37-3.899-5.22-3.899h-2.16V31.767z"/>
	<path d="M375.425,26.967c0.06,3.569,2.31,5.039,4.98,5.039c1.89,0,3.06-0.33,4.02-0.75l0.48,1.891c-0.93,0.42-2.55,0.93-4.86,0.93
		c-4.47,0-7.14-2.97-7.14-7.35s2.58-7.8,6.81-7.8c4.77,0,6,4.14,6,6.81c0,0.54-0.03,0.93-0.09,1.23H375.425z M383.165,25.077
		c0.03-1.649-0.69-4.26-3.66-4.26c-2.7,0-3.84,2.43-4.05,4.26H383.165z"/>
	<path d="M388.625,31.077c0.81,0.48,2.19,1.02,3.51,1.02c1.89,0,2.79-0.93,2.79-2.159c0-1.26-0.75-1.92-2.67-2.641
		c-2.64-0.96-3.87-2.369-3.87-4.109c0-2.34,1.92-4.26,5.01-4.26c1.47,0,2.76,0.39,3.54,0.9l-0.63,1.92
		c-0.57-0.36-1.62-0.87-2.97-0.87c-1.56,0-2.4,0.899-2.4,1.979c0,1.2,0.84,1.74,2.73,2.49c2.49,0.93,3.81,2.189,3.81,4.35
		c0,2.58-2.01,4.38-5.4,4.38c-1.59,0-3.06-0.42-4.08-1.021L388.625,31.077z"/>
	<path d="M411.214,33.237c-0.69,0.33-2.22,0.84-4.17,0.84c-4.38,0-7.229-2.97-7.229-7.41c0-4.47,3.06-7.739,7.799-7.739
		c1.56,0,2.94,0.39,3.66,0.78l-0.6,2.01c-0.63-0.33-1.62-0.69-3.06-0.69c-3.33,0-5.129,2.49-5.129,5.49c0,3.359,2.16,5.43,5.04,5.43
		c1.5,0,2.49-0.36,3.24-0.69L411.214,33.237z"/>
	<path d="M414.305,12.448h2.64v9.089h0.06c0.42-0.75,1.08-1.439,1.89-1.89c0.78-0.45,1.71-0.72,2.7-0.72c1.95,0,5.07,1.2,5.07,6.18
		v8.64h-2.64v-8.34c0-2.34-0.87-4.29-3.36-4.29c-1.71,0-3.03,1.2-3.54,2.61c-0.15,0.39-0.18,0.78-0.18,1.26v8.76h-2.64V12.448z"/>
	<path d="M430.954,12.448h2.64v21.299h-2.64V12.448z"/>
	<path d="M439.504,26.967c0.06,3.569,2.31,5.039,4.98,5.039c1.89,0,3.06-0.33,4.02-0.75l0.48,1.891c-0.93,0.42-2.55,0.93-4.86,0.93
		c-4.47,0-7.14-2.97-7.14-7.35s2.58-7.8,6.81-7.8c4.77,0,6,4.14,6,6.81c0,0.54-0.03,0.93-0.09,1.23H439.504z M447.244,25.077
		c0.03-1.649-0.69-4.26-3.66-4.26c-2.7,0-3.84,2.43-4.05,4.26H447.244z"/>
	<path d="M465.213,29.756c0,1.53,0.03,2.851,0.12,3.99h-2.34l-0.15-2.37h-0.06c-0.66,1.17-2.22,2.7-4.8,2.7
		c-2.28,0-5.01-1.29-5.01-6.359v-8.49h2.64v8.01c0,2.76,0.87,4.649,3.24,4.649c1.77,0,3-1.229,3.48-2.43
		c0.15-0.359,0.24-0.84,0.24-1.35v-8.88h2.64V29.756z"/>
	<path d="M469.594,23.157c0-1.529-0.03-2.729-0.12-3.93h2.34l0.15,2.4h0.06c0.72-1.351,2.4-2.7,4.8-2.7c2.01,0,5.13,1.2,5.13,6.18
		v8.64h-2.64v-8.37c0-2.34-0.87-4.289-3.36-4.289c-1.71,0-3.06,1.229-3.54,2.699c-0.12,0.33-0.18,0.78-0.18,1.23v8.729h-2.64V23.157
		z"/>
	<path d="M489.184,15.147c0,0.9-0.63,1.62-1.68,1.62c-0.96,0-1.59-0.72-1.59-1.62c0-0.899,0.66-1.649,1.65-1.649
		C488.523,13.498,489.184,14.217,489.184,15.147z M486.244,33.747v-14.52h2.64v14.52H486.244z"/>
	<path d="M505.683,31.617c0,3.359-0.69,5.37-2.07,6.66c-1.44,1.289-3.48,1.739-5.31,1.739c-1.74,0-3.66-0.42-4.83-1.2l0.66-2.039
		c0.96,0.63,2.459,1.17,4.26,1.17c2.7,0,4.68-1.41,4.68-5.101v-1.59h-0.06c-0.78,1.351-2.37,2.431-4.62,2.431
		c-3.6,0-6.18-3.061-6.18-7.08c0-4.92,3.209-7.68,6.569-7.68c2.52,0,3.87,1.29,4.53,2.49h0.06l0.09-2.19h2.34
		c-0.09,1.021-0.12,2.22-0.12,3.96V31.617z M503.043,24.957c0-0.449-0.03-0.84-0.15-1.17c-0.48-1.56-1.74-2.819-3.689-2.819
		c-2.52,0-4.32,2.13-4.32,5.489c0,2.851,1.47,5.22,4.29,5.22c1.65,0,3.12-1.02,3.66-2.699c0.15-0.45,0.21-0.96,0.21-1.41V24.957z"/>
	<path d="M522.182,29.756c0,1.53,0.03,2.851,0.12,3.99h-2.34l-0.15-2.37h-0.06c-0.66,1.17-2.22,2.7-4.8,2.7
		c-2.28,0-5.01-1.29-5.01-6.359v-8.49h2.64v8.01c0,2.76,0.87,4.649,3.24,4.649c1.77,0,3-1.229,3.48-2.43
		c0.15-0.359,0.24-0.84,0.24-1.35v-8.88h2.64V29.756z"/>
	<path d="M526.563,23.157c0-1.529-0.03-2.729-0.12-3.93h2.34l0.15,2.4h0.06c0.72-1.351,2.4-2.7,4.8-2.7c2.01,0,5.13,1.2,5.13,6.18
		v8.64h-2.64v-8.37c0-2.34-0.87-4.289-3.36-4.289c-1.71,0-3.06,1.229-3.54,2.699c-0.12,0.33-0.18,0.78-0.18,1.23v8.729h-2.64V23.157
		z"/>
	<path d="M555.632,31.617c0,3.359-0.69,5.37-2.07,6.66c-1.44,1.289-3.48,1.739-5.31,1.739c-1.74,0-3.66-0.42-4.83-1.2l0.66-2.039
		c0.96,0.63,2.459,1.17,4.26,1.17c2.7,0,4.68-1.41,4.68-5.101v-1.59h-0.06c-0.78,1.351-2.37,2.431-4.62,2.431
		c-3.6,0-6.18-3.061-6.18-7.08c0-4.92,3.209-7.68,6.569-7.68c2.52,0,3.87,1.29,4.53,2.49h0.06l0.09-2.19h2.34
		c-0.09,1.021-0.12,2.22-0.12,3.96V31.617z M552.992,24.957c0-0.449-0.03-0.84-0.15-1.17c-0.48-1.56-1.74-2.819-3.689-2.819
		c-2.52,0-4.32,2.13-4.32,5.489c0,2.851,1.47,5.22,4.29,5.22c1.65,0,3.12-1.02,3.66-2.699c0.15-0.45,0.21-0.96,0.21-1.41V24.957z"/>
	<path d="M559.623,31.077c0.81,0.48,2.19,1.02,3.51,1.02c1.89,0,2.79-0.93,2.79-2.159c0-1.26-0.75-1.92-2.67-2.641
		c-2.64-0.96-3.87-2.369-3.87-4.109c0-2.34,1.92-4.26,5.01-4.26c1.47,0,2.76,0.39,3.54,0.9l-0.63,1.92
		c-0.57-0.36-1.62-0.87-2.97-0.87c-1.56,0-2.4,0.899-2.4,1.979c0,1.2,0.84,1.74,2.73,2.49c2.49,0.93,3.81,2.189,3.81,4.35
		c0,2.58-2.01,4.38-5.4,4.38c-1.59,0-3.06-0.42-4.08-1.021L559.623,31.077z"/>
	<path d="M571.502,31.077c0.81,0.48,2.19,1.02,3.51,1.02c1.89,0,2.79-0.93,2.79-2.159c0-1.26-0.75-1.92-2.67-2.641
		c-2.64-0.96-3.87-2.369-3.87-4.109c0-2.34,1.92-4.26,5.01-4.26c1.47,0,2.76,0.39,3.54,0.9l-0.63,1.92
		c-0.57-0.36-1.62-0.87-2.97-0.87c-1.56,0-2.4,0.899-2.4,1.979c0,1.2,0.84,1.74,2.73,2.49c2.49,0.93,3.81,2.189,3.81,4.35
		c0,2.58-2.01,4.38-5.4,4.38c-1.59,0-3.06-0.42-4.08-1.021L571.502,31.077z"/>
	<path d="M583.742,23.967c0-1.86-0.06-3.36-0.12-4.74h2.34l0.15,2.49h0.06c1.05-1.771,2.79-2.79,5.16-2.79
		c3.54,0,6.18,2.97,6.18,7.35c0,5.22-3.21,7.8-6.63,7.8c-1.92,0-3.6-0.84-4.47-2.28h-0.06v7.89h-2.61V23.967z M586.352,27.836
		c0,0.391,0.03,0.75,0.12,1.08c0.48,1.83,2.07,3.09,3.959,3.09c2.79,0,4.41-2.279,4.41-5.609c0-2.88-1.53-5.37-4.32-5.37
		c-1.8,0-3.51,1.26-3.99,3.24c-0.09,0.33-0.18,0.72-0.18,1.05V27.836z"/>
	<path d="M611.011,30.267c0,1.26,0.06,2.489,0.21,3.479h-2.37l-0.21-1.83h-0.09c-0.81,1.14-2.37,2.16-4.44,2.16
		c-2.94,0-4.44-2.07-4.44-4.17c0-3.51,3.12-5.43,8.73-5.399v-0.301c0-1.17-0.33-3.359-3.3-3.329c-1.38,0-2.79,0.39-3.81,1.08
		l-0.6-1.771c1.2-0.75,2.97-1.26,4.8-1.26c4.44,0,5.52,3.03,5.52,5.91V30.267z M608.461,26.336c-2.88-0.06-6.149,0.45-6.149,3.271
		c0,1.74,1.14,2.52,2.46,2.52c1.92,0,3.15-1.2,3.57-2.43c0.09-0.3,0.12-0.6,0.12-0.84V26.336z"/>
	<path d="M615.271,23.157c0-1.529-0.03-2.729-0.12-3.93h2.34l0.15,2.4h0.06c0.72-1.351,2.4-2.7,4.8-2.7c2.01,0,5.129,1.2,5.129,6.18
		v8.64h-2.639v-8.37c0-2.34-0.871-4.289-3.36-4.289c-1.71,0-3.06,1.229-3.54,2.699c-0.12,0.33-0.18,0.78-0.18,1.23v8.729h-2.64
		V23.157z"/>
	<path d="M631.921,23.157c0-1.529-0.029-2.729-0.12-3.93h2.34l0.149,2.4h0.061c0.721-1.351,2.4-2.7,4.8-2.7
		c2.011,0,5.13,1.2,5.13,6.18v8.64h-2.64v-8.37c0-2.34-0.87-4.289-3.36-4.289c-1.709,0-3.06,1.229-3.539,2.699
		c-0.121,0.33-0.181,0.78-0.181,1.23v8.729h-2.64V23.157z"/>
	<path d="M660.72,29.756c0,1.53,0.03,2.851,0.12,3.99h-2.34l-0.149-2.37h-0.061c-0.66,1.17-2.221,2.7-4.8,2.7
		c-2.28,0-5.01-1.29-5.01-6.359v-8.49h2.64v8.01c0,2.76,0.87,4.649,3.24,4.649c1.77,0,3-1.229,3.479-2.43
		c0.149-0.359,0.24-0.84,0.24-1.35v-8.88h2.64V29.756z"/>
	<path d="M665.101,23.157c0-1.529-0.029-2.729-0.12-3.93h2.34l0.149,2.4h0.061c0.721-1.351,2.4-2.7,4.8-2.7
		c2.011,0,5.13,1.2,5.13,6.18v8.64h-2.64v-8.37c0-2.34-0.87-4.289-3.36-4.289c-1.709,0-3.06,1.229-3.539,2.699
		c-0.121,0.33-0.181,0.78-0.181,1.23v8.729h-2.64V23.157z"/>
	<path d="M694.169,31.617c0,3.359-0.689,5.37-2.069,6.66c-1.44,1.289-3.479,1.739-5.31,1.739c-1.74,0-3.66-0.42-4.83-1.2l0.66-2.039
		c0.96,0.63,2.459,1.17,4.26,1.17c2.699,0,4.68-1.41,4.68-5.101v-1.59H691.5c-0.779,1.351-2.369,2.431-4.619,2.431
		c-3.6,0-6.18-3.061-6.18-7.08c0-4.92,3.209-7.68,6.569-7.68c2.521,0,3.87,1.29,4.53,2.49h0.06l0.091-2.19h2.34
		c-0.09,1.021-0.121,2.22-0.121,3.96V31.617z M691.531,24.957c0-0.449-0.031-0.84-0.15-1.17c-0.48-1.56-1.74-2.819-3.689-2.819
		c-2.521,0-4.32,2.13-4.32,5.489c0,2.851,1.47,5.22,4.289,5.22c1.65,0,3.121-1.02,3.66-2.699c0.15-0.45,0.211-0.96,0.211-1.41
		V24.957z"/>
	<path d="M709.919,13.528l-2.279,11.969c-0.15,0.84-0.24,1.71-0.24,2.55c0,2.58,1.5,3.9,3.75,3.9c2.76,0,4.77-1.86,5.64-6.42
		l2.31-11.999h2.49l-2.311,12.089c-1.17,6.03-4.17,8.46-8.459,8.46c-3.33,0-5.91-1.8-5.91-5.97c0-0.87,0.09-1.86,0.27-2.79
		l2.25-11.789H709.919z"/>
	<path d="M440.93,42.927c-2.19,2.97-3.75,6.84-3.75,12.3c0,5.34,1.65,9.149,3.75,12.149h-2.04c-1.89-2.49-3.93-6.33-3.93-12.18
		c0.03-5.88,2.04-9.749,3.93-12.27H440.93z"/>
	<path d="M454.1,63.237c-0.69,0.33-2.22,0.84-4.17,0.84c-4.38,0-7.229-2.97-7.229-7.41c0-4.47,3.06-7.739,7.799-7.739
		c1.56,0,2.94,0.39,3.66,0.78l-0.6,2.01c-0.63-0.33-1.62-0.69-3.06-0.69c-3.33,0-5.129,2.49-5.129,5.49c0,3.359,2.16,5.43,5.04,5.43
		c1.5,0,2.49-0.36,3.24-0.69L454.1,63.237z"/>
	<path d="M467.39,60.267c0,1.26,0.06,2.489,0.21,3.479h-2.37l-0.21-1.83h-0.09c-0.81,1.14-2.37,2.16-4.44,2.16
		c-2.94,0-4.44-2.07-4.44-4.17c0-3.51,3.12-5.43,8.73-5.399v-0.301c0-1.17-0.33-3.359-3.3-3.329c-1.38,0-2.79,0.39-3.81,1.08
		l-0.6-1.771c1.2-0.75,2.97-1.26,4.8-1.26c4.44,0,5.52,3.03,5.52,5.91V60.267z M464.84,56.336c-2.88-0.06-6.15,0.45-6.15,3.271
		c0,1.74,1.14,2.52,2.46,2.52c1.92,0,3.15-1.2,3.57-2.43c0.09-0.3,0.12-0.6,0.12-0.84V56.336z"/>
	<path d="M471.02,62.187c0-1.08,0.75-1.891,1.8-1.891s1.77,0.78,1.77,1.891c0,1.08-0.72,1.89-1.83,1.89
		C471.74,64.077,471.02,63.267,471.02,62.187z"/>
	<path d="M489.108,46.708h-0.06l-3.39,1.83l-0.51-2.011l4.26-2.279h2.25v19.499h-2.55V46.708z"/>
	<path d="M502.218,55.887h0.06c0.36-0.511,0.84-1.141,1.26-1.65l4.29-5.01h3.15l-5.58,5.97l6.39,8.55h-3.24l-4.979-6.96l-1.35,1.5
		v5.46h-2.61V42.448h2.61V55.887z"/>
	<path d="M518.208,63.747l-6.63-20.219h2.85l3.15,9.959c0.84,2.73,1.59,5.19,2.16,7.56h0.06c0.57-2.34,1.38-4.89,2.31-7.529
		l3.42-9.989h2.79l-7.229,20.219H518.208z"/>
	<path d="M542.897,54.687v1.92h-7.41v-1.92H542.897z"/>
	<path d="M557.237,46.708h-0.06l-3.39,1.83l-0.51-2.011l4.26-2.279h2.25v19.499h-2.55V46.708z"/>
	<path d="M578.536,46.467h-7.439l-0.75,5.01c0.45-0.06,0.87-0.09,1.59-0.09c1.53,0,3,0.3,4.2,1.05c1.53,0.84,2.79,2.55,2.79,4.979
		c0,3.811-3.03,6.66-7.26,6.66c-2.13,0-3.9-0.6-4.86-1.2l0.66-2.01c0.81,0.48,2.4,1.08,4.2,1.08c2.46,0,4.62-1.62,4.59-4.229
		c0-2.521-1.71-4.29-5.58-4.29c-1.14,0-2.01,0.09-2.73,0.18l1.26-9.359h9.33V46.467z"/>
	<path d="M595.276,53.787c0,6.63-2.49,10.29-6.78,10.29c-3.81,0-6.419-3.57-6.479-10.02c0-6.57,2.85-10.14,6.81-10.14
		C592.906,43.917,595.276,47.578,595.276,53.787z M584.687,54.087c0,5.069,1.56,7.949,3.959,7.949c2.67,0,3.96-3.149,3.96-8.13
		c0-4.8-1.2-7.949-3.96-7.949C586.366,45.958,584.687,48.777,584.687,54.087z"/>
	<path d="M607.486,55.887h0.06c0.36-0.511,0.84-1.141,1.26-1.65l4.29-5.01h3.15l-5.58,5.97l6.39,8.55h-3.24l-4.979-6.96l-1.35,1.5
		v5.46h-2.61V42.448h2.61V55.887z"/>
	<path d="M623.476,63.747l-6.63-20.219h2.85l3.149,9.959c0.84,2.73,1.59,5.19,2.16,7.56h0.061c0.57-2.34,1.379-4.89,2.31-7.529
		l3.42-9.989h2.79l-7.23,20.219H623.476z"/>
	<path d="M635.746,67.376c2.1-2.97,3.75-6.84,3.75-12.239c0-5.4-1.62-9.21-3.75-12.21h2.039c1.891,2.46,3.931,6.33,3.931,12.21
		c-0.03,5.88-2.04,9.72-3.931,12.239H635.746z"/>
</g>
<g>
	<path d="M56.745,421.97c-1.17,0.45-3.51,1.11-6.24,1.11c-3.06,0-5.58-0.78-7.56-2.67c-1.74-1.68-2.82-4.38-2.82-7.53
		c0-6.029,4.17-10.439,10.949-10.439c2.34,0,4.2,0.51,5.07,0.931l-0.66,2.13c-1.08-0.51-2.43-0.87-4.47-0.87
		c-4.92,0-8.13,3.06-8.13,8.13c0,5.129,3.06,8.16,7.8,8.16c1.71,0,2.88-0.24,3.479-0.541v-6.029h-4.08v-2.1h6.66V421.97z"/>
	<path d="M60.616,401.571h2.64v21.299h-2.64V401.571z"/>
	<path d="M79.845,418.88c0,1.53,0.03,2.85,0.12,3.99h-2.34l-0.15-2.37h-0.06c-0.66,1.171-2.22,2.7-4.8,2.7
		c-2.28,0-5.01-1.29-5.01-6.359v-8.49h2.64v8.01c0,2.76,0.87,4.65,3.24,4.65c1.77,0,3-1.23,3.48-2.431
		c0.15-0.36,0.24-0.84,0.24-1.35v-8.88h2.64V418.88z M69.585,404.241c0-0.84,0.66-1.53,1.53-1.53c0.81,0,1.44,0.66,1.44,1.53
		c0,0.81-0.6,1.529-1.5,1.529C70.215,405.771,69.585,405.051,69.585,404.241z M75.135,404.241c0-0.84,0.66-1.53,1.5-1.53
		c0.84,0,1.47,0.66,1.47,1.53c0,0.81-0.6,1.529-1.5,1.529C75.735,405.771,75.135,405.051,75.135,404.241z"/>
	<path d="M84.225,401.571h2.64v9.09h0.06c0.42-0.75,1.08-1.44,1.89-1.891c0.78-0.449,1.71-0.72,2.7-0.72c1.95,0,5.07,1.2,5.07,6.18
		v8.64h-2.64v-8.34c0-2.34-0.87-4.289-3.36-4.289c-1.71,0-3.03,1.199-3.54,2.609c-0.15,0.391-0.18,0.779-0.18,1.26v8.76h-2.64
		V401.571z"/>
	<path d="M103.485,415.011h0.06c0.36-0.51,0.84-1.141,1.26-1.65l4.29-5.01h3.15l-5.58,5.97l6.39,8.55h-3.24l-4.979-6.959
		l-1.35,1.499v5.46h-2.61v-21.299h2.61V415.011z"/>
	<path d="M125.685,419.39c0,1.261,0.06,2.49,0.21,3.48h-2.37l-0.21-1.83h-0.09c-0.81,1.141-2.37,2.16-4.44,2.16
		c-2.94,0-4.44-2.07-4.44-4.17c0-3.51,3.12-5.43,8.73-5.4v-0.299c0-1.17-0.33-3.36-3.3-3.33c-1.38,0-2.79,0.39-3.81,1.08l-0.6-1.771
		c1.2-0.75,2.97-1.26,4.8-1.26c4.44,0,5.52,3.03,5.52,5.909V419.39z M123.135,415.46c-2.88-0.06-6.15,0.451-6.15,3.271
		c0,1.739,1.14,2.52,2.46,2.52c1.92,0,3.15-1.2,3.57-2.43c0.09-0.3,0.12-0.601,0.12-0.84V415.46z"/>
	<path d="M133.004,404.87v3.48h3.78v2.01h-3.78v7.83c0,1.8,0.51,2.82,1.98,2.82c0.72,0,1.14-0.061,1.53-0.181l0.12,2.011
		c-0.51,0.18-1.32,0.359-2.34,0.359c-1.23,0-2.22-0.42-2.85-1.109c-0.72-0.811-1.02-2.101-1.02-3.811v-7.92h-2.25v-2.01h2.25v-2.699
		L133.004,404.87z"/>
	<path d="M139.754,401.571h2.64v9.09h0.06c0.42-0.75,1.08-1.44,1.89-1.891c0.78-0.449,1.71-0.72,2.7-0.72c1.95,0,5.07,1.2,5.07,6.18
		v8.64h-2.64v-8.34c0-2.34-0.87-4.289-3.36-4.289c-1.71,0-3.03,1.199-3.54,2.609c-0.15,0.391-0.18,0.779-0.18,1.26v8.76h-2.64
		V401.571z"/>
	<path d="M169.544,415.49c0,5.37-3.75,7.71-7.23,7.71c-3.9,0-6.959-2.88-6.959-7.47c0-4.83,3.209-7.68,7.2-7.68
		C166.724,408.051,169.544,411.081,169.544,415.49z M158.054,415.641c0,3.18,1.8,5.579,4.38,5.579c2.52,0,4.41-2.369,4.41-5.639
		c0-2.461-1.23-5.551-4.35-5.551C159.404,410.03,158.054,412.911,158.054,415.641z"/>
	<path d="M185.383,401.571v17.549c0,1.29,0.06,2.76,0.12,3.75h-2.34l-0.12-2.52h-0.09c-0.78,1.619-2.52,2.85-4.89,2.85
		c-3.51,0-6.24-2.971-6.24-7.38c-0.03-4.829,3-7.77,6.51-7.77c2.25,0,3.72,1.05,4.379,2.19h0.06v-8.67H185.383z M182.773,414.261
		c0-0.33-0.03-0.78-0.12-1.11c-0.39-1.649-1.83-3.03-3.81-3.03c-2.73,0-4.35,2.4-4.35,5.58c0,2.939,1.47,5.37,4.29,5.37
		c1.77,0,3.39-1.2,3.87-3.149c0.09-0.36,0.12-0.721,0.12-1.141V414.261z"/>
	<path d="M191.264,416.091c0.06,3.569,2.31,5.039,4.98,5.039c1.89,0,3.06-0.33,4.02-0.75l0.48,1.891c-0.93,0.42-2.55,0.93-4.86,0.93
		c-4.47,0-7.14-2.971-7.14-7.35c0-4.38,2.58-7.8,6.81-7.8c4.77,0,6,4.14,6,6.81c0,0.54-0.03,0.93-0.09,1.23H191.264z M199.003,414.2
		c0.03-1.65-0.69-4.26-3.66-4.26c-2.7,0-3.84,2.43-4.05,4.26H199.003z"/>
</g>
<g>
	<path d="M44.437,231.688v8.46h9.78v-8.46h2.64v20.219h-2.64v-9.479h-9.78v9.479h-2.64v-20.219H44.437z"/>
	<path d="M62.767,245.127c0.06,3.57,2.31,5.04,4.98,5.04c1.89,0,3.06-0.33,4.02-0.75l0.48,1.89c-0.93,0.42-2.55,0.93-4.86,0.93
		c-4.47,0-7.14-2.97-7.14-7.35c0-4.38,2.58-7.8,6.81-7.8c4.77,0,6,4.14,6,6.81c0,0.54-0.03,0.93-0.09,1.23H62.767z M70.506,243.238
		c0.03-1.65-0.69-4.26-3.66-4.26c-2.7,0-3.84,2.43-4.05,4.26H70.506z"/>
	<path d="M79.267,233.308c0,0.9-0.63,1.62-1.68,1.62c-0.96,0-1.59-0.72-1.59-1.62s0.66-1.65,1.65-1.65
		C78.606,231.658,79.267,232.378,79.267,233.308z M76.327,251.907v-14.52h2.64v14.52H76.327z"/>
	<path d="M81.697,250.377l6.54-8.55c0.66-0.81,1.26-1.5,1.92-2.28v-0.06h-7.859v-2.1h11.04v1.65l-6.48,8.43
		c-0.63,0.81-1.2,1.56-1.86,2.28v0.06h8.459v2.1H81.697V250.377z"/>
	<path d="M102.306,242.848v1.92h-7.41v-1.92H102.306z"/>
	<path d="M9.878,279.237c0.81,0.48,2.19,1.02,3.51,1.02c1.89,0,2.79-0.93,2.79-2.16c0-1.26-0.75-1.92-2.67-2.64
		c-2.64-0.96-3.87-2.37-3.87-4.11c0-2.34,1.92-4.26,5.01-4.26c1.47,0,2.76,0.39,3.54,0.9l-0.63,1.92c-0.57-0.36-1.62-0.87-2.97-0.87
		c-1.56,0-2.4,0.9-2.4,1.98c0,1.2,0.84,1.74,2.73,2.49c2.49,0.93,3.81,2.19,3.81,4.35c0,2.58-2.01,4.38-5.4,4.38
		c-1.59,0-3.06-0.42-4.08-1.02L9.878,279.237z"/>
	<path d="M22.118,272.127c0-1.86-0.06-3.36-0.12-4.74h2.34l0.15,2.49h0.06c1.05-1.77,2.79-2.79,5.16-2.79
		c3.54,0,6.18,2.97,6.18,7.35c0,5.22-3.21,7.8-6.63,7.8c-1.92,0-3.6-0.84-4.47-2.28h-0.06v7.89h-2.61V272.127z M24.728,275.998
		c0,0.39,0.03,0.75,0.12,1.08c0.48,1.83,2.07,3.09,3.96,3.09c2.79,0,4.41-2.28,4.41-5.61c0-2.88-1.53-5.37-4.32-5.37
		c-1.8,0-3.51,1.26-3.99,3.24c-0.09,0.33-0.18,0.72-0.18,1.05V275.998z"/>
	<path d="M49.387,278.427c0,1.26,0.06,2.49,0.21,3.48h-2.37l-0.21-1.83h-0.09c-0.81,1.14-2.37,2.16-4.44,2.16
		c-2.94,0-4.44-2.07-4.44-4.17c0-3.51,3.12-5.43,8.73-5.4v-0.3c0-1.17-0.33-3.36-3.3-3.33c-1.38,0-2.79,0.39-3.81,1.08l-0.6-1.77
		c1.2-0.75,2.97-1.26,4.8-1.26c4.44,0,5.52,3.03,5.52,5.91V278.427z M46.837,274.498c-2.88-0.06-6.15,0.45-6.15,3.27
		c0,1.74,1.14,2.52,2.46,2.52c1.92,0,3.15-1.2,3.57-2.43c0.09-0.3,0.12-0.6,0.12-0.84V274.498z"/>
	<path d="M53.647,271.318c0-1.53-0.03-2.73-0.12-3.93h2.34l0.15,2.4h0.06c0.72-1.35,2.4-2.7,4.8-2.7c2.01,0,5.13,1.2,5.13,6.18v8.64
		h-2.64v-8.37c0-2.34-0.87-4.29-3.36-4.29c-1.71,0-3.06,1.23-3.54,2.7c-0.12,0.33-0.18,0.78-0.18,1.23v8.729h-2.64V271.318z"/>
	<path d="M70.297,271.318c0-1.53-0.03-2.73-0.12-3.93h2.34l0.15,2.4h0.06c0.72-1.35,2.4-2.7,4.8-2.7c2.01,0,5.13,1.2,5.13,6.18v8.64
		h-2.64v-8.37c0-2.34-0.87-4.29-3.36-4.29c-1.71,0-3.06,1.23-3.54,2.7c-0.12,0.33-0.18,0.78-0.18,1.23v8.729h-2.64V271.318z"/>
	<path d="M99.096,277.917c0,1.53,0.03,2.85,0.12,3.99h-2.34l-0.15-2.37h-0.06c-0.66,1.17-2.22,2.7-4.8,2.7
		c-2.28,0-5.01-1.29-5.01-6.36v-8.49h2.64v8.01c0,2.76,0.87,4.65,3.24,4.65c1.77,0,3-1.23,3.48-2.43c0.15-0.36,0.24-0.84,0.24-1.35
		v-8.88h2.64V277.917z"/>
	<path d="M103.477,271.318c0-1.53-0.03-2.73-0.12-3.93h2.34l0.15,2.4h0.06c0.72-1.35,2.4-2.7,4.8-2.7c2.01,0,5.13,1.2,5.13,6.18
		v8.64h-2.64v-8.37c0-2.34-0.87-4.29-3.36-4.29c-1.71,0-3.06,1.23-3.54,2.7c-0.12,0.33-0.18,0.78-0.18,1.23v8.729h-2.64V271.318z"/>
	<path d="M132.546,279.777c0,3.36-0.69,5.37-2.07,6.66c-1.44,1.29-3.48,1.74-5.31,1.74c-1.74,0-3.66-0.42-4.83-1.2l0.66-2.04
		c0.96,0.63,2.459,1.17,4.26,1.17c2.7,0,4.68-1.41,4.68-5.1v-1.59h-0.06c-0.78,1.35-2.37,2.43-4.62,2.43c-3.6,0-6.18-3.06-6.18-7.08
		c0-4.92,3.209-7.68,6.569-7.68c2.52,0,3.87,1.29,4.53,2.49h0.06l0.09-2.19h2.34c-0.09,1.02-0.12,2.22-0.12,3.96V279.777z
		 M129.906,273.118c0-0.45-0.03-0.84-0.15-1.17c-0.48-1.56-1.74-2.82-3.689-2.82c-2.52,0-4.32,2.13-4.32,5.49
		c0,2.85,1.47,5.22,4.29,5.22c1.65,0,3.12-1.02,3.66-2.7c0.15-0.45,0.21-0.96,0.21-1.41V273.118z"/>
</g>
<g>
	<path d="M614.803,199.615l-2.1,6.36h-2.7l6.9-20.219h3.12l6.9,20.219h-2.791l-2.159-6.36H614.803z M621.462,197.575l-2.009-5.82
		c-0.45-1.32-0.75-2.52-1.05-3.69h-0.06c-0.3,1.17-0.6,2.43-1.02,3.66l-1.98,5.85H621.462z"/>
	<path d="M629.714,195.385c0-1.53-0.03-2.73-0.121-3.93h2.34l0.15,2.4h0.061c0.72-1.35,2.399-2.7,4.799-2.7
		c2.011,0,5.131,1.2,5.131,6.18v8.64h-2.641v-8.37c0-2.34-0.869-4.29-3.359-4.29c-1.71,0-3.061,1.23-3.54,2.7
		c-0.12,0.33-0.181,0.78-0.181,1.23v8.729h-2.639V195.385z"/>
	<path d="M659.503,198.595c0,5.37-3.75,7.71-7.23,7.71c-3.9,0-6.959-2.88-6.959-7.47c0-4.83,3.209-7.68,7.199-7.68
		C656.683,191.155,659.503,194.185,659.503,198.595z M648.013,198.745c0,3.18,1.8,5.58,4.38,5.58c2.521,0,4.409-2.37,4.409-5.64
		c0-2.46-1.229-5.55-4.35-5.55C649.363,193.135,648.013,196.015,648.013,198.745z"/>
	<path d="M675.343,184.675v17.549c0,1.29,0.06,2.76,0.119,3.75h-2.34l-0.119-2.52h-0.09c-0.78,1.62-2.521,2.85-4.891,2.85
		c-3.51,0-6.239-2.97-6.239-7.38c-0.03-4.83,2.999-7.77,6.51-7.77c2.249,0,3.72,1.05,4.38,2.19h0.06v-8.67H675.343z
		 M672.733,197.365c0-0.33-0.03-0.78-0.12-1.11c-0.39-1.65-1.83-3.03-3.81-3.03c-2.729,0-4.35,2.4-4.35,5.58
		c0,2.94,1.47,5.37,4.29,5.37c1.77,0,3.39-1.2,3.869-3.15c0.09-0.36,0.12-0.72,0.12-1.14V197.365z"/>
	<path d="M681.222,199.195c0.061,3.57,2.311,5.04,4.98,5.04c1.891,0,3.061-0.33,4.02-0.75l0.48,1.89
		c-0.93,0.42-2.551,0.93-4.859,0.93c-4.471,0-7.141-2.97-7.141-7.35s2.58-7.8,6.811-7.8c4.77,0,5.999,4.14,5.999,6.81
		c0,0.54-0.03,0.93-0.09,1.23H681.222z M688.962,197.305c0.03-1.65-0.689-4.26-3.66-4.26c-2.699,0-3.84,2.43-4.049,4.26H688.962z"/>
</g>
<g>
</g>
<g>
	<path d="M427.106,223.299h-7.83v7.29h8.76v2.19h-11.399v-20.219h10.949v2.19h-8.31v6.39h7.83V223.299z"/>
	<path d="M431.336,211.479h2.64v21.299h-2.64V211.479z"/>
	<path d="M439.885,225.999c0.061,3.57,2.311,5.04,4.979,5.04c1.891,0,3.061-0.33,4.021-0.75l0.479,1.89
		c-0.93,0.42-2.55,0.93-4.859,0.93c-4.47,0-7.14-2.97-7.14-7.35s2.58-7.8,6.81-7.8c4.77,0,6,4.14,6,6.81c0,0.54-0.03,0.93-0.09,1.23
		H439.885z M447.625,224.109c0.029-1.65-0.69-4.26-3.66-4.26c-2.7,0-3.84,2.43-4.05,4.26H447.625z"/>
	<path d="M456.055,224.918h0.06c0.36-0.51,0.841-1.14,1.261-1.65l4.289-5.01h3.15l-5.58,5.97l6.39,8.55h-3.239l-4.98-6.96l-1.35,1.5
		v5.46h-2.61v-21.299h2.61V224.918z"/>
	<path d="M470.696,214.779v3.479h3.779v2.01h-3.779v7.83c0,1.8,0.51,2.82,1.979,2.82c0.72,0,1.14-0.06,1.53-0.18l0.12,2.01
		c-0.511,0.18-1.32,0.36-2.34,0.36c-1.23,0-2.221-0.42-2.851-1.11c-0.72-0.81-1.02-2.1-1.02-3.81v-7.919h-2.25v-2.01h2.25v-2.7
		L470.696,214.779z"/>
	<path d="M477.445,222.789c0-1.71-0.029-3.18-0.119-4.53h2.31l0.12,2.88h0.09c0.66-1.95,2.28-3.18,4.05-3.18
		c0.27,0,0.479,0.03,0.72,0.06v2.49c-0.27-0.06-0.54-0.06-0.899-0.06c-1.86,0-3.181,1.38-3.54,3.36c-0.061,0.36-0.09,0.81-0.09,1.23
		v7.74h-2.641V222.789z"/>
	<path d="M500.094,225.398c0,5.37-3.75,7.71-7.229,7.71c-3.899,0-6.96-2.88-6.96-7.47c0-4.83,3.21-7.68,7.2-7.68
		C497.275,217.959,500.094,220.989,500.094,225.398z M488.605,225.549c0,3.18,1.8,5.58,4.38,5.58c2.52,0,4.41-2.37,4.41-5.64
		c0-2.46-1.23-5.55-4.351-5.55C489.955,219.939,488.605,222.819,488.605,225.549z"/>
	<path d="M503.424,222.189c0-1.53-0.029-2.73-0.119-3.93h2.34l0.149,2.4h0.061c0.72-1.35,2.399-2.7,4.8-2.7
		c2.01,0,5.13,1.2,5.13,6.18v8.64h-2.641v-8.37c0-2.34-0.869-4.29-3.359-4.29c-1.71,0-3.06,1.23-3.54,2.7
		c-0.12,0.33-0.18,0.78-0.18,1.23v8.729h-2.641V222.189z"/>
	<path d="M521.544,225.999c0.06,3.57,2.31,5.04,4.979,5.04c1.89,0,3.06-0.33,4.02-0.75l0.48,1.89c-0.93,0.42-2.55,0.93-4.86,0.93
		c-4.47,0-7.14-2.97-7.14-7.35s2.58-7.8,6.81-7.8c4.771,0,6,4.14,6,6.81c0,0.54-0.029,0.93-0.09,1.23H521.544z M529.284,224.109
		c0.03-1.65-0.689-4.26-3.66-4.26c-2.699,0-3.84,2.43-4.05,4.26H529.284z"/>
	<path d="M535.104,222.189c0-1.53-0.029-2.73-0.119-3.93h2.34l0.149,2.4h0.061c0.72-1.35,2.399-2.7,4.8-2.7
		c2.01,0,5.13,1.2,5.13,6.18v8.64h-2.641v-8.37c0-2.34-0.869-4.29-3.359-4.29c-1.71,0-3.06,1.23-3.54,2.7
		c-0.12,0.33-0.18,0.78-0.18,1.23v8.729h-2.641V222.189z"/>
</g>
<polyline fill="none" stroke="#DD127C" stroke-width="4" points="717.628,294.062 686.708,294.062 613.378,220.732 717.628,220.732 
	"/>
<polyline fill="none" stroke="#010202" stroke-width="4" points="717.628,220.732 825.423,220.732 825.423,294.062 717.628,294.062 
	"/>
<circle fill="#2D4C9B" cx="393.072" cy="251.908" r="4.026"/>
<circle fill="#2D4C9B" cx="457.712" cy="251.908" r="4.026"/>
<circle fill="#2D4C9B" cx="424.36" cy="265.345" r="4.026"/>
<circle fill="#2D4C9B" cx="367.975" cy="267.649" r="4.026"/>
<circle fill="#2D4C9B" cx="479.66" cy="261.32" r="4.026"/>
<circle fill="#2D4C9B" cx="518.209" cy="251.908" r="4.026"/>
<circle fill="#2D4C9B" cx="567.324" cy="263.623" r="4.026"/>
<circle fill="#2D4C9B" cx="558.43" cy="251.908" r="4.026"/>
<circle fill="#2D4C9B" cx="598.405" cy="263.623" r="4.026"/>
<circle fill="#2D4C9B" cx="617.306" cy="255.935" r="4.026"/>
<circle fill="#2D4C9B" cx="491.738" cy="251.908" r="4.026"/>
<line fill="none" stroke="#7C4092" stroke-width="4" x1="632.378" y1="239.731" x2="668.139" y2="275.493"/>
<path fill="none" stroke="#76C3EE" stroke-width="6.6658" d="M842.378,276.399H693.253c-11.284,0-20.432-9.759-20.432-21.798
	c0-12.038,9.147-21.797,20.432-21.797h149.125"/>
<circle fill="#2D4C9B" cx="312.541" cy="251.908" r="4.026"/>
<circle fill="#2D4C9B" cx="333.594" cy="263.623" r="4.026"/>
<circle fill="#2D4C9B" cx="356.001" cy="250.439" r="4.026"/>
<circle fill="#2D4C9B" cx="299.302" cy="275.493" r="4.026"/>
<circle fill="#2D4C9B" cx="294.889" cy="238.726" r="4.026"/>
<circle fill="#2D4C9B" cx="278.147" cy="256.815" r="4.026"/>
<circle fill="#2D4C9B" cx="274.121" cy="283.375" r="4.026"/>
<circle fill="#2D4C9B" cx="270.094" cy="236.805" r="4.026"/>
<circle fill="#2D4C9B" cx="290.863" cy="255.934" r="4.026"/>
<circle fill="#2D4C9B" cx="586.326" cy="252.789" r="4.026"/>
<g>
	<path d="M714.745,243.125h2.609v9.75h0.09c0.54-0.78,1.08-1.5,1.59-2.16l6.18-7.59h3.24l-7.319,8.58l7.89,11.64h-3.09l-6.63-9.93
		l-1.95,2.22v7.709h-2.609V243.125z"/>
	<path d="M742.884,259.355c0,1.53,0.029,2.85,0.119,3.99h-2.34l-0.149-2.37h-0.061c-0.659,1.17-2.22,2.7-4.8,2.7
		c-2.279,0-5.01-1.29-5.01-6.36v-8.49h2.641v8.01c0,2.76,0.869,4.65,3.239,4.65c1.771,0,3-1.23,3.48-2.43
		c0.149-0.36,0.239-0.84,0.239-1.35v-8.88h2.641V259.355z M732.625,244.715c0-0.84,0.66-1.53,1.529-1.53
		c0.811,0,1.44,0.66,1.44,1.53c0,0.81-0.6,1.53-1.5,1.53C733.254,246.246,732.625,245.525,732.625,244.715z M738.174,244.715
		c0-0.84,0.66-1.53,1.5-1.53s1.47,0.66,1.47,1.53c0,0.81-0.6,1.53-1.5,1.53C738.774,246.246,738.174,245.525,738.174,244.715z"/>
	<path d="M747.263,242.045h2.641v9.09h0.06c0.42-0.75,1.08-1.44,1.89-1.89c0.78-0.45,1.71-0.72,2.7-0.72c1.95,0,5.07,1.2,5.07,6.18
		v8.64h-2.641v-8.34c0-2.34-0.87-4.29-3.359-4.29c-1.71,0-3.03,1.2-3.54,2.61c-0.15,0.39-0.18,0.78-0.18,1.26v8.76h-2.641V242.045z"
		/>
	<path d="M763.914,242.045h2.641v21.299h-2.641V242.045z"/>
	<path d="M783.143,259.355c0,1.53,0.029,2.85,0.119,3.99h-2.34l-0.149-2.37h-0.061c-0.659,1.17-2.22,2.7-4.8,2.7
		c-2.279,0-5.01-1.29-5.01-6.36v-8.49h2.641v8.01c0,2.76,0.869,4.65,3.239,4.65c1.771,0,3-1.23,3.48-2.43
		c0.149-0.36,0.239-0.84,0.239-1.35v-8.88h2.641V259.355z"/>
	<path d="M787.523,252.755c0-1.53-0.029-2.73-0.119-3.93h2.34l0.149,2.4h0.061c0.72-1.35,2.399-2.7,4.8-2.7
		c2.01,0,5.13,1.2,5.13,6.18v8.64h-2.641v-8.37c0-2.34-0.87-4.29-3.359-4.29c-1.71,0-3.06,1.23-3.54,2.7
		c-0.12,0.33-0.18,0.78-0.18,1.23v8.729h-2.641V252.755z"/>
	<path d="M816.592,261.215c0,3.36-0.69,5.37-2.07,6.66c-1.439,1.29-3.479,1.74-5.31,1.74c-1.739,0-3.659-0.42-4.83-1.2l0.66-2.04
		c0.96,0.63,2.46,1.17,4.26,1.17c2.7,0,4.68-1.41,4.68-5.1v-1.59h-0.06c-0.78,1.35-2.37,2.43-4.62,2.43c-3.6,0-6.18-3.06-6.18-7.08
		c0-4.92,3.21-7.68,6.57-7.68c2.52,0,3.869,1.29,4.529,2.49h0.061l0.09-2.19h2.34c-0.09,1.02-0.12,2.22-0.12,3.96V261.215z
		 M813.953,254.555c0-0.45-0.03-0.84-0.15-1.17c-0.479-1.56-1.74-2.82-3.689-2.82c-2.521,0-4.32,2.13-4.32,5.49
		c0,2.85,1.471,5.22,4.29,5.22c1.65,0,3.12-1.02,3.66-2.7c0.149-0.45,0.21-0.96,0.21-1.41V254.555z"/>
</g>
<g>
	<g>
		<line fill="none" stroke="#4EAE33" stroke-width="3" x1="644.378" y1="255.934" x2="505.266" y2="471.186"/>
		<g>
			<polygon fill="#4EAE33" points="493.769,488.976 499.727,457.287 506.125,469.855 520.211,470.525 			"/>
		</g>
	</g>
</g>
<g>
	<g>
		<line fill="none" stroke="#4EAE33" stroke-width="3" x1="644.378" y1="255.934" x2="560.086" y2="446.082"/>
		<g>
			<polygon fill="#4EAE33" points="551.502,465.446 552.448,433.217 560.728,444.635 574.745,443.101 			"/>
		</g>
	</g>
</g>
<g>
	<g>
		<line fill="none" stroke="#4EAE33" stroke-width="3" x1="644.378" y1="255.934" x2="509.148" y2="384.011"/>
		<g>
			<polygon fill="#4EAE33" points="493.769,398.576 507.053,369.196 510.298,382.922 523.825,386.904 			"/>
		</g>
	</g>
</g>
<circle fill="#2D4C9B" cx="640.353" cy="256.814" r="4.026"/>
<circle fill="#2D4C9B" cx="542.379" cy="263.623" r="4.026"/>
<circle fill="#2D4C9B" cx="506.378" cy="263.623" r="4.026"/>
<circle fill="#2D4C9B" cx="444.378" cy="263.623" r="4.026"/>
<circle fill="#2D4C9B" cx="432.412" cy="250.02" r="4.026"/>
<circle fill="#2D4C9B" cx="397.098" cy="263.623" r="4.026"/>
<g>
	<path d="M600.22,424.271c1.319-0.239,3.239-0.42,5.01-0.42c2.789,0,4.619,0.541,5.85,1.65c0.99,0.9,1.59,2.279,1.59,3.869
		c0,2.641-1.68,4.41-3.78,5.131v0.09c1.53,0.539,2.46,1.979,2.94,4.08c0.66,2.819,1.14,4.77,1.56,5.549h-2.7
		c-0.329-0.6-0.779-2.31-1.319-4.829c-0.601-2.79-1.71-3.84-4.08-3.931h-2.46v8.76h-2.609V424.271z M602.83,433.48h2.67
		c2.79,0,4.56-1.53,4.56-3.84c0-2.61-1.89-3.749-4.649-3.749c-1.26,0-2.13,0.09-2.58,0.209V433.48z"/>
	<path d="M629.529,436.841c0,5.369-3.75,7.709-7.229,7.709c-3.899,0-6.96-2.879-6.96-7.469c0-4.83,3.21-7.68,7.2-7.68
		C626.709,429.401,629.529,432.431,629.529,436.841z M618.04,436.991c0,3.18,1.8,5.579,4.38,5.579c2.52,0,4.41-2.37,4.41-5.64
		c0-2.46-1.23-5.55-4.351-5.55C619.389,431.381,618.04,434.261,618.04,436.991z M618.16,425.591c0-0.84,0.66-1.529,1.53-1.529
		c0.81,0,1.439,0.66,1.439,1.529c0,0.811-0.6,1.53-1.5,1.53C618.79,427.121,618.16,426.401,618.16,425.591z M623.709,425.591
		c0-0.84,0.66-1.529,1.5-1.529s1.47,0.66,1.47,1.529c0,0.811-0.6,1.53-1.5,1.53C624.309,427.121,623.709,426.401,623.709,425.591z"
		/>
	<path d="M632.859,433.631c0-1.53-0.029-2.729-0.119-3.931h2.34l0.149,2.4h0.061c0.72-1.35,2.399-2.699,4.8-2.699
		c2.01,0,5.13,1.199,5.13,6.18v8.639h-2.641v-8.369c0-2.34-0.87-4.29-3.359-4.29c-1.71,0-3.06,1.229-3.54,2.7
		c-0.12,0.33-0.18,0.779-0.18,1.23v8.729h-2.641V433.631z"/>
	<path d="M652.57,426.221v3.479h3.779v2.011h-3.779v7.829c0,1.801,0.51,2.82,1.979,2.82c0.72,0,1.14-0.061,1.53-0.18l0.12,2.01
		c-0.511,0.18-1.32,0.359-2.34,0.359c-1.23,0-2.221-0.42-2.851-1.109c-0.72-0.811-1.02-2.1-1.02-3.811v-7.919h-2.25V429.7h2.25
		v-2.699L652.57,426.221z"/>
	<path d="M671.559,442.091c0,3.359-0.69,5.369-2.07,6.659c-1.439,1.29-3.479,1.739-5.31,1.739c-1.739,0-3.659-0.42-4.83-1.199
		l0.66-2.04c0.96,0.63,2.46,1.17,4.26,1.17c2.7,0,4.68-1.409,4.68-5.1v-1.59h-0.06c-0.78,1.35-2.37,2.43-4.62,2.43
		c-3.6,0-6.18-3.06-6.18-7.079c0-4.92,3.21-7.68,6.57-7.68c2.52,0,3.869,1.289,4.529,2.489h0.061l0.09-2.19h2.34
		c-0.09,1.021-0.12,2.221-0.12,3.961V442.091z M668.919,435.431c0-0.45-0.03-0.84-0.15-1.17c-0.479-1.561-1.74-2.82-3.689-2.82
		c-2.521,0-4.32,2.131-4.32,5.49c0,2.85,1.471,5.22,4.29,5.22c1.65,0,3.12-1.021,3.66-2.7c0.149-0.449,0.21-0.96,0.21-1.41V435.431z
		"/>
	<path d="M677.379,437.44c0.06,3.57,2.31,5.04,4.979,5.04c1.89,0,3.06-0.33,4.02-0.75l0.48,1.89c-0.93,0.42-2.55,0.93-4.86,0.93
		c-4.47,0-7.14-2.97-7.14-7.35c0-4.379,2.58-7.799,6.81-7.799c4.771,0,6,4.139,6,6.809c0,0.541-0.03,0.931-0.09,1.23H677.379z
		 M685.119,435.551c0.03-1.65-0.689-4.261-3.66-4.261c-2.699,0-3.84,2.431-4.05,4.261H685.119z"/>
	<path d="M690.938,433.631c0-1.53-0.029-2.729-0.119-3.931h2.34l0.149,2.4h0.061c0.72-1.35,2.399-2.699,4.8-2.699
		c2.01,0,5.13,1.199,5.13,6.18v8.639h-2.641v-8.369c0-2.34-0.869-4.29-3.359-4.29c-1.71,0-3.06,1.229-3.54,2.7
		c-0.12,0.33-0.18,0.779-0.18,1.23v8.729h-2.641V433.631z"/>
	<path d="M713.708,435.161v1.92h-7.409v-1.92H713.708z"/>
	<path d="M599.77,471.551c0.81,0.48,2.189,1.02,3.51,1.02c1.89,0,2.79-0.93,2.79-2.159c0-1.26-0.75-1.92-2.67-2.641
		c-2.64-0.96-3.87-2.369-3.87-4.109c0-2.34,1.92-4.26,5.01-4.26c1.47,0,2.76,0.391,3.54,0.9l-0.63,1.92
		c-0.57-0.36-1.62-0.871-2.97-0.871c-1.561,0-2.4,0.9-2.4,1.98c0,1.2,0.84,1.74,2.73,2.49c2.489,0.93,3.81,2.189,3.81,4.35
		c0,2.58-2.01,4.38-5.399,4.38c-1.591,0-3.061-0.42-4.08-1.021L599.77,471.551z"/>
	<path d="M615.19,456.222v3.479h3.779v2.011h-3.779v7.829c0,1.8,0.51,2.819,1.979,2.819c0.72,0,1.14-0.06,1.53-0.18l0.12,2.01
		c-0.511,0.181-1.32,0.36-2.34,0.36c-1.23,0-2.221-0.42-2.851-1.11c-0.72-0.81-1.02-2.1-1.02-3.81v-7.919h-2.25v-2.011h2.25v-2.7
		L615.19,456.222z"/>
	<path d="M621.939,464.231c0-1.711-0.029-3.18-0.119-4.53h2.31l0.12,2.88h0.09c0.66-1.949,2.28-3.18,4.05-3.18
		c0.27,0,0.479,0.029,0.72,0.061v2.489c-0.27-0.06-0.54-0.06-0.899-0.06c-1.86,0-3.181,1.38-3.54,3.359
		c-0.061,0.36-0.09,0.81-0.09,1.23v7.739h-2.641V464.231z"/>
	<path d="M641.799,470.741c0,1.26,0.06,2.489,0.21,3.479h-2.37l-0.21-1.83h-0.09c-0.811,1.14-2.37,2.16-4.439,2.16
		c-2.94,0-4.44-2.07-4.44-4.17c0-3.51,3.12-5.43,8.729-5.399v-0.301c0-1.17-0.33-3.359-3.3-3.33c-1.38,0-2.79,0.391-3.81,1.08
		l-0.6-1.77c1.199-0.75,2.97-1.26,4.8-1.26c4.439,0,5.52,3.029,5.52,5.91V470.741z M639.25,466.811c-2.88-0.06-6.15,0.45-6.15,3.271
		c0,1.739,1.141,2.52,2.46,2.52c1.92,0,3.15-1.2,3.57-2.43c0.09-0.3,0.12-0.6,0.12-0.84V466.811z"/>
	<path d="M646.059,452.921h2.641v9.09h0.06c0.42-0.75,1.08-1.439,1.89-1.89c0.78-0.45,1.71-0.72,2.7-0.72
		c1.95,0,5.07,1.199,5.07,6.18v8.64h-2.641v-8.34c0-2.34-0.869-4.29-3.359-4.29c-1.71,0-3.03,1.2-3.54,2.61
		c-0.15,0.39-0.18,0.78-0.18,1.26v8.76h-2.641V452.921z"/>
	<path d="M662.708,452.921h2.641v21.3h-2.641V452.921z"/>
	<path d="M681.939,470.23c0,1.53,0.029,2.851,0.119,3.99h-2.34l-0.149-2.37h-0.061c-0.659,1.17-2.22,2.7-4.8,2.7
		c-2.279,0-5.01-1.29-5.01-6.359v-8.49h2.641v8.01c0,2.76,0.869,4.649,3.239,4.649c1.771,0,3-1.229,3.48-2.43
		c0.149-0.359,0.239-0.84,0.239-1.35v-8.88h2.641V470.23z"/>
	<path d="M686.319,463.631c0-1.53-0.029-2.729-0.119-3.93h2.34l0.149,2.399h0.061c0.72-1.35,2.399-2.699,4.8-2.699
		c2.01,0,5.13,1.199,5.13,6.18v8.64h-2.641v-8.37c0-2.34-0.869-4.289-3.359-4.289c-1.71,0-3.06,1.229-3.54,2.699
		c-0.12,0.33-0.18,0.78-0.18,1.23v8.729h-2.641V463.631z"/>
	<path d="M715.388,472.091c0,3.359-0.689,5.37-2.07,6.66c-1.439,1.289-3.479,1.739-5.31,1.739c-1.739,0-3.659-0.42-4.829-1.2
		l0.659-2.039c0.96,0.63,2.46,1.17,4.26,1.17c2.7,0,4.681-1.41,4.681-5.101v-1.59h-0.061c-0.78,1.351-2.37,2.431-4.62,2.431
		c-3.6,0-6.18-3.061-6.18-7.08c0-4.92,3.21-7.68,6.57-7.68c2.52,0,3.869,1.29,4.529,2.49h0.061l0.09-2.19h2.34
		c-0.09,1.021-0.12,2.22-0.12,3.96V472.091z M712.749,465.431c0-0.449-0.03-0.84-0.15-1.17c-0.479-1.56-1.739-2.819-3.689-2.819
		c-2.521,0-4.32,2.13-4.32,5.489c0,2.851,1.47,5.22,4.29,5.22c1.65,0,3.12-1.02,3.66-2.699c0.149-0.45,0.21-0.96,0.21-1.41V465.431z
		"/>
</g>
<g>
	<g>
		<line fill="none" stroke="#1B181C" stroke-width="3" x1="244.693" y1="277.417" x2="119.023" y2="391.36"/>
		<g>
			<polygon fill="#1B181C" points="260.385,263.189 230.081,274.203 243.52,278.481 246.463,292.271 			"/>
		</g>
	</g>
</g>
</svg>
