<?xml version="1.0" encoding="utf-8"  standalone="no"?>
<!DOCTYPE svg PUBLIC "-//W3C//DTD SVG 1.1//EN" "http://www.w3.org/Graphics/SVG/1.1/DTD/svg11.dtd">
<svg xmlns="http://www.w3.org/2000/svg"
     width="1800"
     height="1300"
     viewBox="-150 -30 1800 1300">

<desc>Woods Saxon potential</desc>

<defs></defs>
   <rect x="-150" y="-30" width="1800" height="1300" style="stroke:none; fill:#FFFFFF;" />
	<g id="grid" style="fill:none; stroke:#000000; stroke-width:3; stroke-linecap:round; stroke-linejoin:round; stroke-dasharray:1 10;">

		<path  d="M 72.0,1142.4  L 1566.0,1142.4 "></path>
		<path  d="M 72.0,937.7   L 1566.0,937.7  "></path>
		<path  d="M 72.0,733.1   L 1566.0,733.1  "></path>
		<path  d="M 72.0,528.4   L 1566.0,528.4  "></path>
		<path  d="M 72.0,323.7   L 1566.0,323.7  "></path>
		<path  d="M 72.0,119.0   L 1566.0,119.0  "></path>

		<path  d="M   71.9,1142.4  L   71.9,25.7 "></path>
		<path  d="M  259.8,1142.4  L  259.8,25.7 "></path>
		<path  d="M  447.7,1142.4  L  447.7,25.7 "></path>
		<path  d="M  635.6,1142.4  L  635.6,25.7 "></path>
		<path  d="M  823.5,1142.4  L  823.5,25.7 "></path>
		<path  d="M 1011.3,1142.4  L 1011.3,25.7 "></path>
		<path  d="M 1199.2,1142.4  L 1199.2,25.7 "></path>
		<path  d="M 1387.1,1142.4  L 1387.1,25.7 "></path>
		<path  d="M 1575.0,1142.4  L 1575.0,25.7 "></path>
	</g>

	<g id="axes" style="fill:none;  stroke:#000000; stroke-width:3; stroke-linecap:round; stroke-linejoin:round;">
		<path  d="M 71.9,16.7 L 71.9,1142.4 L 1575.0,1142.4 L 1575.0,16.7 L 71.9,16.7 Z"></path>

		<path  d="M 72.0,1142.4 L 81.0,1142.4 M 1575.0,1142.4 L 1566.0,1142.4 "></path>
		<path  d="M 72.0,937.7  L 81.0,937.7  M 1575.0,937.7  L 1566.0,937.7  "></path>
		<path  d="M 72.0,733.1  L 81.0,733.1  M 1575.0,733.1  L 1566.0,733.1  "></path>
		<path  d="M 72.0,528.4  L 81.0,528.4  M 1575.0,528.4  L 1566.0,528.4  "></path>
		<path  d="M 72.0,323.7  L 81.0,323.7  M 1575.0,323.7  L 1566.0,323.7  "></path>
		<path  d="M 72.0,119.0  L 81.0,119.0  M 1575.0,119.0  L 1566.0,119.0  "></path>
		<g style="stroke:none; fill:#000000; font-family:Arial; font-size:48px; text-anchor:end; font-weight:bold;">
			<text transform="translate(64,1146.9)"><tspan>-1.0</tspan></text>
			<text transform="translate(64,942.2)"><tspan>-0.8</tspan></text>
			<text transform="translate(64,737.6)"><tspan>-0.6</tspan></text>
			<text transform="translate(64,532.9)"><tspan>-0.4</tspan></text>
			<text transform="translate(64,328.2)"><tspan>-0.2</tspan></text>
			<text transform="translate(64,123.5)"><tspan>0.0</tspan></text>
		</g>

		<path  d="M 71.9,1142.4 L 71.9,1133.4 M 71.9,16.7 L 71.9,25.7 "></path>
		<path  d="M 259.8,1142.4 L 259.8,1133.4 M 259.8,16.7 L 259.8,25.7 "></path>
		<path  d="M 447.7,1142.4 L 447.7,1133.4 M 447.7,16.7 L 447.7,25.7 "></path>
		<path  d="M 635.6,1142.4 L 635.6,1133.4 M 635.6,16.7 L 635.6,25.7 "></path>
		<path  d="M 823.5,1142.4 L 823.5,1133.4 M 823.5,16.7 L 823.5,25.7 "></path>
		<path  d="M 1011.3,1142.4 L 1011.3,1133.4 M 1011.3,16.7 L 1011.3,25.7 "></path>
		<path  d="M 1199.2,1142.4 L 1199.2,1133.4 M 1199.2,16.7 L 1199.2,25.7 "></path>
		<path  d="M 1387.1,1142.4 L 1387.1,1133.4 M 1387.1,16.7 L 1387.1,25.7 "></path>
		<path  d="M 1575.0,1142.4 L 1575.0,1133.4 M 1575.0,16.7 L 1575.0,25.7 "></path>

		<g style="stroke:none; fill:#000000; font-family:Arial; font-size:48px; text-anchor:middle; font-weight:bold;">
			<text transform="translate(71.9,1200)"><tspan>0</tspan></text>
			<text transform="translate(259.8,1200)"><tspan>1</tspan></text>
			<text transform="translate(447.7,1200)"><tspan>2</tspan></text>
			<text transform="translate(635.6,1200)"><tspan>3</tspan></text>
			<text transform="translate(823.5,1200)"><tspan>4</tspan></text>
			<text transform="translate(1011.3,1200)"><tspan>5</tspan></text>
			<text transform="translate(1199.2,1200)"><tspan>6</tspan></text>
			<text transform="translate(1387.1,1200)"><tspan>7</tspan></text>
			<text transform="translate(1575.0,1200)"><tspan>8</tspan></text>
		</g>

		<g style="stroke:none; fill:#000000; font-family:Arial; font-size:60px; text-anchor:middle; font-weight:bold;">
			<text transform="translate(-80,630) rotate(270)"><tspan>V(r)/V</tspan><tspan style="baseline-shift:sub;font-size:50px;">0</tspan></text>
			<text transform="translate(1100,1240)"><tspan>r[fm]</tspan></text>
		</g>
	</g>
	<polyline style="fill:none; stroke:#000000; stroke-width:3.0; stroke-linecap:round; stroke-linejoin:round;" points=
	  "   71.9,1142.3    75.7,1142.3    79.4,1142.3    83.2,1142.3    87.0,1142.3    90.7,1142.3 
		   94.5,1142.3    98.3,1142.3   102.0,1142.3   105.8,1142.3   109.6,1142.2   113.3,1142.2   117.1,1142.2   120.9,1142.2 
		  124.6,1142.2   128.4,1142.2   132.2,1142.2   135.9,1142.2   139.7,1142.2   143.5,1142.2   147.2,1142.2   151.0,1142.2 
		  154.8,1142.2   158.5,1142.1   162.3,1142.1   166.1,1142.1   169.8,1142.1   173.6,1142.1   177.4,1142.1   181.1,1142.1 
		  184.9,1142.1   188.7,1142.0   192.4,1142.0   196.2,1142.0   200.0,1142.0   203.8,1142.0   207.5,1142.0   211.3,1141.9 
		  215.1,1141.9   218.8,1141.9   222.6,1141.9   226.4,1141.9   230.1,1141.8   233.9,1141.8   237.7,1141.8   241.4,1141.8 
		  245.2,1141.8   249.0,1141.7   252.7,1141.7   256.5,1141.7   260.3,1141.6   264.0,1141.6   267.8,1141.6   271.6,1141.5 
		  275.3,1141.5   279.1,1141.5   282.9,1141.4   286.6,1141.4   290.4,1141.4   294.2,1141.3   297.9,1141.3   301.7,1141.2 
		  305.5,1141.2   309.2,1141.1   313.0,1141.1   316.8,1141.0   320.5,1141.0   324.3,1140.9   328.1,1140.8   331.8,1140.8 
		  335.6,1140.7   339.4,1140.6   343.1,1140.6   346.9,1140.5   350.7,1140.4   354.4,1140.3   358.2,1140.2   362.0,1140.2 
		  365.7,1140.1   369.5,1140.0   373.3,1139.9   377.0,1139.8   380.8,1139.7   384.6,1139.6   388.3,1139.4   392.1,1139.3 
		  395.9,1139.2   399.6,1139.1   403.4,1138.9   407.2,1138.8   410.9,1138.6   414.7,1138.5   418.5,1138.3   422.2,1138.2 
		  426.0,1138.0   429.8,1137.8   433.5,1137.6   437.3,1137.4   441.1,1137.2   444.8,1137.0   448.6,1136.8   452.4,1136.6 
		  456.2,1136.3   459.9,1136.1   463.7,1135.8   467.5,1135.5   471.2,1135.3   475.0,1135.0   478.8,1134.7   482.5,1134.4 
		  486.3,1134.0   490.1,1133.7   493.8,1133.3   497.6,1133.0   501.4,1132.6   505.1,1132.2   508.9,1131.8   512.7,1131.4 
		  516.4,1130.9   520.2,1130.4   524.0,1130.0   527.7,1129.5   531.5,1128.9   535.3,1128.4   539.0,1127.8   542.8,1127.2 
		  546.6,1126.6   550.3,1126.0   554.1,1125.3   557.9,1124.7   561.6,1123.9   565.4,1123.2   569.2,1122.4   572.9,1121.6 
		  576.7,1120.8   580.5,1119.9   584.2,1119.0   588.0,1118.1   591.8,1117.1   595.5,1116.1   599.3,1115.1   603.1,1114.0 
		  606.8,1112.9   610.6,1111.7   614.4,1110.5   618.1,1109.2   621.9,1107.9   625.7,1106.5   629.4,1105.1   633.2,1103.7 
		  637.0,1102.1   640.7,1100.5   644.5,1098.9   648.3,1097.2   652.0,1095.4   655.8,1093.6   659.6,1091.7   663.3,1089.7 
		  667.1,1087.7   670.9,1085.6   674.6,1083.4   678.4,1081.1   682.2,1078.8   685.9,1076.4   689.7,1073.8   693.5,1071.2 
		  697.2,1068.5   701.0,1065.7   704.8,1062.8   708.6,1059.8   712.3,1056.7   716.1,1053.5   719.9,1050.2   723.6,1046.8 
		  727.4,1043.3   731.2,1039.6   734.9,1035.9   738.7,1032.0   742.5,1028.0   746.2,1023.8   750.0,1019.6   753.8,1015.2 
		  757.5,1010.6   761.3,1005.9   765.1,1001.1   768.8,996.2    772.6,991.1    776.4,985.8    780.1,980.4    783.9,974.9 
		  787.7,969.2    791.4,963.4    795.2,957.4    799.0,951.2    802.7,944.9    806.5,938.4    810.3,931.8    814.0,925.0 
		  817.8,918.1    821.6,911.0    825.3,903.7    829.1,896.3    832.9,888.7    836.6,881.0    840.4,873.1    844.2,865.1 
		  847.9,856.9    851.7,848.6    855.5,840.1    859.2,831.5    863.0,822.7    866.8,813.8    870.5,804.8    874.3,795.7 
		  878.1,786.4    881.8,777.1    885.6,767.6    889.4,758.0    893.1,748.4    896.9,738.6    900.7,728.8    904.4,718.8 
		  908.2,708.9    912.0,698.8    915.7,688.7    919.5,678.6    923.3,668.4    927.0,658.1    930.8,647.9    934.6,637.7 
		  938.3,627.4    942.1,617.1    945.9,606.9    949.7,596.7    953.4,586.5    957.2,576.3    961.0,566.2    964.7,556.1 
		  968.5,546.1    972.3,536.2    976.0,526.3    979.8,516.5    983.6,506.8    987.3,497.2    991.1,487.7    994.9,478.3 
		  998.6,469.0   1002.4,459.8   1006.2,450.8   1009.9,441.8   1013.7,433.0   1017.5,424.4   1021.2,415.9   1025.0,407.5 
		 1028.8,399.2   1032.5,391.2   1036.3,383.2   1040.1,375.4   1043.8,367.8   1047.6,360.3   1051.4,353.0   1055.1,345.9 
		 1058.9,338.9   1062.7,332.0   1066.4,325.3   1070.2,318.8   1074.0,312.4   1077.7,306.2   1081.5,300.2   1085.3,294.3 
		 1089.0,288.5   1092.8,282.9   1096.6,277.5   1100.3,272.2   1104.1,267.0   1107.9,262.0   1111.6,257.2   1115.4,252.5 
		 1119.2,247.9   1122.9,243.4   1126.7,239.1   1130.5,234.9   1134.2,230.9   1138.0,226.9   1141.8,223.1   1145.5,219.4 
		 1149.3,215.9   1153.1,212.4   1156.8,209.1   1160.6,205.8   1164.4,202.7   1168.1,199.7   1171.9,196.7   1175.7,193.9 
		 1179.4,191.2   1183.2,188.5   1187.0,186.0   1190.7,183.5   1194.5,181.1   1198.3,178.8   1202.1,176.6   1205.8,174.5 
		 1209.6,172.4   1213.4,170.4   1217.1,168.5   1220.9,166.6   1224.7,164.8   1228.4,163.1   1232.2,161.5   1236.0,159.9 
		 1239.7,158.3   1243.5,156.8   1247.3,155.4   1251.0,154.0   1254.8,152.7   1258.6,151.4   1262.3,150.2   1266.1,149.0 
		 1269.9,147.8   1273.6,146.7   1277.4,145.7   1281.2,144.7   1284.9,143.7   1288.7,142.7   1292.5,141.8   1296.2,140.9 
		 1300.0,140.1   1303.8,139.3   1307.5,138.5   1311.3,137.8   1315.1,137.0   1318.8,136.3   1322.6,135.7   1326.4,135.0 
		 1330.1,134.4   1333.9,133.8   1337.7,133.2   1341.4,132.7   1345.2,132.2   1349.0,131.6   1352.7,131.2   1356.5,130.7 
		 1360.3,130.2   1364.0,129.8   1367.8,129.4   1371.6,129.0   1375.3,128.6   1379.1,128.2   1382.9,127.9   1386.6,127.5 
		 1390.4,127.2   1394.2,126.9   1397.9,126.6   1401.7,126.3   1405.5,126.0   1409.2,125.7   1413.0,125.5   1416.8,125.2 
		 1420.5,125.0   1424.3,124.7   1428.1,124.5   1431.8,124.3   1435.6,124.1   1439.4,123.9   1443.1,123.7   1446.9,123.5 
		 1450.7,123.3   1454.5,123.2   1458.2,123.0   1462.0,122.9   1465.8,122.7   1469.5,122.6   1473.3,122.4   1477.1,122.3 
		 1480.8,122.2   1484.6,122.0   1488.4,121.9   1492.1,121.8   1495.9,121.7   1499.7,121.6   1503.4,121.5   1507.2,121.4 
		 1511.0,121.3   1514.7,121.2   1518.5,121.1   1522.3,121.1   1526.0,121.0   1529.8,120.9   1533.6,120.8   1537.3,120.8 
		 1541.1,120.7   1544.9,120.6   1548.6,120.6   1552.4,120.5   1556.2,120.4   1559.9,120.4   1563.7,120.3   1567.5,120.3 
		 1571.2,120.2   1575.0,120.2" />
</svg>

